<svg width="24" height="21" viewBox="0 0 24 21" fill="none" xmlns="http://www.w3.org/2000/svg">
<path d="M20.9075 14.7036C19.7025 13.4986 17.8722 13.3081 16.4642 14.123C14.3349 15.3748 11.5527 15.0927 9.72536 13.2647C7.88086 11.4205 7.61058 8.60564 8.90038 6.46931C8.89904 6.4683 8.89702 6.46729 8.89567 6.46628C9.67353 5.06607 9.47157 3.26734 8.28241 2.07818C6.84484 0.640608 4.51497 0.640608 3.07707 2.07818C1.72028 3.4353 1.64589 5.58711 2.85088 7.0331C4.69875 9.47067 6.7277 11.8143 8.95154 14.0382C11.1656 16.2523 13.4975 18.2768 15.922 20.12C15.9246 20.1176 15.9267 20.1153 15.9287 20.1129C17.375 21.3398 19.543 21.2735 20.9078 19.9086C22.3444 18.4717 22.3444 16.1412 20.9075 14.7036Z" fill="#F7A600"/>
<path d="M13.6771 4.26778H14.6868V4.9349H15.6966V4.26744V2.92109V2.24219H14.6868V2.92142H13.6771C13.3055 2.92142 13.0039 3.22301 13.0039 3.5946C13.0039 3.96619 13.3055 4.26778 13.6771 4.26778Z" fill="#F7A600"/>
<path d="M21.4351 3.59505C21.4351 3.22346 21.1335 2.92188 20.7619 2.92188L16.3711 2.92288V4.26924L20.7619 4.26857C21.1335 4.26823 21.4351 3.96665 21.4351 3.59505Z" fill="#F7A600"/>
<path d="M13.6771 6.96031L18.3893 6.95964V5.61328L13.6771 5.61396C13.3055 5.61396 13.0039 5.91554 13.0039 6.28713C13.0039 6.65873 13.3055 6.96031 13.6771 6.96031Z" fill="#F7A600"/>
<path d="M20.7606 5.61148H20.0723V4.93359H19.0625V5.61182V6.95817V7.6263H20.0723V6.95817H20.7606C21.1322 6.95817 21.4338 6.65659 21.4338 6.285C21.4338 5.9134 21.1322 5.61148 20.7606 5.61148Z" fill="#F7A600"/>
<path d="M13.6771 9.6545L15.0234 9.65416V10.3216H16.0332V9.65416V8.3078V7.62891H15.0234V8.3078L13.6771 8.30814C13.3055 8.30814 13.0039 8.60973 13.0039 8.98132C13.0039 9.35291 13.3055 9.6545 13.6771 9.6545Z" fill="#F7A600"/>
<path d="M20.7612 8.30469L16.707 8.3057V9.65205L20.7612 9.65138C21.1328 9.65138 21.4344 9.34979 21.4344 8.9782C21.4344 8.60661 21.1328 8.30469 20.7612 8.30469Z" fill="#F7A600"/>
</svg>
