<svg width="47" height="44" viewBox="0 0 47 44" fill="none" xmlns="http://www.w3.org/2000/svg">
<path d="M4.01622 16.3047C1.80091 16.3047 0 18.0605 0 20.2316V33.9111C0 36.0772 1.79571 37.838 4.01622 37.838H6.24455C6.47911 37.838 6.67197 38.0266 6.67197 38.256V42.7384C6.67197 43.1028 7.12025 43.294 7.39128 43.0442L12.1216 38.707C12.7289 38.1464 13.5368 37.8406 14.376 37.8406H26.6726C28.8879 37.8406 30.6888 36.0848 30.6888 33.9137V29.3598H22.6957C19.3805 29.3598 16.6779 26.7172 16.6779 23.4758V16.3128H4.01437L4.01622 16.3047Z" fill="#F7A600"/>
<path d="M42.3816 1.9211H24.7574C22.2098 1.9211 20.1387 4.04203 20.1387 6.6647V22.4011C20.1387 25.0176 22.2038 27.1447 24.7574 27.1447H32.7604C33.7195 27.1447 34.6487 27.5233 35.353 28.1913L40.7931 33.4305C41.1078 33.7291 41.6203 33.5013 41.6203 33.0611V27.6464C41.6203 27.3693 41.8421 27.1415 42.1118 27.1415H42.3726C44.9203 27.1415 46.9914 25.0206 46.9914 22.3979V6.66157C46.9914 4.04505 44.9262 1.91797 42.3726 1.91797L42.3816 1.9211Z" fill="#6524EB"/>
<rect x="21.5332" y="2.12109" width="25.127" height="23.2097" rx="4" fill="#6524EB"/>
<path d="M42.9047 13.3357C42.9047 13.6576 42.9562 14.1436 42.9047 14.4542C41.0838 23.1447 32.2783 24.702 31.3748 24.2202C31.2888 24.1743 32.2783 22.0733 31.9772 21.4668C28.9226 21.4668 25.1797 16.6053 25.1797 13.8519C25.1797 9.91643 28.8462 6.33594 33.743 6.33594C38.6398 6.33594 42.9047 9.40017 42.9047 13.3357Z" fill="white"/>
<path d="M42.6987 13.6347C42.6987 9.69923 38.9011 6.50888 34.0042 6.50888C29.1074 6.50889 25.1378 9.69924 25.1378 13.6347L25.1385 13.7268C25.1897 16.9752 28.6337 20.4741 32.3675 21.2874C32.5396 21.3249 31.8922 23.7908 31.8922 23.7908L33.0538 23.4897C33.0538 23.4897 40.7547 22.3281 42.5188 15.0699C42.6247 14.6341 42.6907 14.1863 42.698 13.7268L42.6987 13.6347ZM43.7312 13.6347C43.7312 14.1691 43.6509 14.6835 43.5518 15.1864C41.805 24.049 30.5606 25.2966 30.5606 25.2966C30.5606 25.2966 31.415 22.0171 31.2059 21.9409C27.547 20.6072 24.2774 17.51 24.2773 13.6347C24.2773 9.058 28.8173 5.64845 34.0042 5.64844C39.1912 5.64844 43.7312 9.05799 43.7312 13.6347Z" fill="#6524EB"/>
<path d="M29.6907 24.1698C32.369 24.0662 35.1038 23.6429 36.9624 22.7122C41.4463 20.4671 42.6811 17.7894 43.0898 14.7669L31.448 19.6696L29.6907 24.1698Z" fill="white"/>
<ellipse cx="36.2797" cy="14.5835" rx="6.62538" ry="7.52884" fill="white"/>
<ellipse cx="34.0967" cy="14.3327" rx="8.93069" ry="7.7702" fill="white"/>
<rect x="27.1602" y="10.4727" width="10.9879" height="5.65715" rx="2.82857" fill="#6524EB"/>
<rect x="28.5742" y="11.8867" width="1.41429" height="2.82857" rx="0.707143" fill="white"/>
<rect x="30.8574" y="11.8867" width="1.41429" height="2.82857" rx="0.707143" fill="white"/>
<path d="M35.3298 2.10733C35.3298 2.93894 34.6749 3.6131 33.867 3.6131C33.0592 3.6131 32.4043 2.93894 32.4043 2.10733C32.4043 1.27572 33.0592 0.601562 33.867 0.601562C34.6749 0.601562 35.3298 1.27572 35.3298 2.10733Z" fill="white"/>
<path d="M35.3114 2.15113C35.3114 1.36637 34.6852 0.727853 33.9052 0.708083L33.8679 0.7076C33.0707 0.7076 32.4244 1.35391 32.4244 2.15113L32.4249 2.18838C32.4443 2.95598 33.063 3.57465 33.8306 3.59411L33.8679 3.59459C34.6527 3.59458 35.2911 2.96837 35.3109 2.18838L35.3114 2.15113ZM36.019 2.15113C36.019 3.33913 35.0559 4.30218 33.8679 4.30219C32.6799 4.30219 31.7168 3.33914 31.7168 2.15113C31.7168 0.963109 32.6799 0 33.8679 0C35.0559 1.49535e-05 36.019 0.963119 36.019 2.15113Z" fill="#6524EB"/>
<path d="M34.4774 3.61328L34.817 6.53877H32.752L33.225 3.61328H34.4774ZM33.6788 4.08769L33.3592 6.06437H34.2341L34.0046 4.08769H33.6788Z" fill="#6524EB"/>
<path d="M33.6951 3.87109H34.0274L34.3843 6.6245H33.1797L33.6951 3.87109Z" fill="white"/>
</svg>
