<svg width="45" height="45" viewBox="0 0 45 45" fill="none" xmlns="http://www.w3.org/2000/svg">
<path d="M22.5 0C10.07 0 0 10.07 0 22.5C0 28.71 2.52 34.34 6.59 38.41L0 45H22.5C34.93 45 45 34.93 45 22.5C45 10.07 34.93 0 22.5 0ZM15 25C13.62 25 12.5 23.88 12.5 22.5C12.5 21.12 13.62 20 15 20C16.38 20 17.5 21.12 17.5 22.5C17.5 23.88 16.38 25 15 25ZM22.5 25C21.12 25 20 23.88 20 22.5C20 21.12 21.12 20 22.5 20C23.88 20 25 21.12 25 22.5C25 23.88 23.88 25 22.5 25ZM30 25C28.62 25 27.5 23.88 27.5 22.5C27.5 21.12 28.62 20 30 20C31.38 20 32.5 21.12 32.5 22.5C32.5 23.88 31.38 25 30 25Z" fill="#F7A600"/>
</svg>
