<svg width="394" height="230" viewBox="0 0 394 230" fill="none" xmlns="http://www.w3.org/2000/svg">
<path d="M117.914 0.5C122.029 0.5 125.766 2.90422 127.471 6.64941L133.455 19.793L133.777 20.5H23.2227L23.5449 19.793L29.5293 6.64941C31.2345 2.90422 34.9708 0.5 39.0859 0.5H117.914Z" fill="url(#paint0_linear_1499_663)" stroke="white"/>
<path d="M43.2008 14.508C43.9448 14.508 44.5068 14.348 44.8868 14.028C45.2708 13.704 45.4628 13.25 45.4628 12.666C45.4628 12.398 45.4108 12.158 45.3068 11.946C45.2068 11.73 45.0608 11.548 44.8688 11.4C44.6768 11.248 44.4408 11.132 44.1608 11.052C43.8808 10.972 43.5628 10.932 43.2068 10.932H41.0708V14.508H43.2008ZM41.0708 6.996V10.482H42.9068C43.2988 10.482 43.6328 10.432 43.9088 10.332C44.1888 10.232 44.4168 10.1 44.5928 9.936C44.7728 9.772 44.9048 9.586 44.9888 9.378C45.0728 9.17 45.1148 8.956 45.1148 8.736C45.1148 8.164 44.9328 7.732 44.5688 7.44C44.2088 7.144 43.6508 6.996 42.8948 6.996H41.0708ZM42.8948 6.51C43.3788 6.51 43.7988 6.558 44.1548 6.654C44.5108 6.75 44.8048 6.892 45.0368 7.08C45.2688 7.264 45.4408 7.49 45.5528 7.758C45.6648 8.026 45.7208 8.33 45.7208 8.67C45.7208 8.894 45.6808 9.11 45.6008 9.318C45.5248 9.526 45.4128 9.718 45.2648 9.894C45.1208 10.07 44.9408 10.224 44.7248 10.356C44.5128 10.484 44.2688 10.582 43.9928 10.65C44.6608 10.746 45.1728 10.968 45.5288 11.316C45.8888 11.66 46.0688 12.114 46.0688 12.678C46.0688 13.038 46.0048 13.362 45.8768 13.65C45.7488 13.938 45.5628 14.182 45.3188 14.382C45.0748 14.582 44.7748 14.736 44.4188 14.844C44.0628 14.948 43.6588 15 43.2068 15H40.4528V6.51H42.8948ZM52.4591 11.412C52.4591 11.092 52.4131 10.806 52.3211 10.554C52.2331 10.298 52.1071 10.082 51.9431 9.906C51.7791 9.73 51.5831 9.596 51.3551 9.504C51.1311 9.408 50.8831 9.36 50.6111 9.36C50.3031 9.36 50.0271 9.408 49.7831 9.504C49.5391 9.6 49.3271 9.738 49.1471 9.918C48.9711 10.098 48.8291 10.314 48.7211 10.566C48.6131 10.818 48.5411 11.1 48.5051 11.412H52.4591ZM48.4751 11.778V11.892C48.4751 12.34 48.5271 12.734 48.6311 13.074C48.7351 13.414 48.8831 13.7 49.0751 13.932C49.2671 14.16 49.4991 14.332 49.7711 14.448C50.0431 14.564 50.3471 14.622 50.6831 14.622C50.9831 14.622 51.2431 14.59 51.4631 14.526C51.6831 14.458 51.8671 14.384 52.0151 14.304C52.1671 14.22 52.2871 14.146 52.3751 14.082C52.4631 14.014 52.5271 13.98 52.5671 13.98C52.6191 13.98 52.6591 14 52.6871 14.04L52.8431 14.232C52.7471 14.352 52.6191 14.464 52.4591 14.568C52.3031 14.672 52.1271 14.762 51.9311 14.838C51.7391 14.91 51.5311 14.968 51.3071 15.012C51.0871 15.056 50.8651 15.078 50.6411 15.078C50.2331 15.078 49.8611 15.008 49.5251 14.868C49.1891 14.724 48.9011 14.516 48.6611 14.244C48.4211 13.972 48.2351 13.64 48.1031 13.248C47.9751 12.852 47.9111 12.4 47.9111 11.892C47.9111 11.464 47.9711 11.07 48.0911 10.71C48.2151 10.346 48.3911 10.034 48.6191 9.774C48.8511 9.51 49.1331 9.304 49.4651 9.156C49.8011 9.008 50.1811 8.934 50.6051 8.934C50.9411 8.934 51.2531 8.992 51.5411 9.108C51.8291 9.224 52.0791 9.394 52.2911 9.618C52.5031 9.838 52.6691 10.11 52.7891 10.434C52.9131 10.758 52.9751 11.13 52.9751 11.55C52.9751 11.638 52.9631 11.698 52.9391 11.73C52.9151 11.762 52.8751 11.778 52.8191 11.778H48.4751ZM56.7375 15.096C56.3335 15.096 56.0175 14.984 55.7895 14.76C55.5655 14.536 55.4535 14.19 55.4535 13.722V9.642H54.5955C54.5515 9.642 54.5155 9.63 54.4875 9.606C54.4595 9.582 54.4455 9.548 54.4455 9.504V9.282L55.4655 9.21L55.6095 7.074C55.6175 7.038 55.6335 7.006 55.6575 6.978C55.6815 6.95 55.7155 6.936 55.7595 6.936H56.0295V9.216H57.9135V9.642H56.0295V13.692C56.0295 13.856 56.0495 13.998 56.0895 14.118C56.1335 14.234 56.1915 14.33 56.2635 14.406C56.3395 14.482 56.4275 14.538 56.5275 14.574C56.6275 14.61 56.7355 14.628 56.8515 14.628C56.9955 14.628 57.1195 14.608 57.2235 14.568C57.3275 14.524 57.4175 14.478 57.4935 14.43C57.5695 14.378 57.6315 14.332 57.6795 14.292C57.7275 14.248 57.7655 14.226 57.7935 14.226C57.8255 14.226 57.8575 14.246 57.8895 14.286L58.0455 14.538C57.8935 14.706 57.6995 14.842 57.4635 14.946C57.2315 15.046 56.9895 15.096 56.7375 15.096ZM61.4508 15.096C61.0468 15.096 60.7308 14.984 60.5028 14.76C60.2788 14.536 60.1668 14.19 60.1668 13.722V9.642H59.3088C59.2648 9.642 59.2288 9.63 59.2008 9.606C59.1728 9.582 59.1588 9.548 59.1588 9.504V9.282L60.1788 9.21L60.3228 7.074C60.3308 7.038 60.3468 7.006 60.3708 6.978C60.3948 6.95 60.4288 6.936 60.4728 6.936H60.7428V9.216H62.6268V9.642H60.7428V13.692C60.7428 13.856 60.7628 13.998 60.8028 14.118C60.8468 14.234 60.9048 14.33 60.9768 14.406C61.0528 14.482 61.1408 14.538 61.2408 14.574C61.3408 14.61 61.4488 14.628 61.5648 14.628C61.7088 14.628 61.8328 14.608 61.9368 14.568C62.0408 14.524 62.1308 14.478 62.2068 14.43C62.2828 14.378 62.3448 14.332 62.3928 14.292C62.4408 14.248 62.4788 14.226 62.5068 14.226C62.5388 14.226 62.5708 14.246 62.6028 14.286L62.7588 14.538C62.6068 14.706 62.4128 14.842 62.1768 14.946C61.9448 15.046 61.7028 15.096 61.4508 15.096ZM68.6966 11.412C68.6966 11.092 68.6506 10.806 68.5586 10.554C68.4706 10.298 68.3446 10.082 68.1806 9.906C68.0166 9.73 67.8206 9.596 67.5926 9.504C67.3686 9.408 67.1206 9.36 66.8486 9.36C66.5406 9.36 66.2646 9.408 66.0206 9.504C65.7766 9.6 65.5646 9.738 65.3846 9.918C65.2086 10.098 65.0666 10.314 64.9586 10.566C64.8506 10.818 64.7786 11.1 64.7426 11.412H68.6966ZM64.7126 11.778V11.892C64.7126 12.34 64.7646 12.734 64.8686 13.074C64.9726 13.414 65.1206 13.7 65.3126 13.932C65.5046 14.16 65.7366 14.332 66.0086 14.448C66.2806 14.564 66.5846 14.622 66.9206 14.622C67.2206 14.622 67.4806 14.59 67.7006 14.526C67.9206 14.458 68.1046 14.384 68.2526 14.304C68.4046 14.22 68.5246 14.146 68.6126 14.082C68.7006 14.014 68.7646 13.98 68.8046 13.98C68.8566 13.98 68.8966 14 68.9246 14.04L69.0806 14.232C68.9846 14.352 68.8566 14.464 68.6966 14.568C68.5406 14.672 68.3646 14.762 68.1686 14.838C67.9766 14.91 67.7686 14.968 67.5446 15.012C67.3246 15.056 67.1026 15.078 66.8786 15.078C66.4706 15.078 66.0986 15.008 65.7626 14.868C65.4266 14.724 65.1386 14.516 64.8986 14.244C64.6586 13.972 64.4726 13.64 64.3406 13.248C64.2126 12.852 64.1486 12.4 64.1486 11.892C64.1486 11.464 64.2086 11.07 64.3286 10.71C64.4526 10.346 64.6286 10.034 64.8566 9.774C65.0886 9.51 65.3706 9.304 65.7026 9.156C66.0386 9.008 66.4186 8.934 66.8426 8.934C67.1786 8.934 67.4906 8.992 67.7786 9.108C68.0666 9.224 68.3166 9.394 68.5286 9.618C68.7406 9.838 68.9066 10.11 69.0266 10.434C69.1506 10.758 69.2126 11.13 69.2126 11.55C69.2126 11.638 69.2006 11.698 69.1766 11.73C69.1526 11.762 69.1126 11.778 69.0566 11.778H64.7126ZM71.9124 10.47C72.0044 10.226 72.1084 10.01 72.2244 9.822C72.3444 9.63 72.4804 9.468 72.6324 9.336C72.7884 9.204 72.9604 9.104 73.1484 9.036C73.3404 8.964 73.5524 8.928 73.7844 8.928C73.9084 8.928 74.0304 8.94 74.1504 8.964C74.2704 8.984 74.3764 9.022 74.4684 9.078L74.4204 9.474C74.4004 9.538 74.3624 9.57 74.3064 9.57C74.2584 9.57 74.1844 9.556 74.0844 9.528C73.9884 9.5 73.8604 9.486 73.7004 9.486C73.4684 9.486 73.2624 9.522 73.0824 9.594C72.9064 9.662 72.7464 9.766 72.6024 9.906C72.4624 10.046 72.3384 10.22 72.2304 10.428C72.1264 10.632 72.0304 10.868 71.9424 11.136V15H71.3664V9.03H71.6724C71.7404 9.03 71.7884 9.044 71.8164 9.072C71.8444 9.1 71.8624 9.148 71.8704 9.216L71.9124 10.47ZM87.6206 10.752C87.6206 11.408 87.5226 12.004 87.3266 12.54C87.1306 13.072 86.8546 13.528 86.4986 13.908C86.1426 14.284 85.7146 14.576 85.2146 14.784C84.7186 14.988 84.1706 15.09 83.5706 15.09C82.9706 15.09 82.4226 14.988 81.9266 14.784C81.4306 14.576 81.0046 14.284 80.6486 13.908C80.2926 13.528 80.0166 13.072 79.8206 12.54C79.6246 12.004 79.5266 11.408 79.5266 10.752C79.5266 10.1 79.6246 9.508 79.8206 8.976C80.0166 8.44 80.2926 7.984 80.6486 7.608C81.0046 7.228 81.4306 6.934 81.9266 6.726C82.4226 6.518 82.9706 6.414 83.5706 6.414C84.1706 6.414 84.7186 6.518 85.2146 6.726C85.7146 6.93 86.1426 7.222 86.4986 7.602C86.8546 7.982 87.1306 8.44 87.3266 8.976C87.5226 9.508 87.6206 10.1 87.6206 10.752ZM86.9846 10.752C86.9846 10.16 86.9026 9.628 86.7386 9.156C86.5746 8.684 86.3426 8.284 86.0426 7.956C85.7426 7.628 85.3826 7.378 84.9626 7.206C84.5426 7.03 84.0786 6.942 83.5706 6.942C83.0666 6.942 82.6046 7.03 82.1846 7.206C81.7646 7.378 81.4026 7.628 81.0986 7.956C80.7986 8.284 80.5646 8.684 80.3966 9.156C80.2326 9.628 80.1506 10.16 80.1506 10.752C80.1506 11.348 80.2326 11.882 80.3966 12.354C80.5646 12.822 80.7986 13.22 81.0986 13.548C81.4026 13.876 81.7646 14.126 82.1846 14.298C82.6046 14.47 83.0666 14.556 83.5706 14.556C84.0786 14.556 84.5426 14.47 84.9626 14.298C85.3826 14.126 85.7426 13.876 86.0426 13.548C86.3426 13.22 86.5746 12.822 86.7386 12.354C86.9026 11.882 86.9846 11.348 86.9846 10.752ZM90.3362 13.698C90.4522 13.87 90.5722 14.016 90.6962 14.136C90.8242 14.252 90.9582 14.348 91.0982 14.424C91.2382 14.496 91.3862 14.548 91.5422 14.58C91.7022 14.612 91.8702 14.628 92.0462 14.628C92.3982 14.628 92.7062 14.564 92.9702 14.436C93.2342 14.308 93.4542 14.128 93.6302 13.896C93.8102 13.66 93.9442 13.38 94.0322 13.056C94.1242 12.728 94.1702 12.368 94.1702 11.976C94.1702 11.088 94.0062 10.436 93.6782 10.02C93.3502 9.6 92.8802 9.39 92.2682 9.39C91.8722 9.39 91.5142 9.492 91.1942 9.696C90.8742 9.9 90.5882 10.184 90.3362 10.548V13.698ZM90.3122 10.104C90.5762 9.744 90.8842 9.458 91.2362 9.246C91.5922 9.034 91.9902 8.928 92.4302 8.928C93.1622 8.928 93.7322 9.182 94.1402 9.69C94.5522 10.198 94.7582 10.96 94.7582 11.976C94.7582 12.412 94.7002 12.82 94.5842 13.2C94.4722 13.576 94.3042 13.904 94.0802 14.184C93.8602 14.46 93.5882 14.678 93.2642 14.838C92.9442 14.998 92.5742 15.078 92.1542 15.078C91.7502 15.078 91.4002 15.004 91.1042 14.856C90.8082 14.708 90.5522 14.49 90.3362 14.202V17.112H89.7602V9.03H90.0782C90.1782 9.03 90.2362 9.08 90.2522 9.18L90.3122 10.104ZM98.543 15.096C98.139 15.096 97.823 14.984 97.595 14.76C97.371 14.536 97.259 14.19 97.259 13.722V9.642H96.401C96.357 9.642 96.321 9.63 96.293 9.606C96.265 9.582 96.251 9.548 96.251 9.504V9.282L97.271 9.21L97.415 7.074C97.423 7.038 97.439 7.006 97.463 6.978C97.487 6.95 97.521 6.936 97.565 6.936H97.835V9.216H99.719V9.642H97.835V13.692C97.835 13.856 97.855 13.998 97.895 14.118C97.939 14.234 97.997 14.33 98.069 14.406C98.145 14.482 98.233 14.538 98.333 14.574C98.433 14.61 98.541 14.628 98.657 14.628C98.801 14.628 98.925 14.608 99.029 14.568C99.133 14.524 99.223 14.478 99.299 14.43C99.375 14.378 99.437 14.332 99.485 14.292C99.533 14.248 99.571 14.226 99.599 14.226C99.631 14.226 99.663 14.246 99.695 14.286L99.851 14.538C99.699 14.706 99.505 14.842 99.269 14.946C99.037 15.046 98.795 15.096 98.543 15.096ZM102.26 9.03V15H101.69V9.03H102.26ZM102.506 6.972C102.506 7.044 102.49 7.112 102.458 7.176C102.43 7.236 102.392 7.29 102.344 7.338C102.296 7.386 102.24 7.424 102.176 7.452C102.112 7.48 102.044 7.494 101.972 7.494C101.9 7.494 101.832 7.48 101.768 7.452C101.704 7.424 101.648 7.386 101.6 7.338C101.552 7.29 101.514 7.236 101.486 7.176C101.458 7.112 101.444 7.044 101.444 6.972C101.444 6.9 101.458 6.832 101.486 6.768C101.514 6.7 101.552 6.642 101.6 6.594C101.648 6.546 101.704 6.508 101.768 6.48C101.832 6.452 101.9 6.438 101.972 6.438C102.044 6.438 102.112 6.452 102.176 6.48C102.24 6.508 102.296 6.546 102.344 6.594C102.392 6.642 102.43 6.7 102.458 6.768C102.49 6.832 102.506 6.9 102.506 6.972ZM107.26 8.934C107.688 8.934 108.07 9.008 108.406 9.156C108.746 9.3 109.032 9.506 109.264 9.774C109.496 10.042 109.672 10.366 109.792 10.746C109.916 11.122 109.978 11.544 109.978 12.012C109.978 12.48 109.916 12.902 109.792 13.278C109.672 13.654 109.496 13.976 109.264 14.244C109.032 14.512 108.746 14.718 108.406 14.862C108.07 15.006 107.688 15.078 107.26 15.078C106.832 15.078 106.448 15.006 106.108 14.862C105.772 14.718 105.486 14.512 105.25 14.244C105.018 13.976 104.84 13.654 104.716 13.278C104.596 12.902 104.536 12.48 104.536 12.012C104.536 11.544 104.596 11.122 104.716 10.746C104.84 10.366 105.018 10.042 105.25 9.774C105.486 9.506 105.772 9.3 106.108 9.156C106.448 9.008 106.832 8.934 107.26 8.934ZM107.26 14.628C107.616 14.628 107.926 14.568 108.19 14.448C108.458 14.324 108.68 14.148 108.856 13.92C109.036 13.692 109.17 13.418 109.258 13.098C109.346 12.774 109.39 12.412 109.39 12.012C109.39 11.616 109.346 11.256 109.258 10.932C109.17 10.608 109.036 10.332 108.856 10.104C108.68 9.872 108.458 9.694 108.19 9.57C107.926 9.446 107.616 9.384 107.26 9.384C106.904 9.384 106.592 9.446 106.324 9.57C106.06 9.694 105.838 9.872 105.658 10.104C105.482 10.332 105.348 10.608 105.256 10.932C105.168 11.256 105.124 11.616 105.124 12.012C105.124 12.412 105.168 12.774 105.256 13.098C105.348 13.418 105.482 13.692 105.658 13.92C105.838 14.148 106.06 14.324 106.324 14.448C106.592 14.568 106.904 14.628 107.26 14.628ZM112.734 10.074C113.01 9.73 113.328 9.454 113.688 9.246C114.052 9.038 114.456 8.934 114.9 8.934C115.228 8.934 115.516 8.986 115.764 9.09C116.016 9.194 116.224 9.344 116.388 9.54C116.552 9.736 116.676 9.972 116.76 10.248C116.844 10.524 116.886 10.836 116.886 11.184V15H116.31V11.184C116.31 10.624 116.182 10.186 115.926 9.87C115.67 9.55 115.28 9.39 114.756 9.39C114.368 9.39 114.004 9.49 113.664 9.69C113.328 9.886 113.028 10.16 112.764 10.512V15H112.188V9.03H112.506C112.606 9.03 112.664 9.08 112.68 9.18L112.734 10.074Z" fill="#151515"/>
<rect x="5" y="20" width="384" height="205" rx="12" fill="white"/>
<rect x="2.5" y="17.5" width="389" height="210" rx="14.5" stroke="white" stroke-opacity="0.15" stroke-width="5"/>
<path d="M261.618 99.287V93.545H262.572V94.103C262.932 93.689 263.481 93.455 264.102 93.455C265.326 93.455 266.163 94.49 266.163 95.768C266.163 97.055 265.326 98.09 264.102 98.09C263.499 98.09 262.968 97.847 262.617 97.433V99.287H261.618ZM263.85 97.127C264.606 97.127 265.146 96.551 265.146 95.768C265.146 94.985 264.606 94.418 263.85 94.418C263.148 94.418 262.617 94.976 262.617 95.768C262.617 96.551 263.139 97.127 263.85 97.127ZM269.265 98.09C267.996 98.09 266.862 97.244 266.862 95.777C266.862 94.499 267.861 93.455 269.157 93.455C270.345 93.455 271.299 94.49 271.299 95.741C271.299 95.93 271.272 96.128 271.272 96.128H267.897C268.041 96.839 268.617 97.208 269.283 97.208C269.733 97.208 270.201 97.073 270.561 96.821L270.957 97.559C270.453 97.901 269.859 98.09 269.265 98.09ZM267.888 95.39H270.327C270.228 94.751 269.715 94.328 269.103 94.328C268.527 94.328 268.023 94.751 267.888 95.39ZM272.156 98V93.545H273.155V94.427C273.326 93.977 273.812 93.455 274.766 93.455V94.544C273.785 94.544 273.155 95.012 273.155 96.182V98H272.156ZM277.447 98V93.545H278.446V94.202C278.68 93.788 279.202 93.455 279.751 93.455C280.453 93.455 280.921 93.761 281.155 94.301C281.452 93.779 282.082 93.455 282.613 93.455C283.783 93.455 284.305 94.175 284.305 95.435V98H283.306V95.57C283.306 94.949 283.171 94.418 282.388 94.418C281.749 94.418 281.38 94.922 281.38 95.525V98H280.381V95.57C280.381 94.949 280.246 94.418 279.463 94.418C278.797 94.418 278.446 94.985 278.446 95.588V98H277.447ZM287.466 98.09C286.152 98.09 285.099 97.064 285.099 95.777C285.099 94.481 286.152 93.455 287.466 93.455C288.78 93.455 289.833 94.481 289.833 95.777C289.833 97.064 288.78 98.09 287.466 98.09ZM287.466 97.127C288.231 97.127 288.816 96.551 288.816 95.777C288.816 94.994 288.231 94.418 287.466 94.418C286.701 94.418 286.116 94.994 286.116 95.777C286.116 96.551 286.701 97.127 287.466 97.127ZM290.684 98V93.545H291.683V94.184C292.016 93.689 292.529 93.455 293.123 93.455C294.329 93.455 294.725 94.256 294.725 95.444V98H293.726V95.57C293.726 94.841 293.564 94.418 292.817 94.418C292.16 94.418 291.683 94.931 291.683 95.669V98H290.684ZM297.296 98.09C296.387 98.09 295.946 97.595 295.946 96.569V94.364H295.289V93.545H295.946V92.672L296.945 92.465V93.545H298.286V94.364H296.945V96.596C296.945 97.073 297.17 97.226 297.422 97.226C297.773 97.226 298.07 97.01 298.07 97.01L298.367 97.757C298.16 97.892 297.8 98.09 297.296 98.09ZM299.042 98V92.078H300.041V94.184C300.365 93.689 300.878 93.455 301.472 93.455C302.642 93.455 303.074 94.22 303.074 95.444V98H302.075V95.57C302.075 94.841 301.877 94.418 301.139 94.418C300.446 94.418 300.041 94.967 300.041 95.66V98H299.042ZM308.199 98.09C306.885 98.09 305.832 97.064 305.832 95.777C305.832 94.481 306.885 93.455 308.199 93.455C309.513 93.455 310.566 94.481 310.566 95.777C310.566 97.064 309.513 98.09 308.199 98.09ZM308.199 97.127C308.964 97.127 309.549 96.551 309.549 95.777C309.549 94.994 308.964 94.418 308.199 94.418C307.434 94.418 306.849 94.994 306.849 95.777C306.849 96.551 307.434 97.127 308.199 97.127ZM311.417 98V93.545H312.416V94.184C312.749 93.689 313.262 93.455 313.856 93.455C315.062 93.455 315.458 94.256 315.458 95.444V98H314.459V95.57C314.459 94.841 314.297 94.418 313.55 94.418C312.893 94.418 312.416 94.931 312.416 95.669V98H311.417ZM320.091 98V95.309L317.832 92.168H319.029L320.172 93.761C320.433 94.121 320.613 94.418 320.613 94.418C320.613 94.418 320.829 94.103 321.072 93.761L322.179 92.168H323.376L321.135 95.3V98H320.091ZM325.374 98.09C324.105 98.09 322.971 97.244 322.971 95.777C322.971 94.499 323.97 93.455 325.266 93.455C326.454 93.455 327.408 94.49 327.408 95.741C327.408 95.93 327.381 96.128 327.381 96.128H324.006C324.15 96.839 324.726 97.208 325.392 97.208C325.842 97.208 326.31 97.073 326.67 96.821L327.066 97.559C326.562 97.901 325.968 98.09 325.374 98.09ZM323.997 95.39H326.436C326.337 94.751 325.824 94.328 325.212 94.328C324.636 94.328 324.132 94.751 323.997 95.39ZM330.174 98.09C328.95 98.09 328.113 97.055 328.113 95.777C328.113 94.49 328.95 93.455 330.174 93.455C330.777 93.455 331.308 93.698 331.659 94.112V93.545H332.658V98H331.659V97.442C331.308 97.856 330.777 98.09 330.174 98.09ZM330.426 97.127C331.128 97.127 331.659 96.569 331.659 95.777C331.659 94.994 331.137 94.418 330.426 94.418C329.67 94.418 329.13 94.994 329.13 95.777C329.13 96.56 329.67 97.127 330.426 97.127ZM333.662 98V93.545H334.661V94.427C334.832 93.977 335.318 93.455 336.272 93.455V94.544C335.291 94.544 334.661 95.012 334.661 96.182V98H333.662ZM336.984 98V92.078H337.983V98H336.984ZM339.411 99.323V98.387C339.942 98.387 340.167 98.198 340.392 97.748L340.482 97.568L338.556 93.545H339.582L340.653 95.921C340.788 96.218 340.941 96.623 340.941 96.623C340.941 96.623 341.139 96.101 341.229 95.876L342.192 93.545H343.2L341.166 98.198C340.707 99.233 339.933 99.323 339.411 99.323ZM348.231 98.09C347.61 98.09 347.061 97.856 346.701 97.442V98H345.747V92.078H346.746V94.112C347.097 93.698 347.628 93.455 348.231 93.455C349.455 93.455 350.292 94.49 350.292 95.777C350.292 97.055 349.455 98.09 348.231 98.09ZM347.979 97.127C348.735 97.127 349.275 96.56 349.275 95.777C349.275 94.994 348.735 94.418 347.979 94.418C347.268 94.418 346.746 94.994 346.746 95.777C346.746 96.569 347.277 97.127 347.979 97.127ZM351.144 98V93.545H352.143V98H351.144ZM351.639 92.897C351.306 92.897 351.036 92.627 351.036 92.294C351.036 91.961 351.306 91.682 351.639 91.682C351.972 91.682 352.251 91.961 352.251 92.294C352.251 92.627 351.972 92.897 351.639 92.897ZM353.148 98V92.078H354.147V98H353.148ZM355.151 98V92.078H356.15V98H355.151ZM357.155 98V93.545H358.154V98H357.155ZM357.65 92.897C357.317 92.897 357.047 92.627 357.047 92.294C357.047 91.961 357.317 91.682 357.65 91.682C357.983 91.682 358.262 91.961 358.262 92.294C358.262 92.627 357.983 92.897 357.65 92.897ZM359.159 98V93.545H360.158V94.184C360.491 93.689 361.004 93.455 361.598 93.455C362.804 93.455 363.2 94.256 363.2 95.444V98H362.201V95.57C362.201 94.841 362.039 94.418 361.292 94.418C360.635 94.418 360.158 94.931 360.158 95.669V98H359.159ZM366.177 99.323C365.412 99.323 364.773 99.098 364.359 98.729L364.746 98.099C365.097 98.405 365.619 98.558 366.078 98.558C367.032 98.558 367.5 97.946 367.5 97.037V97.001C367.32 97.361 366.843 97.766 366.033 97.766C364.8 97.766 363.99 96.812 363.99 95.615C363.99 94.418 364.8 93.455 366.033 93.455C366.708 93.455 367.311 93.77 367.545 94.211V93.545H368.499V96.983C368.499 98.54 367.455 99.323 366.177 99.323ZM366.249 96.893C366.969 96.893 367.5 96.353 367.5 95.579C367.5 94.868 366.951 94.328 366.249 94.328C365.547 94.328 365.007 94.877 365.007 95.615C365.007 96.353 365.547 96.893 366.249 96.893Z" fill="#B1B1B1"/>
<rect x="208" y="115" width="165" height="26" rx="13" fill="#E5FFEE"/>
<path d="M218.702 131.024L216.23 123.224H217.622L219.098 127.916C219.29 128.528 219.458 129.212 219.458 129.212C219.458 129.212 219.626 128.54 219.782 127.916L221.006 123.224H222.494L223.718 127.916C223.886 128.54 224.03 129.212 224.03 129.212C224.03 129.212 224.21 128.54 224.402 127.916L225.878 123.224H227.27L224.786 131.024H223.31L222.062 126.512C221.882 125.84 221.75 124.976 221.75 124.976C221.75 124.976 221.618 125.84 221.438 126.512L220.19 131.024H218.702ZM230.516 131.12C228.824 131.12 227.312 129.992 227.312 128.036C227.312 126.332 228.644 124.94 230.372 124.94C231.956 124.94 233.228 126.32 233.228 127.988C233.228 128.24 233.192 128.504 233.192 128.504H228.692C228.884 129.452 229.652 129.944 230.54 129.944C231.14 129.944 231.764 129.764 232.244 129.428L232.772 130.412C232.1 130.868 231.308 131.12 230.516 131.12ZM228.68 127.52H231.932C231.8 126.668 231.116 126.104 230.3 126.104C229.532 126.104 228.86 126.668 228.68 127.52ZM237.683 131.12C236.855 131.12 236.123 130.808 235.643 130.256V131H234.371V123.104H235.703V125.816C236.171 125.264 236.879 124.94 237.683 124.94C239.315 124.94 240.431 126.32 240.431 128.036C240.431 129.74 239.315 131.12 237.683 131.12ZM237.347 129.836C238.355 129.836 239.075 129.08 239.075 128.036C239.075 126.992 238.355 126.224 237.347 126.224C236.399 126.224 235.703 126.992 235.703 128.036C235.703 129.092 236.411 129.836 237.347 129.836ZM243.643 131.12C242.419 131.12 241.579 130.568 241.255 130.256L241.759 129.164C242.143 129.476 242.755 129.872 243.643 129.872C244.183 129.872 244.819 129.668 244.819 129.248C244.819 128.816 244.219 128.708 243.631 128.54C242.503 128.228 241.543 127.892 241.543 126.728C241.543 125.564 242.731 124.94 243.775 124.94C244.663 124.94 245.251 125.168 245.899 125.552L245.407 126.632C244.879 126.332 244.375 126.188 243.787 126.188C243.343 126.188 242.899 126.392 242.899 126.704C242.899 127.112 243.391 127.208 243.919 127.316C245.023 127.556 246.175 128 246.175 129.224C246.175 130.616 244.747 131.12 243.643 131.12ZM247.238 131V125.06H248.57V131H247.238ZM247.898 124.196C247.454 124.196 247.094 123.836 247.094 123.392C247.094 122.948 247.454 122.576 247.898 122.576C248.342 122.576 248.714 122.948 248.714 123.392C248.714 123.836 248.342 124.196 247.898 124.196ZM252.082 131.12C250.87 131.12 250.282 130.46 250.282 129.092V126.152H249.406V125.06H250.282V123.896L251.614 123.62V125.06H253.402V126.152H251.614V129.128C251.614 129.764 251.914 129.968 252.25 129.968C252.718 129.968 253.114 129.68 253.114 129.68L253.51 130.676C253.234 130.856 252.754 131.12 252.082 131.12ZM257.328 131.12C255.636 131.12 254.124 129.992 254.124 128.036C254.124 126.332 255.456 124.94 257.184 124.94C258.768 124.94 260.04 126.32 260.04 127.988C260.04 128.24 260.004 128.504 260.004 128.504H255.504C255.696 129.452 256.464 129.944 257.352 129.944C257.952 129.944 258.576 129.764 259.056 129.428L259.584 130.412C258.912 130.868 258.12 131.12 257.328 131.12ZM255.492 127.52H258.744C258.612 126.668 257.928 126.104 257.112 126.104C256.344 126.104 255.672 126.668 255.492 127.52ZM267.757 131.12C265.405 131.12 263.665 129.332 263.665 127.1C263.665 124.892 265.405 123.104 267.757 123.104C268.765 123.104 269.689 123.44 270.373 124.016L269.569 124.952C269.041 124.544 268.465 124.364 267.853 124.364C266.245 124.364 265.117 125.612 265.117 127.1C265.117 128.6 266.245 129.86 267.769 129.86C268.525 129.86 269.221 129.584 269.725 129.092L270.577 130.052C269.857 130.712 268.873 131.12 267.757 131.12ZM271.414 131V123.104H272.746V125.912C273.178 125.252 273.862 124.94 274.654 124.94C276.214 124.94 276.79 125.96 276.79 127.592V131H275.458V127.76C275.458 126.788 275.194 126.224 274.21 126.224C273.286 126.224 272.746 126.956 272.746 127.88V131H271.414ZM280.591 131.12C278.959 131.12 277.843 129.74 277.843 128.036C277.843 126.32 278.959 124.94 280.591 124.94C281.395 124.94 282.103 125.264 282.571 125.816V125.06H283.903V131H282.571V130.256C282.103 130.808 281.395 131.12 280.591 131.12ZM280.927 129.836C281.863 129.836 282.571 129.092 282.571 128.036C282.571 126.992 281.875 126.224 280.927 126.224C279.919 126.224 279.199 126.992 279.199 128.036C279.199 129.08 279.919 129.836 280.927 129.836ZM287.414 131.12C286.202 131.12 285.614 130.46 285.614 129.092V126.152H284.738V125.06H285.614V123.896L286.946 123.62V125.06H288.734V126.152H286.946V129.128C286.946 129.764 287.246 129.968 287.582 129.968C288.05 129.968 288.446 129.68 288.446 129.68L288.842 130.676C288.566 130.856 288.086 131.12 287.414 131.12ZM294.791 131.12C293.411 131.12 292.127 130.364 292.127 128.744C292.127 127.976 292.535 127.172 293.435 126.608C293.147 126.152 292.943 125.672 292.943 125.144C292.943 124.208 293.639 123.104 295.151 123.104C295.859 123.104 296.759 123.32 297.335 124.604L296.243 125.3C296.039 124.712 295.643 124.304 295.175 124.304C294.647 124.304 294.311 124.688 294.311 125.144C294.311 125.684 294.659 126.248 295.439 127.04L296.963 128.576C297.071 128.408 297.191 128.144 297.191 127.676H298.451C298.451 128.396 298.211 129.14 297.923 129.5L298.739 130.316L297.911 131.156L297.095 130.364C296.447 130.856 295.595 131.12 294.791 131.12ZM294.923 129.872C295.379 129.872 295.799 129.728 296.159 129.5L294.167 127.532C293.687 127.832 293.471 128.252 293.471 128.66C293.471 129.368 294.071 129.872 294.923 129.872ZM306.171 131.12C303.819 131.12 302.079 129.332 302.079 127.1C302.079 124.892 303.819 123.104 306.171 123.104C307.179 123.104 308.103 123.44 308.787 124.016L307.983 124.952C307.455 124.544 306.879 124.364 306.267 124.364C304.659 124.364 303.531 125.612 303.531 127.1C303.531 128.6 304.659 129.86 306.183 129.86C306.939 129.86 307.635 129.584 308.139 129.092L308.991 130.052C308.271 130.712 307.287 131.12 306.171 131.12ZM312.372 131.12C310.74 131.12 309.624 129.74 309.624 128.036C309.624 126.32 310.74 124.94 312.372 124.94C313.176 124.94 313.884 125.264 314.352 125.816V125.06H315.684V131H314.352V130.256C313.884 130.808 313.176 131.12 312.372 131.12ZM312.708 129.836C313.644 129.836 314.352 129.092 314.352 128.036C314.352 126.992 313.656 126.224 312.708 126.224C311.7 126.224 310.98 126.992 310.98 128.036C310.98 129.08 311.7 129.836 312.708 129.836ZM317.024 131V123.104H318.356V131H317.024ZM319.695 131V123.104H321.027V131H319.695ZM326.924 131.024L324.452 123.224H325.844L327.32 127.916C327.512 128.528 327.68 129.212 327.68 129.212C327.68 129.212 327.848 128.54 328.004 127.916L329.228 123.224H330.716L331.94 127.916C332.108 128.54 332.252 129.212 332.252 129.212C332.252 129.212 332.432 128.54 332.624 127.916L334.1 123.224H335.492L333.008 131.024H331.532L330.284 126.512C330.104 125.84 329.972 124.976 329.972 124.976C329.972 124.976 329.84 125.84 329.66 126.512L328.412 131.024H326.924ZM336.301 131V125.06H337.633V131H336.301ZM336.961 124.196C336.517 124.196 336.157 123.836 336.157 123.392C336.157 122.948 336.517 122.576 336.961 122.576C337.405 122.576 337.777 122.948 337.777 123.392C337.777 123.836 337.405 124.196 336.961 124.196ZM341.517 131.12C339.885 131.12 338.769 129.74 338.769 128.036C338.769 126.32 339.885 124.94 341.517 124.94C342.321 124.94 343.029 125.264 343.497 125.816V123.104H344.829V131H343.557V130.256C343.077 130.808 342.345 131.12 341.517 131.12ZM341.853 129.836C342.789 129.836 343.497 129.092 343.497 128.036C343.497 126.992 342.801 126.224 341.853 126.224C340.845 126.224 340.125 126.992 340.125 128.036C340.125 129.08 340.845 129.836 341.853 129.836ZM348.88 132.764C347.86 132.764 347.008 132.464 346.456 131.972L346.972 131.132C347.44 131.54 348.136 131.744 348.748 131.744C350.02 131.744 350.644 130.928 350.644 129.716V129.668C350.404 130.148 349.768 130.688 348.688 130.688C347.044 130.688 345.964 129.416 345.964 127.82C345.964 126.224 347.044 124.94 348.688 124.94C349.588 124.94 350.392 125.36 350.704 125.948V125.06H351.976V129.644C351.976 131.72 350.584 132.764 348.88 132.764ZM348.976 129.524C349.936 129.524 350.644 128.804 350.644 127.772C350.644 126.824 349.912 126.104 348.976 126.104C348.04 126.104 347.32 126.836 347.32 127.82C347.32 128.804 348.04 129.524 348.976 129.524ZM356.317 131.12C354.625 131.12 353.113 129.992 353.113 128.036C353.113 126.332 354.445 124.94 356.173 124.94C357.757 124.94 359.029 126.32 359.029 127.988C359.029 128.24 358.993 128.504 358.993 128.504H354.493C354.685 129.452 355.453 129.944 356.341 129.944C356.941 129.944 357.565 129.764 358.045 129.428L358.573 130.412C357.901 130.868 357.109 131.12 356.317 131.12ZM354.481 127.52H357.733C357.601 126.668 356.917 126.104 356.101 126.104C355.333 126.104 354.661 126.668 354.481 127.52ZM362.344 131.12C361.132 131.12 360.544 130.46 360.544 129.092V126.152H359.668V125.06H360.544V123.896L361.876 123.62V125.06H363.664V126.152H361.876V129.128C361.876 129.764 362.176 129.968 362.512 129.968C362.98 129.968 363.376 129.68 363.376 129.68L363.772 130.676C363.496 130.856 363.016 131.12 362.344 131.12Z" fill="#22C95C"/>
<rect x="246" y="150" width="127" height="26" rx="13" fill="#E5FFEE"/>
<path d="M257.012 166V158.224H260.636C261.92 158.224 262.964 158.824 262.964 160.192C262.964 160.804 262.58 161.368 262.148 161.584C263.036 161.776 263.696 162.568 263.696 163.576C263.696 165.172 262.484 166 260.744 166H257.012ZM258.404 164.8H260.648C261.62 164.8 262.244 164.404 262.244 163.6C262.244 162.784 261.668 162.352 260.78 162.352H258.404V164.8ZM258.404 161.164H260.564C261.164 161.164 261.512 160.84 261.512 160.312C261.512 159.784 261.176 159.424 260.504 159.424H258.404V161.164ZM266.994 166.12C265.422 166.12 264.834 165.232 264.834 163.672V160.06H266.166V163.48C266.166 164.428 266.586 164.836 267.414 164.836C268.338 164.836 268.83 164.068 268.83 163.216V160.06H270.162V166H268.902V165.088C268.542 165.736 267.714 166.12 266.994 166.12ZM271.504 166V160.06H272.836V166H271.504ZM272.164 159.196C271.72 159.196 271.36 158.836 271.36 158.392C271.36 157.948 271.72 157.576 272.164 157.576C272.608 157.576 272.98 157.948 272.98 158.392C272.98 158.836 272.608 159.196 272.164 159.196ZM274.176 166V158.104H275.508V166H274.176ZM279.02 166.12C277.808 166.12 277.22 165.46 277.22 164.092V161.152H276.344V160.06H277.22V158.896L278.552 158.62V160.06H280.34V161.152H278.552V164.128C278.552 164.764 278.852 164.968 279.188 164.968C279.656 164.968 280.052 164.68 280.052 164.68L280.448 165.676C280.172 165.856 279.692 166.12 279.02 166.12ZM281.06 163.612V162.52H285.908V163.612H281.06ZM287.117 166V158.224H288.509V166H287.117ZM290.008 166V160.06H291.34V160.912C291.784 160.252 292.468 159.94 293.26 159.94C294.868 159.94 295.396 161.008 295.396 162.592V166H294.064V162.76C294.064 161.788 293.848 161.224 292.852 161.224C291.976 161.224 291.34 161.908 291.34 162.892V166H290.008ZM299.433 166V158.224H300.645L301.725 159.736C302.277 160.504 303.489 162.232 303.489 162.232C303.489 162.232 304.701 160.516 305.241 159.748L306.321 158.224H307.533V166H306.141V160.6C306.141 160.6 305.901 161.032 305.397 161.764L303.489 164.5L301.557 161.74C301.077 161.044 300.825 160.6 300.825 160.6V166H299.433ZM311.991 166.12C310.239 166.12 308.835 164.752 308.835 163.036C308.835 161.308 310.239 159.94 311.991 159.94C313.743 159.94 315.147 161.308 315.147 163.036C315.147 164.752 313.743 166.12 311.991 166.12ZM311.991 164.836C313.011 164.836 313.791 164.068 313.791 163.036C313.791 161.992 313.011 161.224 311.991 161.224C310.971 161.224 310.191 161.992 310.191 163.036C310.191 164.068 310.971 164.836 311.991 164.836ZM319.593 166.12C318.765 166.12 318.033 165.808 317.553 165.256V166H316.281V158.104H317.613V160.816C318.081 160.264 318.789 159.94 319.593 159.94C321.225 159.94 322.341 161.32 322.341 163.036C322.341 164.74 321.225 166.12 319.593 166.12ZM319.257 164.836C320.265 164.836 320.985 164.08 320.985 163.036C320.985 161.992 320.265 161.224 319.257 161.224C318.309 161.224 317.613 161.992 317.613 163.036C317.613 164.092 318.321 164.836 319.257 164.836ZM323.477 166V160.06H324.809V166H323.477ZM324.137 159.196C323.693 159.196 323.333 158.836 323.333 158.392C323.333 157.948 323.693 157.576 324.137 157.576C324.581 157.576 324.953 157.948 324.953 158.392C324.953 158.836 324.581 159.196 324.137 159.196ZM326.149 166V158.104H327.481V166H326.149ZM331.82 166.12C330.128 166.12 328.616 164.992 328.616 163.036C328.616 161.332 329.948 159.94 331.676 159.94C333.26 159.94 334.532 161.32 334.532 162.988C334.532 163.24 334.496 163.504 334.496 163.504H329.996C330.188 164.452 330.956 164.944 331.844 164.944C332.444 164.944 333.068 164.764 333.548 164.428L334.076 165.412C333.404 165.868 332.612 166.12 331.82 166.12ZM329.984 162.52H333.236C333.104 161.668 332.42 161.104 331.604 161.104C330.836 161.104 330.164 161.668 329.984 162.52ZM342.249 166.12C339.897 166.12 338.157 164.332 338.157 162.1C338.157 159.892 339.897 158.104 342.249 158.104C343.257 158.104 344.181 158.44 344.865 159.016L344.061 159.952C343.533 159.544 342.957 159.364 342.345 159.364C340.737 159.364 339.609 160.612 339.609 162.1C339.609 163.6 340.737 164.86 342.261 164.86C343.017 164.86 343.713 164.584 344.217 164.092L345.069 165.052C344.349 165.712 343.365 166.12 342.249 166.12ZM346.062 166V158.224H349.35C351.582 158.224 352.77 159.556 352.77 161.2C352.77 162.244 352.206 163.228 351.174 163.72L352.89 166H351.27L349.914 164.104C349.698 164.14 349.458 164.164 349.218 164.164H347.454V166H346.062ZM347.454 162.964H349.41C350.526 162.964 351.306 162.172 351.306 161.2C351.306 160.204 350.526 159.412 349.422 159.412H347.454V162.964ZM354.066 166V158.224H355.278L356.358 159.736C356.91 160.504 358.122 162.232 358.122 162.232C358.122 162.232 359.334 160.516 359.874 159.748L360.954 158.224H362.166V166H360.774V160.6C360.774 160.6 360.534 161.032 360.03 161.764L358.122 164.5L356.19 161.74C355.71 161.044 355.458 160.6 355.458 160.6V166H354.066Z" fill="#22C95C"/>
<rect x="174" y="185" width="199" height="26" rx="13" fill="#E5FFEE"/>
<path d="M188.604 202.12C186.912 202.12 186.012 201.484 185.496 201.004L186.036 199.948C186.672 200.464 187.452 200.86 188.616 200.86C189.456 200.86 190.296 200.464 190.296 199.756C190.296 199.048 189.492 198.832 188.7 198.64C187.272 198.304 185.796 197.848 185.796 196.3C185.796 194.848 187.176 194.104 188.616 194.104C189.732 194.104 190.596 194.416 191.376 194.944L190.836 196.012C190.14 195.568 189.42 195.364 188.616 195.364C188.1 195.364 187.212 195.58 187.212 196.288C187.212 196.912 187.908 197.116 188.844 197.344C190.32 197.692 191.748 198.244 191.748 199.756C191.748 201.388 190.14 202.12 188.604 202.12ZM195.521 202.12C193.889 202.12 192.773 200.74 192.773 199.036C192.773 197.32 193.889 195.94 195.521 195.94C196.325 195.94 197.033 196.264 197.501 196.816V196.06H198.833V202H197.501V201.256C197.033 201.808 196.325 202.12 195.521 202.12ZM195.857 200.836C196.793 200.836 197.501 200.092 197.501 199.036C197.501 197.992 196.805 197.224 195.857 197.224C194.849 197.224 194.129 197.992 194.129 199.036C194.129 200.08 194.849 200.836 195.857 200.836ZM202.044 202.012L199.596 196.06H200.928L202.14 199.06C202.452 199.828 202.692 200.656 202.692 200.656C202.692 200.656 202.944 199.816 203.244 199.072L204.444 196.06H205.776L203.328 202.012H202.044ZM209.336 202.12C207.644 202.12 206.132 200.992 206.132 199.036C206.132 197.332 207.464 195.94 209.192 195.94C210.776 195.94 212.048 197.32 212.048 198.988C212.048 199.24 212.012 199.504 212.012 199.504H207.512C207.704 200.452 208.472 200.944 209.36 200.944C209.96 200.944 210.584 200.764 211.064 200.428L211.592 201.412C210.92 201.868 210.128 202.12 209.336 202.12ZM207.5 198.52H210.752C210.62 197.668 209.936 197.104 209.12 197.104C208.352 197.104 207.68 197.668 207.5 198.52ZM215.745 202V201.124C218.625 198.616 219.705 197.56 219.705 196.528C219.705 195.844 219.237 195.304 218.385 195.304C217.941 195.304 217.317 195.508 216.585 196.192L215.865 195.328C216.801 194.272 217.893 194.104 218.493 194.104C220.029 194.104 221.121 194.992 221.121 196.42C221.121 198.016 219.309 199.708 217.821 200.8H221.361V202H215.745ZM225.587 202.12C223.799 202.12 222.551 200.464 222.551 198.112C222.551 195.76 223.799 194.104 225.587 194.104C227.363 194.104 228.611 195.76 228.611 198.112C228.611 200.464 227.363 202.12 225.587 202.12ZM225.587 200.92C226.607 200.92 227.195 199.756 227.195 198.112C227.195 196.468 226.607 195.304 225.587 195.304C224.555 195.304 223.967 196.468 223.967 198.112C223.967 199.756 224.555 200.92 225.587 200.92ZM237.297 202.12C236.193 202.12 235.413 201.136 235.413 199.744C235.413 198.328 236.193 197.356 237.297 197.356C238.401 197.356 239.181 198.328 239.181 199.744C239.181 201.136 238.401 202.12 237.297 202.12ZM231.597 198.868C230.493 198.868 229.713 197.884 229.713 196.492C229.713 195.076 230.493 194.104 231.597 194.104C232.701 194.104 233.481 195.076 233.481 196.492C233.481 197.884 232.701 198.868 231.597 198.868ZM231.597 197.956C232.161 197.956 232.521 197.356 232.521 196.492C232.521 195.616 232.161 195.016 231.597 195.016C231.009 195.016 230.685 195.616 230.685 196.492C230.685 197.356 231.009 197.956 231.597 197.956ZM237.297 201.208C237.861 201.208 238.221 200.608 238.221 199.744C238.221 198.868 237.861 198.268 237.297 198.268C236.709 198.268 236.385 198.868 236.385 199.744C236.385 200.608 236.709 201.208 237.297 201.208ZM232.449 202.132L231.825 201.772L236.589 193.852L237.213 194.212L232.449 202.132ZM243.317 202.516L242.573 203.332C241.589 202.492 240.461 201.016 240.461 198.58C240.461 196.144 241.589 194.668 242.573 193.828L243.317 194.644C242.429 195.616 241.745 196.996 241.745 198.58C241.745 200.164 242.429 201.544 243.317 202.516ZM246.903 203.476V202.072C245.451 201.964 244.743 201.292 244.395 200.98L244.887 199.96C245.271 200.32 246.063 200.896 247.371 200.896C248.271 200.896 249.003 200.38 249.003 199.708C249.003 198.988 248.175 198.76 247.419 198.592C246.123 198.304 244.743 197.848 244.743 196.312C244.743 195.04 245.763 194.296 246.903 194.152V192.796H247.899V194.152C248.751 194.2 249.447 194.596 249.975 195.004L249.507 195.988C248.919 195.58 248.271 195.292 247.395 195.292C246.735 195.292 246.087 195.688 246.087 196.276C246.087 196.924 246.699 197.14 247.527 197.32C248.991 197.644 250.359 198.22 250.359 199.708C250.359 201.112 249.219 201.88 247.899 202.048V203.476H246.903ZM251.545 202V201.124C254.425 198.616 255.505 197.56 255.505 196.528C255.505 195.844 255.037 195.304 254.185 195.304C253.741 195.304 253.117 195.508 252.385 196.192L251.665 195.328C252.601 194.272 253.693 194.104 254.293 194.104C255.829 194.104 256.921 194.992 256.921 196.42C256.921 198.016 255.109 199.708 253.621 200.8H257.161V202H251.545ZM261.686 202V200.44H258.002V199.504L261.17 194.02L262.31 194.668L259.646 199.24H261.686V197.464H263.018V199.24H263.978V200.44H263.018V202H261.686ZM268.067 202.12C266.279 202.12 265.031 200.464 265.031 198.112C265.031 195.76 266.279 194.104 268.067 194.104C269.843 194.104 271.091 195.76 271.091 198.112C271.091 200.464 269.843 202.12 268.067 202.12ZM268.067 200.92C269.087 200.92 269.675 199.756 269.675 198.112C269.675 196.468 269.087 195.304 268.067 195.304C267.035 195.304 266.447 196.468 266.447 198.112C266.447 199.756 267.035 200.92 268.067 200.92ZM272.89 203.332L272.146 202.516C273.034 201.544 273.718 200.164 273.718 198.58C273.718 196.996 273.034 195.616 272.146 194.644L272.89 193.828C273.874 194.668 275.002 196.144 275.002 198.58C275.002 201.016 273.874 202.492 272.89 203.332ZM281.933 202.12C280.181 202.12 278.777 200.752 278.777 199.036C278.777 197.308 280.181 195.94 281.933 195.94C283.685 195.94 285.089 197.308 285.089 199.036C285.089 200.752 283.685 202.12 281.933 202.12ZM281.933 200.836C282.953 200.836 283.733 200.068 283.733 199.036C283.733 197.992 282.953 197.224 281.933 197.224C280.913 197.224 280.133 197.992 280.133 199.036C280.133 200.068 280.913 200.836 281.933 200.836ZM286.223 202V196.06H287.555V196.912C287.999 196.252 288.683 195.94 289.475 195.94C291.083 195.94 291.611 197.008 291.611 198.592V202H290.279V198.76C290.279 197.788 290.063 197.224 289.067 197.224C288.191 197.224 287.555 197.908 287.555 198.892V202H286.223ZM297.789 202V198.412L294.777 194.224H296.373L297.897 196.348C298.245 196.828 298.485 197.224 298.485 197.224C298.485 197.224 298.773 196.804 299.097 196.348L300.573 194.224H302.169L299.181 198.4V202H297.789ZM304.832 202.12C303.14 202.12 301.628 200.992 301.628 199.036C301.628 197.332 302.96 195.94 304.688 195.94C306.272 195.94 307.544 197.32 307.544 198.988C307.544 199.24 307.508 199.504 307.508 199.504H303.008C303.2 200.452 303.968 200.944 304.856 200.944C305.456 200.944 306.08 200.764 306.56 200.428L307.088 201.412C306.416 201.868 305.624 202.12 304.832 202.12ZM302.996 198.52H306.248C306.116 197.668 305.432 197.104 304.616 197.104C303.848 197.104 303.176 197.668 302.996 198.52ZM311.232 202.12C309.6 202.12 308.484 200.74 308.484 199.036C308.484 197.32 309.6 195.94 311.232 195.94C312.036 195.94 312.744 196.264 313.212 196.816V196.06H314.544V202H313.212V201.256C312.744 201.808 312.036 202.12 311.232 202.12ZM311.568 200.836C312.504 200.836 313.212 200.092 313.212 199.036C313.212 197.992 312.516 197.224 311.568 197.224C310.56 197.224 309.84 197.992 309.84 199.036C309.84 200.08 310.56 200.836 311.568 200.836ZM315.883 202V196.06H317.215V197.236C317.443 196.636 318.091 195.94 319.363 195.94V197.392C318.055 197.392 317.215 198.016 317.215 199.576V202H315.883ZM320.313 202V194.104H321.645V202H320.313ZM323.549 203.764V202.516C324.257 202.516 324.557 202.264 324.857 201.664L324.977 201.424L322.409 196.06H323.777L325.205 199.228C325.385 199.624 325.589 200.164 325.589 200.164C325.589 200.164 325.853 199.468 325.973 199.168L327.257 196.06H328.601L325.889 202.264C325.277 203.644 324.245 203.764 323.549 203.764ZM335.308 202.12C334.48 202.12 333.748 201.808 333.268 201.256V202H331.996V194.104H333.328V196.816C333.796 196.264 334.504 195.94 335.308 195.94C336.94 195.94 338.056 197.32 338.056 199.036C338.056 200.74 336.94 202.12 335.308 202.12ZM334.972 200.836C335.98 200.836 336.7 200.08 336.7 199.036C336.7 197.992 335.98 197.224 334.972 197.224C334.024 197.224 333.328 197.992 333.328 199.036C333.328 200.092 334.036 200.836 334.972 200.836ZM339.192 202V196.06H340.524V202H339.192ZM339.852 195.196C339.408 195.196 339.048 194.836 339.048 194.392C339.048 193.948 339.408 193.576 339.852 193.576C340.296 193.576 340.668 193.948 340.668 194.392C340.668 194.836 340.296 195.196 339.852 195.196ZM341.863 202V194.104H343.195V202H341.863ZM344.535 202V194.104H345.867V202H344.535ZM347.207 202V196.06H348.539V202H347.207ZM347.867 195.196C347.423 195.196 347.063 194.836 347.063 194.392C347.063 193.948 347.423 193.576 347.867 193.576C348.311 193.576 348.683 193.948 348.683 194.392C348.683 194.836 348.311 195.196 347.867 195.196ZM349.879 202V196.06H351.211V196.912C351.655 196.252 352.339 195.94 353.131 195.94C354.739 195.94 355.267 197.008 355.267 198.592V202H353.935V198.76C353.935 197.788 353.719 197.224 352.723 197.224C351.847 197.224 351.211 197.908 351.211 198.892V202H349.879ZM359.236 203.764C358.216 203.764 357.364 203.464 356.812 202.972L357.328 202.132C357.796 202.54 358.492 202.744 359.104 202.744C360.376 202.744 361 201.928 361 200.716V200.668C360.76 201.148 360.124 201.688 359.044 201.688C357.4 201.688 356.32 200.416 356.32 198.82C356.32 197.224 357.4 195.94 359.044 195.94C359.944 195.94 360.748 196.36 361.06 196.948V196.06H362.332V200.644C362.332 202.72 360.94 203.764 359.236 203.764ZM359.332 200.524C360.292 200.524 361 199.804 361 198.772C361 197.824 360.268 197.104 359.332 197.104C358.396 197.104 357.676 197.836 357.676 198.82C357.676 199.804 358.396 200.524 359.332 200.524Z" fill="#22C95C"/>
<path d="M43.336 118.24C41.008 118.24 39.304 117.496 38.152 116.344L39.496 114.472C40.552 115.504 41.896 115.864 43.12 115.864C45.376 115.864 46.768 114.616 46.768 112.936C46.768 111.52 45.472 110.368 43.408 110.368C42.544 110.368 41.824 110.56 41.176 110.944L40.12 109.168L45.016 104.848H38.824V102.448H48.784V104.776L44.776 108.304C45.208 108.328 45.616 108.4 46.024 108.52C48.088 109.072 49.6 110.656 49.6 112.96C49.6 116.392 46.864 118.24 43.336 118.24ZM57.8847 118.24C54.3087 118.24 51.8127 114.928 51.8127 110.224C51.8127 105.52 54.3087 102.208 57.8847 102.208C61.4367 102.208 63.9327 105.52 63.9327 110.224C63.9327 114.928 61.4367 118.24 57.8847 118.24ZM57.8847 115.84C59.9247 115.84 61.1007 113.512 61.1007 110.224C61.1007 106.936 59.9247 104.608 57.8847 104.608C55.8207 104.608 54.6447 106.936 54.6447 110.224C54.6447 113.512 55.8207 115.84 57.8847 115.84ZM72.0175 118.24C68.4415 118.24 65.9455 114.928 65.9455 110.224C65.9455 105.52 68.4415 102.208 72.0175 102.208C75.5695 102.208 78.0655 105.52 78.0655 110.224C78.0655 114.928 75.5695 118.24 72.0175 118.24ZM72.0175 115.84C74.0575 115.84 75.2335 113.512 75.2335 110.224C75.2335 106.936 74.0575 104.608 72.0175 104.608C69.9535 104.608 68.7775 106.936 68.7775 110.224C68.7775 113.512 69.9535 115.84 72.0175 115.84ZM86.1503 118.24C82.5743 118.24 80.0783 114.928 80.0783 110.224C80.0783 105.52 82.5743 102.208 86.1503 102.208C89.7023 102.208 92.1983 105.52 92.1983 110.224C92.1983 114.928 89.7023 118.24 86.1503 118.24ZM86.1503 115.84C88.1903 115.84 89.3663 113.512 89.3663 110.224C89.3663 106.936 88.1903 104.608 86.1503 104.608C84.0863 104.608 82.9103 106.936 82.9103 110.224C82.9103 113.512 84.0863 115.84 86.1503 115.84ZM38.752 135V123.528H39.664V125.832C40.312 124.368 41.872 123.288 43.648 123.288C45.544 123.288 46.96 124.104 47.44 126C48.304 123.96 50.296 123.288 51.616 123.288C54.064 123.288 55.648 124.608 55.648 127.656V135H54.736V127.776C54.736 125.4 53.656 124.176 51.472 124.176C49.192 124.176 47.656 126.264 47.656 128.184V135H46.744V127.776C46.744 125.4 45.664 124.176 43.504 124.176C41.176 124.176 39.664 126.408 39.664 128.208V135H38.752ZM58.9083 135V123.528H59.8203V135H58.9083ZM59.3643 121.056C58.9563 121.056 58.6203 120.72 58.6203 120.288C58.6203 119.88 58.9563 119.544 59.3643 119.544C59.7723 119.544 60.1323 119.88 60.1323 120.288C60.1323 120.72 59.7723 121.056 59.3643 121.056ZM63.2911 135V123.528H64.2031V125.832C64.9231 124.296 66.5791 123.288 68.4751 123.288C71.0671 123.288 72.6511 124.656 72.6511 127.656V135H71.7391V127.776C71.7391 125.352 70.5631 124.176 68.3071 124.176C65.8351 124.176 64.2031 126.36 64.2031 128.256V135H63.2911ZM79.8839 135.24C77.2919 135.24 75.6839 134.016 75.6839 130.896V123.528H76.5959V130.824C76.5959 133.344 77.8679 134.352 80.0519 134.352C82.4279 134.352 83.9399 132.168 83.9399 130.272V123.528H84.8519V135H83.9639V132.672C83.2199 134.424 81.4919 135.24 79.8839 135.24ZM91.7303 135.24C90.0983 135.24 88.8023 134.592 88.8023 131.856V124.32H87.0503V123.528H88.8023V120.792L89.7143 120.672V123.528H94.1303V124.32H89.7143V131.88C89.7143 133.848 90.5063 134.376 91.7303 134.376C92.9783 134.376 93.8903 133.656 93.8903 133.656L94.2503 134.4C93.8903 134.664 92.9303 135.24 91.7303 135.24ZM101.734 135.24C98.518 135.24 95.926 132.72 95.926 129.264C95.926 125.904 98.374 123.288 101.542 123.288C104.614 123.288 107.014 125.904 107.014 129.24C107.014 129.408 106.99 129.576 106.99 129.624H96.886C97.054 132.408 99.142 134.4 101.734 134.4C103.198 134.4 104.59 133.848 105.55 132.912L106.03 133.584C104.902 134.616 103.366 135.24 101.734 135.24ZM96.886 128.88H106.078C105.958 126.192 103.99 124.128 101.518 124.128C98.998 124.128 97.03 126.144 96.886 128.88ZM113.604 135.24C111.3 135.24 110.028 134.208 109.308 133.416L109.764 132.696C110.724 133.8 111.996 134.352 113.604 134.352C115.812 134.352 117.18 133.248 117.18 131.928C117.18 130.296 115.524 129.888 113.868 129.48C111.804 129 109.788 128.472 109.788 126.36C109.788 124.464 111.804 123.288 113.652 123.288C115.068 123.288 116.22 123.672 117.324 124.584L116.892 125.304C115.98 124.536 114.924 124.176 113.652 124.176C112.092 124.176 110.724 125.136 110.724 126.36C110.724 127.896 112.38 128.256 114.06 128.616C116.076 129.072 118.116 129.744 118.116 131.928C118.116 134.04 116.004 135.24 113.604 135.24Z" fill="#25242C"/>
<rect x="21" y="99" width="10" height="38" fill="#22C95C"/>
<path d="M245.603 88.6364V52.2727H247.933V88.6364H245.603ZM251.782 64.2756C251.669 63.1297 251.181 62.2396 250.319 61.6051C249.458 60.9706 248.288 60.6534 246.811 60.6534C245.807 60.6534 244.959 60.7955 244.268 61.0795C243.577 61.3542 243.047 61.7377 242.677 62.2301C242.317 62.7225 242.137 63.2812 242.137 63.9062C242.118 64.4271 242.227 64.8816 242.464 65.2699C242.71 65.6581 243.047 65.9943 243.473 66.2784C243.899 66.553 244.391 66.7945 244.95 67.0028C245.509 67.2017 246.105 67.3722 246.74 67.5142L249.353 68.1392C250.622 68.4233 251.787 68.8021 252.848 69.2756C253.908 69.7491 254.827 70.3314 255.603 71.0227C256.38 71.714 256.981 72.5284 257.407 73.4659C257.843 74.4034 258.065 75.4782 258.075 76.6903C258.065 78.4706 257.611 80.0142 256.711 81.321C255.821 82.6184 254.533 83.6269 252.848 84.3466C251.172 85.0568 249.15 85.4119 246.782 85.4119C244.434 85.4119 242.388 85.0521 240.646 84.3324C238.913 83.6127 237.559 82.5473 236.583 81.1364C235.618 79.7159 235.111 77.9593 235.064 75.8665H241.015C241.082 76.8419 241.361 77.6562 241.853 78.3097C242.355 78.9536 243.023 79.4413 243.856 79.7727C244.699 80.0947 245.651 80.2557 246.711 80.2557C247.753 80.2557 248.657 80.1042 249.424 79.8011C250.201 79.4981 250.802 79.0767 251.228 78.5369C251.654 77.9972 251.868 77.3769 251.868 76.6761C251.868 76.0227 251.673 75.4735 251.285 75.0284C250.906 74.5833 250.348 74.2045 249.609 73.892C248.88 73.5795 247.985 73.2955 246.924 73.0398L243.757 72.2443C241.304 71.6477 239.368 70.715 237.947 69.446C236.527 68.1771 235.821 66.4678 235.831 64.3182C235.821 62.5568 236.29 61.018 237.237 59.7017C238.193 58.3854 239.505 57.358 241.172 56.6193C242.838 55.8807 244.732 55.5114 246.853 55.5114C249.012 55.5114 250.897 55.8807 252.507 56.6193C254.126 57.358 255.386 58.3854 256.285 59.7017C257.185 61.018 257.649 62.5426 257.677 64.2756H251.782ZM264.946 85L283.036 49.2045V48.9062H261.963V41.3636H292.581V49.0128L274.471 85H264.946ZM314.107 40.767C316.351 40.767 318.51 41.1435 320.584 41.8963C322.672 42.6491 324.533 43.8494 326.166 45.4972C327.814 47.1449 329.114 49.3324 330.065 52.0597C331.031 54.7727 331.521 58.1037 331.536 62.0526C331.536 65.7599 331.116 69.0696 330.278 71.9815C329.455 74.8793 328.268 77.3438 326.72 79.375C325.172 81.4062 323.304 82.9545 321.116 84.0199C318.929 85.071 316.486 85.5966 313.787 85.5966C310.875 85.5966 308.304 85.0355 306.074 83.9134C303.844 82.777 302.047 81.2358 300.683 79.2898C299.334 77.3295 298.517 75.1278 298.233 72.6847H307.331C307.686 74.2756 308.432 75.5114 309.568 76.392C310.705 77.2585 312.111 77.6918 313.787 77.6918C316.628 77.6918 318.787 76.456 320.264 73.9844C321.741 71.4986 322.487 68.0966 322.501 63.7784H322.203C321.55 65.0568 320.669 66.1577 319.561 67.081C318.453 67.9901 317.182 68.6932 315.747 69.1903C314.327 69.6875 312.814 69.9361 311.209 69.9361C308.638 69.9361 306.344 69.3324 304.327 68.125C302.31 66.9176 300.719 65.2557 299.554 63.1392C298.389 61.0227 297.807 58.608 297.807 55.8949C297.793 52.9688 298.467 50.3622 299.831 48.0753C301.195 45.7884 303.098 43.9986 305.541 42.706C307.999 41.3991 310.854 40.7528 314.107 40.767ZM314.17 48.0114C312.736 48.0114 311.457 48.3523 310.335 49.0341C309.227 49.7159 308.347 50.6321 307.693 51.7827C307.054 52.9332 306.741 54.2187 306.756 55.6392C306.756 57.0739 307.068 58.3665 307.693 59.517C308.332 60.6534 309.199 61.5625 310.293 62.2443C311.401 62.9119 312.665 63.2457 314.085 63.2457C315.151 63.2457 316.138 63.0469 317.047 62.6491C317.956 62.2514 318.744 61.7045 319.412 61.0085C320.094 60.2983 320.626 59.4815 321.01 58.5582C321.393 57.6349 321.585 56.6548 321.585 55.6179C321.571 54.2401 321.244 52.9759 320.605 51.8253C319.966 50.6747 319.085 49.7514 317.963 49.0554C316.841 48.3594 315.577 48.0114 314.17 48.0114ZM353.716 40.767C355.96 40.767 358.119 41.1435 360.193 41.8963C362.281 42.6491 364.142 43.8494 365.776 45.4972C367.423 47.1449 368.723 49.3324 369.675 52.0597C370.641 54.7727 371.131 58.1037 371.145 62.0526C371.145 65.7599 370.726 69.0696 369.888 71.9815C369.064 74.8793 367.878 77.3438 366.33 79.375C364.781 81.4062 362.913 82.9545 360.726 84.0199C358.538 85.071 356.095 85.5966 353.396 85.5966C350.484 85.5966 347.913 85.0355 345.683 83.9134C343.453 82.777 341.656 81.2358 340.293 79.2898C338.943 77.3295 338.126 75.1278 337.842 72.6847H346.94C347.295 74.2756 348.041 75.5114 349.178 76.392C350.314 77.2585 351.72 77.6918 353.396 77.6918C356.237 77.6918 358.396 76.456 359.874 73.9844C361.351 71.4986 362.097 68.0966 362.111 63.7784H361.812C361.159 65.0568 360.278 66.1577 359.17 67.081C358.063 67.9901 356.791 68.6932 355.357 69.1903C353.936 69.6875 352.423 69.9361 350.818 69.9361C348.247 69.9361 345.953 69.3324 343.936 68.125C341.919 66.9176 340.328 65.2557 339.163 63.1392C337.999 61.0227 337.416 58.608 337.416 55.8949C337.402 52.9688 338.077 50.3622 339.44 48.0753C340.804 45.7884 342.707 43.9986 345.151 42.706C347.608 41.3991 350.463 40.7528 353.716 40.767ZM353.78 48.0114C352.345 48.0114 351.067 48.3523 349.945 49.0341C348.837 49.7159 347.956 50.6321 347.303 51.7827C346.663 52.9332 346.351 54.2187 346.365 55.6392C346.365 57.0739 346.678 58.3665 347.303 59.517C347.942 60.6534 348.808 61.5625 349.902 62.2443C351.01 62.9119 352.274 63.2457 353.695 63.2457C354.76 63.2457 355.747 63.0469 356.656 62.6491C357.565 62.2514 358.354 61.7045 359.021 61.0085C359.703 60.2983 360.236 59.4815 360.619 58.5582C361.003 57.6349 361.195 56.6548 361.195 55.6179C361.18 54.2401 360.854 52.9759 360.214 51.8253C359.575 50.6747 358.695 49.7514 357.572 49.0554C356.45 48.3594 355.186 48.0114 353.78 48.0114Z" fill="#24252C"/>
<path d="M25.116 47.076C25.448 47.076 25.734 47.038 25.974 46.962C26.214 46.886 26.41 46.78 26.562 46.644C26.718 46.504 26.832 46.34 26.904 46.152C26.976 45.96 27.012 45.75 27.012 45.522C27.012 45.078 26.854 44.728 26.538 44.472C26.222 44.212 25.748 44.082 25.116 44.082H23.256V47.076H25.116ZM23.256 40.32V43.254H24.792C25.12 43.254 25.404 43.218 25.644 43.146C25.888 43.074 26.088 42.974 26.244 42.846C26.404 42.718 26.522 42.564 26.598 42.384C26.674 42.2 26.712 42 26.712 41.784C26.712 41.276 26.56 40.906 26.256 40.674C25.952 40.438 25.48 40.32 24.84 40.32H23.256ZM24.84 39.402C25.368 39.402 25.822 39.454 26.202 39.558C26.586 39.662 26.9 39.81 27.144 40.002C27.392 40.194 27.574 40.43 27.69 40.71C27.806 40.986 27.864 41.298 27.864 41.646C27.864 41.858 27.83 42.062 27.762 42.258C27.698 42.45 27.6 42.63 27.468 42.798C27.336 42.966 27.168 43.118 26.964 43.254C26.764 43.386 26.528 43.494 26.256 43.578C26.888 43.698 27.362 43.924 27.678 44.256C27.998 44.584 28.158 45.016 28.158 45.552C28.158 45.916 28.09 46.248 27.954 46.548C27.822 46.848 27.626 47.106 27.366 47.322C27.11 47.538 26.794 47.706 26.418 47.826C26.042 47.942 25.614 48 25.134 48H22.098V39.402H24.84ZM34.5929 41.922V48H33.9569C33.8049 48 33.7089 47.926 33.6689 47.778L33.5849 47.124C33.3209 47.416 33.0249 47.652 32.6969 47.832C32.3689 48.008 31.9929 48.096 31.5689 48.096C31.2369 48.096 30.9429 48.042 30.6869 47.934C30.4349 47.822 30.2229 47.666 30.0509 47.466C29.8789 47.266 29.7489 47.024 29.6609 46.74C29.5769 46.456 29.5349 46.142 29.5349 45.798V41.922H30.6029V45.798C30.6029 46.258 30.7069 46.614 30.9149 46.866C31.1269 47.118 31.4489 47.244 31.8809 47.244C32.1969 47.244 32.4909 47.17 32.7629 47.022C33.0389 46.87 33.2929 46.662 33.5249 46.398V41.922H34.5929ZM37.5343 41.922V48H36.4663V41.922H37.5343ZM37.7623 40.014C37.7623 40.118 37.7403 40.216 37.6963 40.308C37.6563 40.396 37.6003 40.476 37.5283 40.548C37.4603 40.616 37.3783 40.67 37.2823 40.71C37.1903 40.75 37.0923 40.77 36.9883 40.77C36.8843 40.77 36.7863 40.75 36.6943 40.71C36.6063 40.67 36.5283 40.616 36.4603 40.548C36.3923 40.476 36.3383 40.396 36.2983 40.308C36.2583 40.216 36.2383 40.118 36.2383 40.014C36.2383 39.91 36.2583 39.812 36.2983 39.72C36.3383 39.624 36.3923 39.542 36.4603 39.474C36.5283 39.402 36.6063 39.346 36.6943 39.306C36.7863 39.266 36.8843 39.246 36.9883 39.246C37.0923 39.246 37.1903 39.266 37.2823 39.306C37.3783 39.346 37.4603 39.402 37.5283 39.474C37.6003 39.542 37.6563 39.624 37.6963 39.72C37.7403 39.812 37.7623 39.91 37.7623 40.014ZM40.5131 39.162V48H39.4451V39.162H40.5131ZM44.2311 48.096C43.7511 48.096 43.3811 47.962 43.1211 47.694C42.8651 47.426 42.7371 47.04 42.7371 46.536V42.816H42.0051C41.9411 42.816 41.8871 42.798 41.8431 42.762C41.7991 42.722 41.7771 42.662 41.7771 42.582V42.156L42.7731 42.03L43.0191 40.152C43.0311 40.092 43.0571 40.044 43.0971 40.008C43.1411 39.968 43.1971 39.948 43.2651 39.948H43.8051V42.042H45.5631V42.816H43.8051V46.464C43.8051 46.72 43.8671 46.91 43.9911 47.034C44.1151 47.158 44.2751 47.22 44.4711 47.22C44.5831 47.22 44.6791 47.206 44.7591 47.178C44.8431 47.146 44.9151 47.112 44.9751 47.076C45.0351 47.04 45.0851 47.008 45.1251 46.98C45.1691 46.948 45.2071 46.932 45.2391 46.932C45.2951 46.932 45.3451 46.966 45.3891 47.034L45.7011 47.544C45.5171 47.716 45.2951 47.852 45.0351 47.952C44.7751 48.048 44.5071 48.096 44.2311 48.096ZM50.3722 48V42.834L49.7002 42.756C49.6162 42.736 49.5462 42.706 49.4902 42.666C49.4382 42.622 49.4122 42.56 49.4122 42.48V42.042H50.3722V41.454C50.3722 41.106 50.4202 40.798 50.5162 40.53C50.6162 40.258 50.7562 40.03 50.9362 39.846C51.1202 39.658 51.3402 39.516 51.5962 39.42C51.8522 39.324 52.1402 39.276 52.4602 39.276C52.7322 39.276 52.9822 39.316 53.2102 39.396L53.1862 39.93C53.1782 40.026 53.1242 40.078 53.0242 40.086C52.9282 40.094 52.7982 40.098 52.6342 40.098C52.4502 40.098 52.2822 40.122 52.1302 40.17C51.9822 40.218 51.8542 40.296 51.7462 40.404C51.6382 40.512 51.5542 40.654 51.4942 40.83C51.4382 41.006 51.4102 41.224 51.4102 41.484V42.042H53.1622V42.816H51.4462V48H50.3722ZM56.666 41.826C57.11 41.826 57.51 41.9 57.866 42.048C58.222 42.196 58.526 42.406 58.778 42.678C59.03 42.95 59.222 43.28 59.354 43.668C59.49 44.052 59.558 44.482 59.558 44.958C59.558 45.438 59.49 45.87 59.354 46.254C59.222 46.638 59.03 46.966 58.778 47.238C58.526 47.51 58.222 47.72 57.866 47.868C57.51 48.012 57.11 48.084 56.666 48.084C56.218 48.084 55.814 48.012 55.454 47.868C55.098 47.72 54.794 47.51 54.542 47.238C54.29 46.966 54.096 46.638 53.96 46.254C53.828 45.87 53.762 45.438 53.762 44.958C53.762 44.482 53.828 44.052 53.96 43.668C54.096 43.28 54.29 42.95 54.542 42.678C54.794 42.406 55.098 42.196 55.454 42.048C55.814 41.9 56.218 41.826 56.666 41.826ZM56.666 47.25C57.266 47.25 57.714 47.05 58.01 46.65C58.306 46.246 58.454 45.684 58.454 44.964C58.454 44.24 58.306 43.676 58.01 43.272C57.714 42.868 57.266 42.666 56.666 42.666C56.362 42.666 56.096 42.718 55.868 42.822C55.644 42.926 55.456 43.076 55.304 43.272C55.156 43.468 55.044 43.71 54.968 43.998C54.896 44.282 54.86 44.604 54.86 44.964C54.86 45.684 55.008 46.246 55.304 46.65C55.604 47.05 56.058 47.25 56.666 47.25ZM62.0466 43.14C62.2386 42.724 62.4746 42.4 62.7546 42.168C63.0346 41.932 63.3766 41.814 63.7806 41.814C63.9086 41.814 64.0306 41.828 64.1466 41.856C64.2666 41.884 64.3726 41.928 64.4646 41.988L64.3866 42.786C64.3626 42.886 64.3026 42.936 64.2066 42.936C64.1506 42.936 64.0686 42.924 63.9606 42.9C63.8526 42.876 63.7306 42.864 63.5946 42.864C63.4026 42.864 63.2306 42.892 63.0786 42.948C62.9306 43.004 62.7966 43.088 62.6766 43.2C62.5606 43.308 62.4546 43.444 62.3586 43.608C62.2666 43.768 62.1826 43.952 62.1066 44.16V48H61.0326V41.922H61.6446C61.7606 41.922 61.8406 41.944 61.8846 41.988C61.9286 42.032 61.9586 42.108 61.9746 42.216L62.0466 43.14ZM69.5302 42.732C69.7902 42.456 70.0782 42.236 70.3942 42.072C70.7102 41.908 71.0742 41.826 71.4862 41.826C71.8182 41.826 72.1102 41.882 72.3622 41.994C72.6182 42.102 72.8302 42.258 72.9982 42.462C73.1702 42.662 73.3002 42.904 73.3882 43.188C73.4762 43.472 73.5202 43.786 73.5202 44.13V48H72.4462V44.13C72.4462 43.67 72.3402 43.314 72.1282 43.062C71.9202 42.806 71.6022 42.678 71.1742 42.678C70.8582 42.678 70.5622 42.754 70.2862 42.906C70.0142 43.058 69.7622 43.264 69.5302 43.524V48H68.4562V39.162H69.5302V42.732ZM76.3956 41.922V48H75.3276V41.922H76.3956ZM76.6236 40.014C76.6236 40.118 76.6016 40.216 76.5576 40.308C76.5176 40.396 76.4616 40.476 76.3896 40.548C76.3216 40.616 76.2396 40.67 76.1436 40.71C76.0516 40.75 75.9536 40.77 75.8496 40.77C75.7456 40.77 75.6476 40.75 75.5556 40.71C75.4676 40.67 75.3896 40.616 75.3216 40.548C75.2536 40.476 75.1996 40.396 75.1596 40.308C75.1196 40.216 75.0996 40.118 75.0996 40.014C75.0996 39.91 75.1196 39.812 75.1596 39.72C75.1996 39.624 75.2536 39.542 75.3216 39.474C75.3896 39.402 75.4676 39.346 75.5556 39.306C75.6476 39.266 75.7456 39.246 75.8496 39.246C75.9536 39.246 76.0516 39.266 76.1436 39.306C76.2396 39.346 76.3216 39.402 76.3896 39.474C76.4616 39.542 76.5176 39.624 76.5576 39.72C76.6016 39.812 76.6236 39.91 76.6236 40.014ZM80.3884 45.03C80.6044 45.03 80.7944 45 80.9584 44.94C81.1224 44.88 81.2604 44.796 81.3724 44.688C81.4844 44.58 81.5684 44.452 81.6244 44.304C81.6804 44.152 81.7084 43.986 81.7084 43.806C81.7084 43.434 81.5944 43.138 81.3664 42.918C81.1424 42.698 80.8164 42.588 80.3884 42.588C79.9564 42.588 79.6264 42.698 79.3984 42.918C79.1744 43.138 79.0624 43.434 79.0624 43.806C79.0624 43.986 79.0904 44.152 79.1464 44.304C79.2064 44.452 79.2924 44.58 79.4044 44.688C79.5164 44.796 79.6544 44.88 79.8184 44.94C79.9824 45 80.1724 45.03 80.3884 45.03ZM82.3144 48.33C82.3144 48.182 82.2724 48.062 82.1884 47.97C82.1044 47.878 81.9904 47.806 81.8464 47.754C81.7064 47.702 81.5424 47.666 81.3544 47.646C81.1664 47.622 80.9664 47.604 80.7544 47.592C80.5464 47.58 80.3344 47.568 80.1184 47.556C79.9024 47.544 79.6944 47.524 79.4944 47.496C79.2704 47.6 79.0864 47.732 78.9424 47.892C78.8024 48.048 78.7324 48.232 78.7324 48.444C78.7324 48.58 78.7664 48.706 78.8344 48.822C78.9064 48.942 79.0144 49.044 79.1584 49.128C79.3024 49.216 79.4824 49.284 79.6984 49.332C79.9184 49.384 80.1764 49.41 80.4724 49.41C80.7604 49.41 81.0184 49.384 81.2464 49.332C81.4744 49.28 81.6664 49.206 81.8224 49.11C81.9824 49.014 82.1044 48.9 82.1884 48.768C82.2724 48.636 82.3144 48.49 82.3144 48.33ZM83.4004 42.162V42.558C83.4004 42.69 83.3164 42.774 83.1484 42.81L82.4584 42.9C82.5944 43.164 82.6624 43.456 82.6624 43.776C82.6624 44.072 82.6044 44.342 82.4884 44.586C82.3764 44.826 82.2204 45.032 82.0204 45.204C81.8204 45.376 81.5804 45.508 81.3004 45.6C81.0204 45.692 80.7164 45.738 80.3884 45.738C80.1044 45.738 79.8364 45.704 79.5844 45.636C79.4564 45.716 79.3584 45.802 79.2904 45.894C79.2224 45.982 79.1884 46.072 79.1884 46.164C79.1884 46.308 79.2464 46.418 79.3624 46.494C79.4824 46.566 79.6384 46.618 79.8304 46.65C80.0224 46.682 80.2404 46.702 80.4844 46.71C80.7324 46.718 80.9844 46.732 81.2404 46.752C81.5004 46.768 81.7524 46.798 81.9964 46.842C82.2444 46.886 82.4644 46.958 82.6564 47.058C82.8484 47.158 83.0024 47.296 83.1184 47.472C83.2384 47.648 83.2984 47.876 83.2984 48.156C83.2984 48.416 83.2324 48.668 83.1004 48.912C82.9724 49.156 82.7864 49.372 82.5424 49.56C82.2984 49.752 81.9984 49.904 81.6424 50.016C81.2904 50.132 80.8924 50.19 80.4484 50.19C80.0044 50.19 79.6164 50.146 79.2844 50.058C78.9524 49.97 78.6764 49.852 78.4564 49.704C78.2364 49.556 78.0704 49.384 77.9584 49.188C77.8504 48.996 77.7964 48.794 77.7964 48.582C77.7964 48.282 77.8904 48.028 78.0784 47.82C78.2664 47.612 78.5244 47.446 78.8524 47.322C78.6724 47.242 78.5284 47.136 78.4204 47.004C78.3164 46.868 78.2644 46.686 78.2644 46.458C78.2644 46.37 78.2804 46.28 78.3124 46.188C78.3444 46.092 78.3924 45.998 78.4564 45.906C78.5244 45.81 78.6064 45.72 78.7024 45.636C78.7984 45.552 78.9104 45.478 79.0384 45.414C78.7384 45.246 78.5044 45.024 78.3364 44.748C78.1684 44.468 78.0844 44.144 78.0844 43.776C78.0844 43.48 78.1404 43.212 78.2524 42.972C78.3684 42.728 78.5284 42.522 78.7324 42.354C78.9364 42.182 79.1784 42.05 79.4584 41.958C79.7424 41.866 80.0524 41.82 80.3884 41.82C80.6524 41.82 80.8984 41.85 81.1264 41.91C81.3544 41.966 81.5624 42.05 81.7504 42.162H83.4004ZM85.6988 42.732C85.9588 42.456 86.2468 42.236 86.5628 42.072C86.8788 41.908 87.2428 41.826 87.6548 41.826C87.9868 41.826 88.2788 41.882 88.5308 41.994C88.7868 42.102 88.9988 42.258 89.1668 42.462C89.3388 42.662 89.4688 42.904 89.5568 43.188C89.6448 43.472 89.6888 43.786 89.6888 44.13V48H88.6148V44.13C88.6148 43.67 88.5088 43.314 88.2968 43.062C88.0888 42.806 87.7708 42.678 87.3428 42.678C87.0268 42.678 86.7308 42.754 86.4548 42.906C86.1828 43.058 85.9308 43.264 85.6988 43.524V48H84.6248V39.162H85.6988V42.732ZM91.3402 43.95H94.3042V44.856H91.3402V43.95ZM101.217 41.922L98.7393 48H97.7793L95.3013 41.922H96.1713C96.2593 41.922 96.3313 41.944 96.3873 41.988C96.4433 42.032 96.4813 42.084 96.5013 42.144L98.0433 46.056C98.0913 46.204 98.1333 46.348 98.1693 46.488C98.2053 46.628 98.2393 46.768 98.2713 46.908C98.3033 46.768 98.3373 46.628 98.3733 46.488C98.4093 46.348 98.4533 46.204 98.5053 46.056L100.065 42.144C100.089 42.08 100.129 42.028 100.185 41.988C100.241 41.944 100.307 41.922 100.383 41.922H101.217ZM104.715 41.826C105.159 41.826 105.559 41.9 105.915 42.048C106.271 42.196 106.575 42.406 106.827 42.678C107.079 42.95 107.271 43.28 107.403 43.668C107.539 44.052 107.607 44.482 107.607 44.958C107.607 45.438 107.539 45.87 107.403 46.254C107.271 46.638 107.079 46.966 106.827 47.238C106.575 47.51 106.271 47.72 105.915 47.868C105.559 48.012 105.159 48.084 104.715 48.084C104.267 48.084 103.863 48.012 103.503 47.868C103.147 47.72 102.843 47.51 102.591 47.238C102.339 46.966 102.145 46.638 102.009 46.254C101.877 45.87 101.811 45.438 101.811 44.958C101.811 44.482 101.877 44.052 102.009 43.668C102.145 43.28 102.339 42.95 102.591 42.678C102.843 42.406 103.147 42.196 103.503 42.048C103.863 41.9 104.267 41.826 104.715 41.826ZM104.715 47.25C105.315 47.25 105.763 47.05 106.059 46.65C106.355 46.246 106.503 45.684 106.503 44.964C106.503 44.24 106.355 43.676 106.059 43.272C105.763 42.868 105.315 42.666 104.715 42.666C104.411 42.666 104.145 42.718 103.917 42.822C103.693 42.926 103.505 43.076 103.353 43.272C103.205 43.468 103.093 43.71 103.017 43.998C102.945 44.282 102.909 44.604 102.909 44.964C102.909 45.684 103.057 46.246 103.353 46.65C103.653 47.05 104.107 47.25 104.715 47.25ZM110.185 39.162V48H109.117V39.162H110.185ZM117.035 41.922V48H116.399C116.247 48 116.151 47.926 116.111 47.778L116.027 47.124C115.763 47.416 115.467 47.652 115.139 47.832C114.811 48.008 114.435 48.096 114.011 48.096C113.679 48.096 113.385 48.042 113.129 47.934C112.877 47.822 112.665 47.666 112.493 47.466C112.321 47.266 112.191 47.024 112.103 46.74C112.019 46.456 111.977 46.142 111.977 45.798V41.922H113.045V45.798C113.045 46.258 113.149 46.614 113.357 46.866C113.569 47.118 113.891 47.244 114.323 47.244C114.639 47.244 114.933 47.17 115.205 47.022C115.481 46.87 115.735 46.662 115.967 46.398V41.922H117.035ZM118.849 48V41.922H119.491C119.643 41.922 119.737 41.996 119.773 42.144L119.851 42.768C120.075 42.492 120.327 42.266 120.607 42.09C120.887 41.914 121.211 41.826 121.579 41.826C121.987 41.826 122.317 41.94 122.569 42.168C122.825 42.396 123.009 42.704 123.121 43.092C123.209 42.872 123.321 42.682 123.457 42.522C123.597 42.362 123.753 42.23 123.925 42.126C124.097 42.022 124.279 41.946 124.471 41.898C124.667 41.85 124.865 41.826 125.065 41.826C125.385 41.826 125.669 41.878 125.917 41.982C126.169 42.082 126.381 42.23 126.553 42.426C126.729 42.622 126.863 42.864 126.955 43.152C127.047 43.436 127.093 43.762 127.093 44.13V48H126.019V44.13C126.019 43.654 125.915 43.294 125.707 43.05C125.499 42.802 125.199 42.678 124.807 42.678C124.631 42.678 124.463 42.71 124.303 42.774C124.147 42.834 124.009 42.924 123.889 43.044C123.769 43.164 123.673 43.316 123.601 43.5C123.533 43.68 123.499 43.89 123.499 44.13V48H122.425V44.13C122.425 43.642 122.327 43.278 122.131 43.038C121.935 42.798 121.649 42.678 121.273 42.678C121.009 42.678 120.765 42.75 120.541 42.894C120.317 43.034 120.111 43.226 119.923 43.47V48H118.849ZM132.904 44.298C132.904 44.05 132.868 43.824 132.796 43.62C132.728 43.412 132.626 43.234 132.49 43.086C132.358 42.934 132.196 42.818 132.004 42.738C131.812 42.654 131.594 42.612 131.35 42.612C130.838 42.612 130.432 42.762 130.132 43.062C129.836 43.358 129.652 43.77 129.58 44.298H132.904ZM133.768 47.148C133.636 47.308 133.478 47.448 133.294 47.568C133.11 47.684 132.912 47.78 132.7 47.856C132.492 47.932 132.276 47.988 132.052 48.024C131.828 48.064 131.606 48.084 131.386 48.084C130.966 48.084 130.578 48.014 130.222 47.874C129.87 47.73 129.564 47.522 129.304 47.25C129.048 46.974 128.848 46.634 128.704 46.23C128.56 45.826 128.488 45.362 128.488 44.838C128.488 44.414 128.552 44.018 128.68 43.65C128.812 43.282 129 42.964 129.244 42.696C129.488 42.424 129.786 42.212 130.138 42.06C130.49 41.904 130.886 41.826 131.326 41.826C131.69 41.826 132.026 41.888 132.334 42.012C132.646 42.132 132.914 42.308 133.138 42.54C133.366 42.768 133.544 43.052 133.672 43.392C133.8 43.728 133.864 44.112 133.864 44.544C133.864 44.712 133.846 44.824 133.81 44.88C133.774 44.936 133.706 44.964 133.606 44.964H129.544C129.556 45.348 129.608 45.682 129.7 45.966C129.796 46.25 129.928 46.488 130.096 46.68C130.264 46.868 130.464 47.01 130.696 47.106C130.928 47.198 131.188 47.244 131.476 47.244C131.744 47.244 131.974 47.214 132.166 47.154C132.362 47.09 132.53 47.022 132.67 46.95C132.81 46.878 132.926 46.812 133.018 46.752C133.114 46.688 133.196 46.656 133.264 46.656C133.352 46.656 133.42 46.69 133.468 46.758L133.768 47.148ZM139.494 42.804C139.626 42.656 139.766 42.522 139.914 42.402C140.062 42.282 140.218 42.18 140.382 42.096C140.55 42.008 140.726 41.942 140.91 41.898C141.098 41.85 141.3 41.826 141.516 41.826C141.848 41.826 142.14 41.882 142.392 41.994C142.648 42.102 142.86 42.258 143.028 42.462C143.2 42.662 143.33 42.904 143.418 43.188C143.506 43.472 143.55 43.786 143.55 44.13V48H142.476V44.13C142.476 43.67 142.37 43.314 142.158 43.062C141.95 42.806 141.632 42.678 141.204 42.678C140.888 42.678 140.592 42.754 140.316 42.906C140.044 43.058 139.792 43.264 139.56 43.524V48H138.486V41.922H139.128C139.28 41.922 139.374 41.996 139.41 42.144L139.494 42.804ZM149.365 44.298C149.365 44.05 149.329 43.824 149.257 43.62C149.189 43.412 149.087 43.234 148.951 43.086C148.819 42.934 148.657 42.818 148.465 42.738C148.273 42.654 148.055 42.612 147.811 42.612C147.299 42.612 146.893 42.762 146.593 43.062C146.297 43.358 146.113 43.77 146.041 44.298H149.365ZM150.229 47.148C150.097 47.308 149.939 47.448 149.755 47.568C149.571 47.684 149.373 47.78 149.161 47.856C148.953 47.932 148.737 47.988 148.513 48.024C148.289 48.064 148.067 48.084 147.847 48.084C147.427 48.084 147.039 48.014 146.683 47.874C146.331 47.73 146.025 47.522 145.765 47.25C145.509 46.974 145.309 46.634 145.165 46.23C145.021 45.826 144.949 45.362 144.949 44.838C144.949 44.414 145.013 44.018 145.141 43.65C145.273 43.282 145.461 42.964 145.705 42.696C145.949 42.424 146.247 42.212 146.599 42.06C146.951 41.904 147.347 41.826 147.787 41.826C148.151 41.826 148.487 41.888 148.795 42.012C149.107 42.132 149.375 42.308 149.599 42.54C149.827 42.768 150.005 43.052 150.133 43.392C150.261 43.728 150.325 44.112 150.325 44.544C150.325 44.712 150.307 44.824 150.271 44.88C150.235 44.936 150.167 44.964 150.067 44.964H146.005C146.017 45.348 146.069 45.682 146.161 45.966C146.257 46.25 146.389 46.488 146.557 46.68C146.725 46.868 146.925 47.01 147.157 47.106C147.389 47.198 147.649 47.244 147.937 47.244C148.205 47.244 148.435 47.214 148.627 47.154C148.823 47.09 148.991 47.022 149.131 46.95C149.271 46.878 149.387 46.812 149.479 46.752C149.575 46.688 149.657 46.656 149.725 46.656C149.813 46.656 149.881 46.69 149.929 46.758L150.229 47.148ZM155.825 44.298C155.825 44.05 155.789 43.824 155.717 43.62C155.649 43.412 155.547 43.234 155.411 43.086C155.279 42.934 155.117 42.818 154.925 42.738C154.733 42.654 154.515 42.612 154.271 42.612C153.759 42.612 153.353 42.762 153.053 43.062C152.757 43.358 152.573 43.77 152.501 44.298H155.825ZM156.689 47.148C156.557 47.308 156.399 47.448 156.215 47.568C156.031 47.684 155.833 47.78 155.621 47.856C155.413 47.932 155.197 47.988 154.973 48.024C154.749 48.064 154.527 48.084 154.307 48.084C153.887 48.084 153.499 48.014 153.143 47.874C152.791 47.73 152.485 47.522 152.225 47.25C151.969 46.974 151.769 46.634 151.625 46.23C151.481 45.826 151.409 45.362 151.409 44.838C151.409 44.414 151.473 44.018 151.601 43.65C151.733 43.282 151.921 42.964 152.165 42.696C152.409 42.424 152.707 42.212 153.059 42.06C153.411 41.904 153.807 41.826 154.247 41.826C154.611 41.826 154.947 41.888 155.255 42.012C155.567 42.132 155.835 42.308 156.059 42.54C156.287 42.768 156.465 43.052 156.593 43.392C156.721 43.728 156.785 44.112 156.785 44.544C156.785 44.712 156.767 44.824 156.731 44.88C156.695 44.936 156.627 44.964 156.527 44.964H152.465C152.477 45.348 152.529 45.682 152.621 45.966C152.717 46.25 152.849 46.488 153.017 46.68C153.185 46.868 153.385 47.01 153.617 47.106C153.849 47.198 154.109 47.244 154.397 47.244C154.665 47.244 154.895 47.214 155.087 47.154C155.283 47.09 155.451 47.022 155.591 46.95C155.731 46.878 155.847 46.812 155.939 46.752C156.035 46.688 156.117 46.656 156.185 46.656C156.273 46.656 156.341 46.69 156.389 46.758L156.689 47.148ZM162.177 43.368C161.977 43.1 161.761 42.914 161.529 42.81C161.297 42.702 161.037 42.648 160.749 42.648C160.185 42.648 159.751 42.85 159.447 43.254C159.143 43.658 158.991 44.234 158.991 44.982C158.991 45.378 159.025 45.718 159.093 46.002C159.161 46.282 159.261 46.514 159.393 46.698C159.525 46.878 159.687 47.01 159.879 47.094C160.071 47.178 160.289 47.22 160.533 47.22C160.885 47.22 161.191 47.14 161.451 46.98C161.715 46.82 161.957 46.594 162.177 46.302V43.368ZM163.245 39.162V48H162.609C162.457 48 162.361 47.926 162.321 47.778L162.225 47.04C161.965 47.352 161.669 47.604 161.337 47.796C161.005 47.988 160.621 48.084 160.185 48.084C159.837 48.084 159.521 48.018 159.237 47.886C158.953 47.75 158.711 47.552 158.511 47.292C158.311 47.032 158.157 46.708 158.049 46.32C157.941 45.932 157.887 45.486 157.887 44.982C157.887 44.534 157.947 44.118 158.067 43.734C158.187 43.346 158.359 43.01 158.583 42.726C158.807 42.442 159.081 42.22 159.405 42.06C159.733 41.896 160.101 41.814 160.509 41.814C160.881 41.814 161.199 41.878 161.463 42.006C161.731 42.13 161.969 42.304 162.177 42.528V39.162H163.245ZM168.592 42.924C168.544 43.012 168.47 43.056 168.37 43.056C168.31 43.056 168.242 43.034 168.166 42.99C168.09 42.946 167.996 42.898 167.884 42.846C167.776 42.79 167.646 42.74 167.494 42.696C167.342 42.648 167.162 42.624 166.954 42.624C166.774 42.624 166.612 42.648 166.468 42.696C166.324 42.74 166.2 42.802 166.096 42.882C165.996 42.962 165.918 43.056 165.862 43.164C165.81 43.268 165.784 43.382 165.784 43.506C165.784 43.662 165.828 43.792 165.916 43.896C166.008 44 166.128 44.09 166.276 44.166C166.424 44.242 166.592 44.31 166.78 44.37C166.968 44.426 167.16 44.488 167.356 44.556C167.556 44.62 167.75 44.692 167.938 44.772C168.126 44.852 168.294 44.952 168.442 45.072C168.59 45.192 168.708 45.34 168.796 45.516C168.888 45.688 168.934 45.896 168.934 46.14C168.934 46.42 168.884 46.68 168.784 46.92C168.684 47.156 168.536 47.362 168.34 47.538C168.144 47.71 167.904 47.846 167.62 47.946C167.336 48.046 167.008 48.096 166.636 48.096C166.212 48.096 165.828 48.028 165.484 47.892C165.14 47.752 164.848 47.574 164.608 47.358L164.86 46.95C164.892 46.898 164.93 46.858 164.974 46.83C165.018 46.802 165.074 46.788 165.142 46.788C165.214 46.788 165.29 46.816 165.37 46.872C165.45 46.928 165.546 46.99 165.658 47.058C165.774 47.126 165.914 47.188 166.078 47.244C166.242 47.3 166.446 47.328 166.69 47.328C166.898 47.328 167.08 47.302 167.236 47.25C167.392 47.194 167.522 47.12 167.626 47.028C167.73 46.936 167.806 46.83 167.854 46.71C167.906 46.59 167.932 46.462 167.932 46.326C167.932 46.158 167.886 46.02 167.794 45.912C167.706 45.8 167.588 45.706 167.44 45.63C167.292 45.55 167.122 45.482 166.93 45.426C166.742 45.366 166.548 45.304 166.348 45.24C166.152 45.176 165.958 45.104 165.766 45.024C165.578 44.94 165.41 44.836 165.262 44.712C165.114 44.588 164.994 44.436 164.902 44.256C164.814 44.072 164.77 43.85 164.77 43.59C164.77 43.358 164.818 43.136 164.914 42.924C165.01 42.708 165.15 42.52 165.334 42.36C165.518 42.196 165.744 42.066 166.012 41.97C166.28 41.874 166.586 41.826 166.93 41.826C167.33 41.826 167.688 41.89 168.004 42.018C168.324 42.142 168.6 42.314 168.832 42.534L168.592 42.924ZM170.183 47.34C170.183 47.236 170.201 47.138 170.237 47.046C170.277 46.954 170.329 46.874 170.393 46.806C170.461 46.738 170.541 46.684 170.633 46.644C170.725 46.604 170.823 46.584 170.927 46.584C171.031 46.584 171.129 46.604 171.221 46.644C171.313 46.684 171.393 46.738 171.461 46.806C171.529 46.874 171.583 46.954 171.623 47.046C171.663 47.138 171.683 47.236 171.683 47.34C171.683 47.448 171.663 47.548 171.623 47.64C171.583 47.728 171.529 47.806 171.461 47.874C171.393 47.942 171.313 47.994 171.221 48.03C171.129 48.07 171.031 48.09 170.927 48.09C170.823 48.09 170.725 48.07 170.633 48.03C170.541 47.994 170.461 47.942 170.393 47.874C170.329 47.806 170.277 47.728 170.237 47.64C170.201 47.548 170.183 47.448 170.183 47.34Z" fill="#24252C"/>
<path d="M42.5568 70.875H37.5795C37.4886 70.2311 37.303 69.6591 37.0227 69.1591C36.7424 68.6515 36.3826 68.2197 35.9432 67.8636C35.5038 67.5076 34.9962 67.2348 34.4205 67.0455C33.8523 66.8561 33.2348 66.7614 32.5682 66.7614C31.3636 66.7614 30.3144 67.0606 29.4205 67.6591C28.5265 68.25 27.8333 69.1136 27.3409 70.25C26.8485 71.3788 26.6023 72.75 26.6023 74.3636C26.6023 76.0227 26.8485 77.4167 27.3409 78.5455C27.8409 79.6742 28.5379 80.5265 29.4318 81.1023C30.3258 81.678 31.3598 81.9659 32.5341 81.9659C33.1932 81.9659 33.803 81.8788 34.3636 81.7045C34.9318 81.5303 35.4356 81.2765 35.875 80.9432C36.3144 80.6023 36.678 80.1894 36.9659 79.7045C37.2614 79.2197 37.4659 78.6667 37.5795 78.0455L42.5568 78.0682C42.428 79.1364 42.1061 80.1667 41.5909 81.1591C41.0833 82.1439 40.3977 83.0265 39.5341 83.8068C38.678 84.5795 37.6553 85.1932 36.4659 85.6477C35.2841 86.0947 33.947 86.3182 32.4545 86.3182C30.3788 86.3182 28.5227 85.8485 26.8864 84.9091C25.2576 83.9697 23.9697 82.6098 23.0227 80.8295C22.0833 79.0492 21.6136 76.8939 21.6136 74.3636C21.6136 71.8258 22.0909 69.6667 23.0455 67.8864C24 66.1061 25.2955 64.75 26.9318 63.8182C28.5682 62.8788 30.4091 62.4091 32.4545 62.4091C33.803 62.4091 35.053 62.5985 36.2045 62.9773C37.3636 63.3561 38.3902 63.9091 39.2841 64.6364C40.178 65.3561 40.9053 66.2386 41.4659 67.2841C42.0341 68.3295 42.3977 69.5265 42.5568 70.875ZM67.4716 74.3636C67.4716 76.9015 66.9905 79.0606 66.0284 80.8409C65.0739 82.6212 63.7708 83.9811 62.1193 84.9205C60.4754 85.8523 58.6269 86.3182 56.5739 86.3182C54.5057 86.3182 52.6496 85.8485 51.0057 84.9091C49.3617 83.9697 48.0625 82.6098 47.108 80.8295C46.1534 79.0492 45.6761 76.8939 45.6761 74.3636C45.6761 71.8258 46.1534 69.6667 47.108 67.8864C48.0625 66.1061 49.3617 64.75 51.0057 63.8182C52.6496 62.8788 54.5057 62.4091 56.5739 62.4091C58.6269 62.4091 60.4754 62.8788 62.1193 63.8182C63.7708 64.75 65.0739 66.1061 66.0284 67.8864C66.9905 69.6667 67.4716 71.8258 67.4716 74.3636ZM62.483 74.3636C62.483 72.7197 62.2367 71.3333 61.7443 70.2045C61.2595 69.0758 60.5739 68.2197 59.6875 67.6364C58.8011 67.053 57.7633 66.7614 56.5739 66.7614C55.3845 66.7614 54.3466 67.053 53.4602 67.6364C52.5739 68.2197 51.8845 69.0758 51.392 70.2045C50.9072 71.3333 50.6648 72.7197 50.6648 74.3636C50.6648 76.0076 50.9072 77.3939 51.392 78.5227C51.8845 79.6515 52.5739 80.5076 53.4602 81.0909C54.3466 81.6742 55.3845 81.9659 56.5739 81.9659C57.7633 81.9659 58.8011 81.6742 59.6875 81.0909C60.5739 80.5076 61.2595 79.6515 61.7443 78.5227C62.2367 77.3939 62.483 76.0076 62.483 74.3636ZM71.1165 86V62.7273H80.2983C82.0559 62.7273 83.5559 63.0417 84.7983 63.6705C86.0483 64.2917 86.9991 65.1742 87.6506 66.3182C88.3097 67.4545 88.6392 68.7917 88.6392 70.3295C88.6392 71.875 88.3059 73.2045 87.6392 74.3182C86.9725 75.4242 86.0066 76.2727 84.7415 76.8636C83.4839 77.4545 81.9612 77.75 80.1733 77.75H74.0256V73.7955H79.3778C80.3172 73.7955 81.0975 73.6667 81.7188 73.4091C82.34 73.1515 82.8021 72.7652 83.1051 72.25C83.4157 71.7348 83.571 71.0947 83.571 70.3295C83.571 69.5568 83.4157 68.9053 83.1051 68.375C82.8021 67.8447 82.3362 67.4432 81.7074 67.1705C81.0862 66.8902 80.3021 66.75 79.3551 66.75H76.0369V86H71.1165ZM83.6847 75.4091L89.4688 86H84.0369L78.3778 75.4091H83.6847ZM92.1165 86V62.7273H101.298C103.063 62.7273 104.567 63.0644 105.81 63.7386C107.052 64.4053 107.999 65.3333 108.651 66.5227C109.31 67.7045 109.639 69.0682 109.639 70.6136C109.639 72.1591 109.306 73.5227 108.639 74.7045C107.973 75.8864 107.007 76.8068 105.741 77.4659C104.484 78.125 102.961 78.4545 101.173 78.4545H95.321V74.5114H100.378C101.325 74.5114 102.105 74.3485 102.719 74.0227C103.34 73.6894 103.802 73.2311 104.105 72.6477C104.416 72.0568 104.571 71.3788 104.571 70.6136C104.571 69.8409 104.416 69.1667 104.105 68.5909C103.802 68.0076 103.34 67.5568 102.719 67.2386C102.098 66.9129 101.31 66.75 100.355 66.75H97.0369V86H92.1165ZM134.222 74.3636C134.222 76.9015 133.741 79.0606 132.778 80.8409C131.824 82.6212 130.521 83.9811 128.869 84.9205C127.225 85.8523 125.377 86.3182 123.324 86.3182C121.256 86.3182 119.4 85.8485 117.756 84.9091C116.112 83.9697 114.813 82.6098 113.858 80.8295C112.903 79.0492 112.426 76.8939 112.426 74.3636C112.426 71.8258 112.903 69.6667 113.858 67.8864C114.813 66.1061 116.112 64.75 117.756 63.8182C119.4 62.8788 121.256 62.4091 123.324 62.4091C125.377 62.4091 127.225 62.8788 128.869 63.8182C130.521 64.75 131.824 66.1061 132.778 67.8864C133.741 69.6667 134.222 71.8258 134.222 74.3636ZM129.233 74.3636C129.233 72.7197 128.987 71.3333 128.494 70.2045C128.009 69.0758 127.324 68.2197 126.438 67.6364C125.551 67.053 124.513 66.7614 123.324 66.7614C122.134 66.7614 121.097 67.053 120.21 67.6364C119.324 68.2197 118.634 69.0758 118.142 70.2045C117.657 71.3333 117.415 72.7197 117.415 74.3636C117.415 76.0076 117.657 77.3939 118.142 78.5227C118.634 79.6515 119.324 80.5076 120.21 81.0909C121.097 81.6742 122.134 81.9659 123.324 81.9659C124.513 81.9659 125.551 81.6742 126.438 81.0909C127.324 80.5076 128.009 79.6515 128.494 78.5227C128.987 77.3939 129.233 76.0076 129.233 74.3636ZM137.866 86V62.7273H147.048C148.806 62.7273 150.306 63.0417 151.548 63.6705C152.798 64.2917 153.749 65.1742 154.401 66.3182C155.06 67.4545 155.389 68.7917 155.389 70.3295C155.389 71.875 155.056 73.2045 154.389 74.3182C153.723 75.4242 152.757 76.2727 151.491 76.8636C150.234 77.4545 148.711 77.75 146.923 77.75H140.776V73.7955H146.128C147.067 73.7955 147.848 73.6667 148.469 73.4091C149.09 73.1515 149.552 72.7652 149.855 72.25C150.166 71.7348 150.321 71.0947 150.321 70.3295C150.321 69.5568 150.166 68.9053 149.855 68.375C149.552 67.8447 149.086 67.4432 148.457 67.1705C147.836 66.8902 147.052 66.75 146.105 66.75H142.787V86H137.866ZM150.435 75.4091L156.219 86H150.787L145.128 75.4091H150.435ZM162.878 86H157.605L165.639 62.7273H171.98L180.003 86H174.73L168.901 68.0455H168.719L162.878 86ZM162.548 76.8523H175.003V80.6932H162.548V76.8523ZM179.074 66.7841V62.7273H198.188V66.7841H191.062V86H186.199V66.7841H179.074ZM201.335 86V62.7273H217.017V66.7841H206.256V72.3295H216.21V76.3864H206.256V81.9432H217.062V86H201.335Z" fill="#22C95C"/>
<path d="M26.312 168.185C25.721 168.407 25.4269 168.996 25.499 169.658L28.3041 199.33C28.3791 200.066 28.9672 200.655 29.7802 200.655H71.5545C72.2926 200.655 72.9556 200.066 73.0306 199.33L75.8357 169.658C75.9107 169.068 75.5417 168.479 75.0227 168.185C74.4317 167.892 73.7686 168.039 73.3996 168.479L62.6228 179.447L61.7378 180.33L51.8466 163.25C51.5525 162.807 51.1086 162.514 50.5925 162.514C50.0765 162.514 49.5605 162.807 49.3385 163.25L39.4473 180.333L27.9324 168.553C27.4913 168.035 26.828 167.964 26.312 168.185ZM36.4947 181.438L38.6338 183.647L38.7088 183.721C38.7837 183.796 38.7837 183.796 38.8558 183.868L38.9308 183.943C39.0057 183.943 39.0057 184.018 39.0778 184.018L39.1527 184.092C39.2277 184.092 39.2998 184.167 39.3747 184.167H39.4497H39.7438C39.8908 184.167 39.9657 184.167 40.1128 184.092H40.1877C40.2627 184.092 40.3348 184.018 40.4097 183.946C40.4097 183.946 40.4847 183.946 40.4847 183.871C40.5596 183.796 40.7067 183.724 40.7787 183.65L40.8537 183.575C40.9286 183.5 41.0007 183.428 41.0007 183.353V183.279L50.5952 166.713L59.9675 182.91L60.1146 183.204V183.279C60.1895 183.353 60.1895 183.425 60.2616 183.5C60.2616 183.5 60.2616 183.575 60.3365 183.575C60.4115 183.65 60.4836 183.721 60.6306 183.796H60.7056C60.7805 183.871 60.9275 183.871 60.9996 183.943H61.0746C61.2216 183.943 61.2966 184.018 61.4436 184.018H61.7377H61.8126C61.8876 184.018 61.9596 184.018 62.0346 183.943C62.0346 183.943 62.1096 183.943 62.1096 183.868C62.1845 183.868 62.1845 183.793 62.2566 183.793L62.3315 183.719C62.4065 183.719 62.4065 183.644 62.4786 183.572L72.4421 173.339L70.153 197.636H31.037L28.7479 173.339L36.4947 181.438Z" fill="#22C95C" stroke="white"/>
<path d="M26.3598 167.002C29.3378 167.002 31.7196 164.675 31.7196 161.766C31.7196 158.858 29.3378 156.531 26.3598 156.531C23.3818 156.531 21 158.858 21 161.766C21 164.672 23.3818 167.002 26.3598 167.002ZM26.3598 159.366C27.7005 159.366 28.8172 160.457 28.8172 161.766C28.8172 163.076 27.7005 164.167 26.3598 164.167C25.0191 164.167 23.9024 163.076 23.9024 161.766C23.9024 160.457 25.0191 159.366 26.3598 159.366Z" fill="#22C95C" stroke="white"/>
<path d="M74.7231 156.531C71.7451 156.531 69.3633 158.858 69.3633 161.766C69.3633 164.675 71.7451 167.002 74.7231 167.002C77.7011 167.002 80.0829 164.675 80.0829 161.766C80.0829 158.858 77.7011 156.531 74.7231 156.531ZM74.7231 164.167C73.3824 164.167 72.2656 163.076 72.2656 161.766C72.2656 160.457 73.3824 159.366 74.7231 159.366C76.0638 159.366 77.1805 160.457 77.1805 161.766C77.1805 163.076 76.0638 164.167 74.7231 164.167Z" fill="#22C95C" stroke="white"/>
<path d="M50.5434 161.267C53.5214 161.267 55.9032 158.941 55.9032 156.032C55.9032 153.123 53.5214 150.797 50.5434 150.797C47.5654 150.797 45.1836 153.123 45.1836 156.032C45.1836 158.941 47.5654 161.267 50.5434 161.267ZM50.5434 153.632C51.8841 153.632 53.0008 154.723 53.0008 156.032C53.0008 157.342 51.8841 158.432 50.5434 158.432C49.2027 158.432 48.0859 157.342 48.0859 156.032C48.0859 154.723 49.2027 153.632 50.5434 153.632Z" fill="#22C95C" stroke="white"/>
<path d="M30.2068 204.895C29.3936 204.895 28.7305 205.566 28.7305 206.39C28.7305 207.214 29.3937 207.886 30.2068 207.886H70.8804C71.6935 207.886 72.3567 207.214 72.3567 206.39C72.3567 205.566 71.6935 204.895 70.8804 204.895H30.2068Z" fill="#22C95C" stroke="white"/>
<defs>
<linearGradient id="paint0_linear_1499_663" x1="74.6888" y1="14.3704" x2="74.6888" y2="20" gradientUnits="userSpaceOnUse">
<stop stop-color="white"/>
<stop offset="1" stop-color="#DADADA"/>
</linearGradient>
</defs>
</svg>
