<svg width="55" height="52" viewBox="0 0 55 52" fill="none" xmlns="http://www.w3.org/2000/svg">
<path d="M9.90988 6.2532V0.5H7.40058V6.25258C3.49799 6.85983 0.5 10.2323 0.5 14.3012C0.5 18.37 3.49799 21.7431 7.40058 22.3498V50.686H9.90988V22.3498C13.8112 21.7431 16.8105 18.3706 16.8105 14.3012C16.8105 10.2317 13.8112 6.85983 9.90988 6.2532ZM8.66151 19.9471H8.64896C5.53931 19.944 3.0093 17.4121 3.0093 14.3012C3.0093 11.1884 5.54182 8.65523 8.65523 8.65523C11.7686 8.65523 14.3012 11.1884 14.3012 14.3012C14.3012 17.4121 11.7712 19.944 8.66151 19.9471ZM28.7297 28.835V0.5H26.2203V28.835C22.3178 29.4423 19.3198 32.8154 19.3198 36.8849C19.3198 40.9537 22.3178 44.3262 26.2203 44.9335V50.686H28.7297V44.9335C32.631 44.3262 35.6302 40.9537 35.6302 36.8849C35.6302 32.8154 32.631 29.4423 28.7297 28.835ZM27.475 42.5308C24.3616 42.5308 21.8291 39.9983 21.8291 36.8849C21.8291 33.7708 24.3616 31.2377 27.475 31.2377C30.5884 31.2377 33.1209 33.7708 33.1209 36.8849C33.1209 39.9983 30.5884 42.5308 27.475 42.5308ZM54.45 14.3012C54.45 10.2317 51.4508 6.8592 47.5494 6.25258V0.5H45.0401V6.25258C41.1375 6.85983 38.1395 10.2323 38.1395 14.3012C38.1395 18.37 41.1375 21.7431 45.0401 22.3498V50.686H47.5494V22.3498C51.4508 21.7431 54.45 18.3706 54.45 14.3012ZM46.301 19.9471H46.2885C43.1776 19.944 40.6488 17.4121 40.6488 14.3012C40.6488 11.1884 43.1814 8.65523 46.2948 8.65523C49.4082 8.65523 51.9407 11.1884 51.9407 14.3012C51.9407 17.4121 49.4107 19.944 46.301 19.9471Z" fill="#F7A000" stroke="#F7A000"/>
</svg>
