<svg width="15" height="13" viewBox="0 0 15 13" fill="none" xmlns="http://www.w3.org/2000/svg">
<path d="M13.5002 5.65535C13.238 5.65535 13.0124 5.83436 13.0124 6.0781V12.1717L0.956559 12.1711V1.72304H7.98787C8.25008 1.72304 8.47495 1.54403 8.47495 1.30028C8.47495 1.05654 8.26839 0.877531 7.98714 0.877531H0.487073C0.224871 0.877531 0 1.05654 0 1.30028V12.5772C0 12.8051 0.206552 13 0.487805 13H13.5C13.7623 13 13.9879 12.821 13.9879 12.5772V6.06144C13.9688 5.83358 13.7624 5.65535 13.5002 5.65535ZM14.7753 1.26793L13.5375 0.195191C13.2372 -0.0650638 12.7128 -0.0650638 12.4316 0.195191L11.8126 0.731561L14.1564 2.7462L14.7753 2.20983C15.0749 1.95021 15.0749 1.52755 14.7753 1.26793ZM3.56253 9.8962H3.67533L7.29355 8.69398L13.4065 3.41283L11.0627 1.38161L4.94978 6.66277L3.56253 9.8962Z" fill="white"/>
</svg>
