<svg width="24" height="21" viewBox="0 0 24 21" fill="none" xmlns="http://www.w3.org/2000/svg">
<g clip-path="url(#clip0_1441_336)">
<path fill-rule="evenodd" clip-rule="evenodd" d="M8.18015 3.70325C8.18015 1.65704 9.88907 0 11.9997 0C14.1101 0 15.8191 1.65692 15.8191 3.70325C15.8191 5.43316 14.5945 6.88828 12.9408 7.29438V12.3381L17.3198 14.8393C18.0225 14.0753 19.0413 13.5935 20.1805 13.5935C22.291 13.5935 24 15.2504 24 17.2967C24 19.343 22.2911 21 20.1805 21C18.0699 21 16.3588 19.3407 16.3588 17.2967C16.3588 16.961 16.4065 16.635 16.4943 16.326L11.9974 13.7567L7.50567 16.3211C7.5935 16.6326 7.64119 16.9586 7.64119 17.2967C7.64119 19.3406 5.92977 21 3.82172 21C1.71367 21 0 19.3407 0 17.2967C0 15.2529 1.71142 13.5935 3.82172 13.5935C4.95597 13.5935 5.97731 14.0729 6.67744 14.8368L11.202 12.2528V7.32599C9.47547 6.97077 8.18015 5.4843 8.18015 3.70325Z" fill="#65CA44"/>
</g>
<defs>
<clipPath id="clip0_1441_336">
<rect width="24" height="21" fill="white"/>
</clipPath>
</defs>
</svg>
