<svg width="50" height="50" viewBox="0 0 50 50" fill="none" xmlns="http://www.w3.org/2000/svg">
<g clip-path="url(#clip0_2500_292)">
<rect width="50" height="50" fill="white"/>
<circle cx="25" cy="25" r="24.5" fill="#EBE2FF" stroke="#E0E5F2"/>
<path fill-rule="evenodd" clip-rule="evenodd" d="M11.4865 26.6974L10.3043 26.6086C10.1876 26.5997 10.0846 26.5296 10.0333 26.4247C9.98197 26.3198 9.99051 26.1951 10.0553 26.0981L10.3619 25.6382V24.6974C10.3619 24.606 10.4 24.5185 10.4672 24.4563L10.9194 24.0379C10.927 20.2827 12.3918 17.4104 15.3042 15.4154C15.3289 15.3986 15.3555 15.3852 15.3838 15.3756L15.991 15.1684L16.2506 14.7243C16.3496 14.5674 16.6032 14.4016 16.9953 14.2918C17.6814 14.0997 18.86 14 20.039 14C21.2179 14 22.3965 14.0997 23.0826 14.2918C23.4747 14.4016 23.7283 14.5674 23.8274 14.7243L24.0869 15.1684L24.6941 15.3756C24.7224 15.3852 24.749 15.3986 24.7737 15.4154C27.6861 17.4101 29.1509 20.2827 29.1585 24.0376L29.6108 24.4563C29.6779 24.5185 29.716 24.606 29.716 24.6974V25.6382L30.0226 26.0981C30.0874 26.1951 30.096 26.3198 30.0446 26.4247C29.9933 26.5296 29.8904 26.5997 29.7736 26.6086L28.5914 26.6974C28.6111 26.9349 28.6213 27.175 28.6213 27.4178C28.6213 32.1545 24.7757 36.0001 20.039 36.0001C15.3022 36.0001 11.4566 32.1545 11.4566 27.4178C11.4566 27.175 11.4668 26.9349 11.4865 26.6974ZM38.3589 24.1863H39.2592C39.4411 24.1863 39.5882 24.0389 39.5882 23.8573V20.8989C39.5882 20.7169 39.4411 20.5699 39.2592 20.5699H38.554V16.4707C38.554 16.394 38.527 16.3194 38.478 16.2605L37.0455 14.5388C36.983 14.4635 36.8902 14.4201 36.7925 14.4201H32.9604C32.86 14.4201 32.765 14.4661 32.7028 14.5447L31.3923 16.1986C31.3463 16.2569 31.3213 16.3286 31.3213 16.4029V17.7854C31.3213 17.967 31.4686 18.1144 31.6502 18.1144H35.384V20.5699H31.6502C31.4686 20.5699 31.3213 20.7169 31.3213 20.8989V35.3501C31.3213 35.5317 31.4686 35.6791 31.6502 35.6791H32.5262C32.6008 35.6791 32.6735 35.6534 32.7318 35.6067L34.7534 33.9877C34.8314 33.9255 34.8768 33.8308 34.8768 33.7311V24.1863H35.506V29.0263C35.506 29.1135 35.5409 29.1973 35.6024 29.2588L36.1405 29.797C36.2021 29.8585 36.2859 29.8934 36.3731 29.8934H37.4922C37.5793 29.8934 37.6629 29.8585 37.7247 29.797L38.2625 29.2588C38.3244 29.1973 38.3589 29.1135 38.3589 29.0263V24.1863ZM27.9355 26.7471L25.9411 26.8971C25.9132 26.8994 25.8849 26.8977 25.8572 26.8928L24.5579 26.6543H15.52L14.2207 26.8928C14.193 26.8977 14.1648 26.8994 14.1368 26.8971L12.1424 26.7471C12.124 26.9681 12.1145 27.1918 12.1145 27.4178C12.1145 31.7914 15.6654 35.3423 20.039 35.3423C24.4125 35.3423 27.9634 31.7914 27.9634 27.4178C27.9634 27.1918 27.9539 26.9681 27.9355 26.7471ZM38.9303 21.2278V23.5284H34.5478C34.3663 23.5284 34.2189 23.6758 34.2189 23.8573V33.5732L32.4107 35.0212H31.9791V21.2278H38.9303ZM37.701 24.9234V24.2725H36.1639V28.8901L36.5093 29.2355H37.3557L37.701 28.8901V28.5845H37.1724C36.9909 28.5845 36.8435 28.4372 36.8435 28.2556C36.8435 28.074 36.9909 27.9266 37.1724 27.9266H37.701V27.0829H37.1724C36.9909 27.0829 36.8435 26.9355 36.8435 26.754C36.8435 26.5724 36.9909 26.425 37.1724 26.425H37.701V25.5813H37.1724C36.9909 25.5813 36.8435 25.4339 36.8435 25.2524C36.8435 25.0708 36.9909 24.9234 37.1724 24.9234H37.701ZM29.0582 25.1057V25.7379C29.0582 25.8027 29.0776 25.8662 29.1134 25.9201L29.1631 25.9948L25.9342 26.2379L24.6474 26.0017C24.6277 25.9981 24.6079 25.9964 24.5879 25.9964H15.4901C15.47 25.9964 15.4503 25.9981 15.4305 26.0017L14.1437 26.2379L10.9148 25.9948L10.9645 25.9201C11.0004 25.8662 11.0198 25.8027 11.0198 25.7379V25.1057H29.0582ZM23.5129 15.4901L23.2741 15.0812C23.2613 15.073 23.1846 15.0237 23.1241 14.9987C22.9912 14.9441 22.8182 14.8977 22.6155 14.8569C21.9527 14.7233 20.9958 14.6579 20.039 14.6579C19.0821 14.6579 18.1252 14.7233 17.4624 14.8569C17.2598 14.8977 17.0867 14.9441 16.9538 14.9987C16.8933 15.0237 16.8167 15.073 16.8038 15.0812L16.565 15.4901C16.9992 17.2578 16.9075 19.0311 16.8752 20.8337C16.8723 21.015 16.7223 21.1597 16.5407 21.1567C16.3591 21.1535 16.2144 21.0035 16.2177 20.8219C16.2473 19.1519 16.3387 17.5072 15.9779 15.868C15.8081 15.9259 15.6387 15.9838 15.6387 15.9838C12.9 17.8759 11.5494 20.6091 11.5777 24.1784C11.5783 24.2708 11.5402 24.3593 11.4724 24.4221L11.4448 24.4478H28.6332L28.6055 24.4221C28.5378 24.3593 28.4996 24.2708 28.5003 24.1784C28.5286 20.6091 27.1779 17.8759 24.4389 15.9835L24.1001 15.868C23.7392 17.5072 23.8307 19.1519 23.8603 20.8219C23.8635 21.0035 23.7188 21.1535 23.5372 21.1567C23.3557 21.1597 23.2057 21.015 23.2027 20.8337C23.1705 19.0311 23.0787 17.2578 23.5129 15.4901ZM37.8961 19.0683V16.5897L36.6382 15.0779H33.1196L31.9791 16.5174V17.4565H35.7129C35.8945 17.4565 36.0419 17.6039 36.0419 17.7854V20.5699H37.8961V19.7262H37.1724C36.9909 19.7262 36.8435 19.5785 36.8435 19.3972C36.8435 19.2157 36.9909 19.0683 37.1724 19.0683H37.8961ZM20.9162 20.1048C21.0028 20.191 21.1297 20.2225 21.2462 20.1864C21.3626 20.1505 21.4498 20.0528 21.4722 19.9328L22.0438 16.8812C22.0438 16.8812 22.1156 16.499 21.8952 16.1572C21.758 15.9444 21.51 15.7319 21.0333 15.669C20.1626 15.5539 19.9432 15.5503 19.0446 15.669C18.5679 15.7319 18.3199 15.9444 18.1828 16.1572C17.9624 16.499 18.0341 16.8812 18.0341 16.8812L18.6058 19.9328C18.6281 20.0528 18.7153 20.1505 18.8318 20.1864C18.9482 20.2225 19.0752 20.191 19.1617 20.1048C19.2035 20.063 19.2755 20.0377 19.3587 20.0124C19.5485 19.9545 19.7919 19.9265 20.0357 19.9255C20.2788 19.9249 20.5228 19.9512 20.7143 20.0091C20.7991 20.0347 20.8728 20.0614 20.9162 20.1048ZM19.1719 19.3815L18.6814 16.7634C18.6804 16.7588 18.661 16.6295 18.7357 16.5134C18.7966 16.4193 18.9192 16.349 19.1308 16.321C19.9518 16.2128 20.1518 16.2161 20.9472 16.321C21.1587 16.349 21.2814 16.4193 21.3422 16.5134C21.4152 16.6269 21.3981 16.7529 21.3968 16.7628L20.9064 19.3798L20.9047 19.3795C20.659 19.3051 20.3462 19.267 20.0337 19.268C19.7235 19.2686 19.4143 19.3081 19.1719 19.3815Z" fill="#6524EB"/>
</g>
<defs>
<clipPath id="clip0_2500_292">
<rect width="50" height="50" fill="white"/>
</clipPath>
</defs>
</svg>
