<svg width="18" height="18" viewBox="0 0 18 18" fill="none" xmlns="http://www.w3.org/2000/svg">
<path fill-rule="evenodd" clip-rule="evenodd" d="M9 0C11.4852 0 13.7353 1.00742 15.364 2.63619C16.9926 4.26474 18 6.51485 18 9C18 11.4852 16.9926 13.7353 15.364 15.364C13.7353 16.9926 11.4852 18 9 18C6.51485 18 4.26474 16.9926 2.63597 15.364C1.00742 13.7353 0 11.4852 0 9C0 6.51485 1.00742 4.26474 2.63619 2.63597C4.26474 1.00742 6.51485 0 9 0ZM4.53567 9.42862H8.57138V13.4643C8.57138 13.7011 8.76324 13.893 9 13.893C9.23676 13.893 9.42862 13.7011 9.42862 13.4643V9.42862H13.4643C13.7011 9.42862 13.893 9.23676 13.893 9C13.893 8.76324 13.7011 8.57138 13.4643 8.57138H9.42862V4.53567C9.42862 4.2989 9.23676 4.10704 9 4.10704C8.76324 4.10704 8.57138 4.2989 8.57138 4.53567V8.57138H4.53567C4.2989 8.57138 4.10704 8.76324 4.10704 9C4.10704 9.23676 4.29912 9.42862 4.53567 9.42862Z" fill="#6524EB"/>
</svg>
