<svg width="16" height="16" viewBox="0 0 16 16" fill="none" xmlns="http://www.w3.org/2000/svg">
<path d="M13 0H2.33333C1.04667 0 0 1.04667 0 2.33333V9C0 10.2867 1.04667 11.3333 2.33333 11.3333H3.794L2.03533 14.8507C1.966 14.9893 2.00133 15.1567 2.12 15.2553C2.18133 15.3073 2.25733 15.3333 2.33333 15.3333C2.40333 15.3333 2.474 15.3113 2.53333 15.2667L7.778 11.3333H7.86333C8.01067 11.3333 8.14067 11.2367 8.18267 11.0953C8.72733 9.27267 10.434 8 12.3333 8C13.2213 8 14.0773 8.27067 14.8087 8.782C14.91 8.85333 15.044 8.86267 15.154 8.80467C15.264 8.74733 15.3333 8.63333 15.3333 8.50933V2.33333C15.3333 1.04667 14.2867 0 13 0ZM4.33333 6.66667C3.782 6.66667 3.33333 6.218 3.33333 5.66667C3.33333 5.11533 3.782 4.66667 4.33333 4.66667C4.88467 4.66667 5.33333 5.11533 5.33333 5.66667C5.33333 6.218 4.88467 6.66667 4.33333 6.66667ZM7.66667 6.66667C7.11533 6.66667 6.66667 6.218 6.66667 5.66667C6.66667 5.11533 7.11533 4.66667 7.66667 4.66667C8.218 4.66667 8.66667 5.11533 8.66667 5.66667C8.66667 6.218 8.218 6.66667 7.66667 6.66667ZM11 6.66667C10.4487 6.66667 10 6.218 10 5.66667C10 5.11533 10.4487 4.66667 11 4.66667C11.5513 4.66667 12 5.11533 12 5.66667C12 6.218 11.5513 6.66667 11 6.66667Z" fill="white"/>
<path d="M12.3327 8.66797C10.3107 8.66797 8.66602 10.3126 8.66602 12.3346C8.66602 14.3566 10.3107 16.0013 12.3327 16.0013C14.3547 16.0013 15.9993 14.3566 15.9993 12.3346C15.9993 10.3126 14.3547 8.66797 12.3327 8.66797ZM13.666 12.668H12.666V13.668C12.666 13.852 12.5167 14.0013 12.3327 14.0013C12.1487 14.0013 11.9993 13.852 11.9993 13.668V12.668H10.9993C10.8153 12.668 10.666 12.5186 10.666 12.3346C10.666 12.1506 10.8153 12.0013 10.9993 12.0013H11.9993V11.0013C11.9993 10.8173 12.1487 10.668 12.3327 10.668C12.5167 10.668 12.666 10.8173 12.666 11.0013V12.0013H13.666C13.85 12.0013 13.9993 12.1506 13.9993 12.3346C13.9993 12.5186 13.85 12.668 13.666 12.668Z" fill="white"/>
</svg>
