<svg width="106" height="75" viewBox="0 0 106 75" fill="none" xmlns="http://www.w3.org/2000/svg">
<path d="M50.8158 60.1398C50.6387 60.4466 50.5952 60.7684 50.6854 61.105C50.789 61.4494 50.9942 61.7101 51.301 61.8872L53.2418 63.0078L51.9018 65.3288L49.9609 64.2083C49.4407 63.9079 49.001 63.5296 48.642 63.0733C48.304 62.6113 48.0578 62.1135 47.9035 61.5798C47.7703 61.0404 47.7346 60.4862 47.7963 59.9172C47.8581 59.3481 48.0391 58.8035 48.3395 58.2833L50.0723 55.2819L48.6317 54.4502L49.914 52.2292L51.3546 53.061L53.4455 49.4394L56.1067 50.9758L50.8158 60.1398Z" fill="white"/>
<path d="M44.3567 47.4197C45.077 47.8356 45.6765 48.3684 46.155 49.0182C46.6413 49.6546 46.9792 50.3477 47.1688 51.0975C47.3795 51.8416 47.4372 52.6042 47.3421 53.3851C47.2602 54.1738 47.0114 54.9283 46.5955 55.6486C46.1719 56.3823 45.6352 56.9884 44.9854 57.4669C44.349 57.9532 43.652 58.2978 42.8946 58.5008C42.1581 58.6981 41.3889 58.752 40.5869 58.6624C39.7926 58.5595 39.0353 58.3002 38.315 57.8843C37.3279 57.3144 36.6615 56.574 36.316 55.663L36.3275 55.643L38.3908 54.3798L38.3992 54.4114C38.667 54.7794 38.9876 55.0712 39.3611 55.2868C39.7479 55.5102 40.1571 55.6486 40.5886 55.7021C41.0202 55.7556 41.4358 55.7288 41.8356 55.6217C42.2564 55.5089 42.6403 55.3215 42.9873 55.0594C43.3342 54.7973 43.6232 54.4662 43.8543 54.066C44.0776 53.6791 44.2122 53.2766 44.258 52.8584C44.3115 52.4269 44.278 52.0074 44.1576 51.5999C44.0505 51.2002 43.8658 50.8268 43.6037 50.4798C43.3416 50.1328 43.0172 49.8477 42.6303 49.6244C42.2301 49.3933 41.8143 49.251 41.3828 49.1975C40.9646 49.1517 40.5556 49.1824 40.1558 49.2895C39.756 49.3966 39.3827 49.5812 39.0357 49.8433C38.6964 50.0921 38.4151 50.4099 38.1918 50.7967L33.0164 59.7607L30.3153 58.2012L38.4017 44.195L41.1029 45.7545L40.3174 47.1151C41.623 46.5172 42.9694 46.6187 44.3567 47.4197Z" fill="white"/>
<path d="M21.0247 47.5009L25.8084 45.4073L27.6026 47.9372L24.2862 49.3839L21.0247 47.5009ZM30.8127 46.5358L31.6294 53.6235L28.348 51.729L28.3595 51.709L27.5597 44.6843L26.8208 37.5081L30.0622 39.3795L30.1193 43.9478L34.124 41.7246L37.4055 43.6191L37.3539 43.616L30.8127 46.5358Z" fill="white"/>
<path d="M22.4621 34.7787C23.169 35.1869 23.7551 35.712 24.2203 36.3541C24.6933 36.9828 25.0284 37.6654 25.2257 38.4018C25.423 39.1383 25.4741 39.897 25.3789 40.6779C25.2971 41.4666 25.0482 42.2211 24.6323 42.9414C24.409 43.3283 24.1533 43.6786 23.8654 43.9926L23.8223 44.0211L18.74 41.0868L18.6378 38.3066L22.4394 40.5015C22.5762 39.8334 22.5284 39.1922 22.2961 38.5779C22.0772 37.9713 21.6743 37.4986 21.0874 37.1597C20.7272 36.9518 20.3447 36.8288 19.9398 36.7907C19.535 36.7526 19.1393 36.7909 18.7529 36.9058C18.3875 37.0149 18.038 37.2044 17.7044 37.4742C17.3784 37.7307 17.1 38.059 16.8689 38.4592C16.6918 38.766 16.567 39.1208 16.4945 39.5236C16.4297 39.9131 16.4337 40.3066 16.5064 40.7043C16.5792 41.102 16.7217 41.4867 16.934 41.8583C17.154 42.2165 17.4641 42.5112 17.8643 42.7422C18.2245 42.9501 18.5782 43.0921 18.9256 43.1682C19.294 43.2386 19.7118 43.1774 20.1788 42.9846L20.2103 42.9762L20.2388 43.0193L21.9707 45.3798L21.9075 45.3967C21.0423 45.7864 20.1283 45.9524 19.1657 45.8946C18.2164 45.8445 17.3282 45.5807 16.5012 45.1032C15.7809 44.6874 15.1776 44.1612 14.6913 43.5248C14.2184 42.896 13.8833 42.2134 13.686 41.477C13.4886 40.7406 13.4309 39.978 13.5127 39.1894C13.6079 38.4084 13.8596 37.6644 14.2678 36.9574C14.6836 36.2371 15.206 35.6405 15.8347 35.1676C16.4768 34.7024 17.1661 34.3711 17.9025 34.1738C18.6389 33.9765 19.3976 33.9254 20.1786 34.0206C20.9806 34.1101 21.7417 34.3628 22.4621 34.7787Z" fill="white"/>
<path d="M17.5569 32.6941L17.0858 32.9556L15.0141 34.1873L15.0056 34.1557C14.7118 33.6481 14.3114 33.248 13.8045 32.9554C13.4577 32.7551 13.0962 32.6265 12.7201 32.5694C12.3517 32.499 11.9858 32.5012 11.6225 32.576C11.2669 32.6374 10.9215 32.7582 10.5863 32.9382C10.2645 33.1259 9.98455 33.3644 9.74636 33.6537L6.56953 39.1562L3.84833 37.5851L9.62438 27.5807L12.3456 29.1517L11.5947 30.4523C12.8639 29.8867 14.1788 29.9967 15.5394 30.7823C16.3397 31.2443 17.0056 31.8778 17.5369 32.6825L17.5569 32.6941Z" fill="white"/>
<path d="M54.1553 54.6513L56.6064 56.0664L55.3067 58.3174L54.1553 54.6513Z" fill="white"/>
<path d="M29.761 55.9272L29.955 56.0737C29.8516 56.1767 29.7358 56.2362 29.6078 56.2522C29.4797 56.2681 29.3464 56.2361 29.2079 56.1561C29.0333 56.0554 28.9257 55.9218 28.8849 55.7554C28.8453 55.5888 28.8815 55.4084 28.9935 55.2144C29.1094 55.0137 29.2511 54.8877 29.4184 54.8366C29.5858 54.7854 29.7519 54.8074 29.9167 54.9025C30.0762 54.9946 30.1752 55.1242 30.2136 55.2911C30.252 55.4581 30.2143 55.6401 30.1006 55.8371C30.0937 55.8491 30.0829 55.8669 30.0683 55.8904L29.1785 55.3767C29.1103 55.5121 29.0894 55.6338 29.1159 55.742C29.1423 55.8501 29.2054 55.933 29.305 55.9905C29.3791 56.0333 29.4537 56.0504 29.5286 56.0417C29.6035 56.033 29.681 55.9948 29.761 55.9272ZM29.2857 55.2169L29.952 55.6015C30.001 55.496 30.019 55.406 30.006 55.3316C29.9865 55.2165 29.9255 55.1293 29.8229 55.0701C29.73 55.0165 29.6338 55.0023 29.5342 55.0278C29.4354 55.0536 29.3526 55.1166 29.2857 55.2169Z" fill="white"/>
<path d="M28.6256 55.2013L28.8095 55.342C28.7087 55.4665 28.5908 55.5418 28.456 55.5678C28.3223 55.5935 28.1903 55.5687 28.0599 55.4934C27.8967 55.3992 27.7959 55.2701 27.7577 55.1062C27.7207 54.942 27.7597 54.7603 27.8747 54.561C27.9491 54.4322 28.0355 54.3318 28.134 54.2598C28.2325 54.1879 28.339 54.153 28.4536 54.1552C28.5693 54.1571 28.6785 54.1877 28.7811 54.2469C28.9107 54.3218 28.9976 54.4159 29.042 54.5294C29.0867 54.6421 29.0859 54.7655 29.0395 54.8995L28.8254 54.8163C28.8529 54.7254 28.8544 54.6458 28.8298 54.5777C28.806 54.51 28.7604 54.4567 28.693 54.4178C28.5911 54.359 28.4871 54.3479 28.3811 54.3845C28.2755 54.4204 28.177 54.5174 28.0858 54.6754C27.9932 54.8357 27.9567 54.9699 27.9762 55.078C27.9957 55.1862 28.0548 55.2688 28.1537 55.3258C28.2331 55.3717 28.3134 55.3856 28.3947 55.3676C28.476 55.3496 28.553 55.2942 28.6256 55.2013Z" fill="white"/>
<path d="M27.9224 53.4929L28.0566 53.2603L28.2589 53.3771L28.1246 53.6097L27.9224 53.4929ZM27.1057 54.9074L27.7946 53.7142L27.9968 53.831L27.3079 55.0242L27.1057 54.9074Z" fill="white"/>
<path d="M26.309 54.4475L26.5439 52.9922L26.7574 53.1155L26.601 53.978C26.5842 54.0711 26.5634 54.166 26.5386 54.2625C26.5929 54.21 26.6617 54.1488 26.7449 54.079L27.4304 53.5041L27.6383 53.6241L26.4977 54.5565L26.309 54.4475Z" fill="white"/>
<path d="M25.233 53.8249L25.9219 52.6317L26.1039 52.7368L25.9995 52.9177C26.0948 52.8598 26.1697 52.8287 26.2242 52.8242C26.2795 52.8202 26.3307 52.8318 26.3779 52.859C26.4461 52.8984 26.5028 52.9601 26.5482 53.0442L26.3702 53.1916C26.3376 53.1338 26.2966 53.0907 26.2472 53.0622C26.203 53.0366 26.1555 53.0272 26.1047 53.0338C26.0544 53.0397 26.0081 53.062 25.9659 53.1005C25.9019 53.1594 25.8452 53.2316 25.7959 53.317L25.4353 53.9417L25.233 53.8249Z" fill="white"/>
<path d="M25.0149 53.1874L25.209 53.3339C25.1055 53.4369 24.9898 53.4964 24.8617 53.5124C24.7336 53.5283 24.6003 53.4963 24.4618 53.4163C24.2872 53.3155 24.1796 53.182 24.1388 53.0156C24.0992 52.849 24.1354 52.6686 24.2474 52.4746C24.3633 52.2739 24.505 52.1479 24.6723 52.0967C24.8397 52.0456 25.0058 52.0675 25.1706 52.1627C25.3301 52.2548 25.4291 52.3843 25.4675 52.5513C25.5059 52.7183 25.4682 52.9003 25.3545 53.0973C25.3476 53.1093 25.3368 53.1271 25.3223 53.1506L24.4324 52.6368C24.3642 52.7722 24.3433 52.894 24.3698 53.0022C24.3962 53.1103 24.4593 53.1932 24.5589 53.2507C24.633 53.2935 24.7076 53.3105 24.7825 53.3019C24.8574 53.2932 24.9349 53.255 25.0149 53.1874ZM24.5396 52.477L25.2059 52.8617C25.2549 52.7562 25.2729 52.6662 25.2599 52.5918C25.2404 52.4767 25.1794 52.3895 25.0768 52.3303C24.9839 52.2766 24.8877 52.2625 24.7881 52.2879C24.6893 52.3138 24.6065 52.3768 24.5396 52.477Z" fill="white"/>
<path d="M22.7221 51.6709L22.9381 51.7716C22.9003 51.8596 22.8836 51.9404 22.8881 52.0139C22.8938 52.0871 22.9246 52.1618 22.9805 52.238C23.0368 52.3134 23.1117 52.3782 23.2054 52.4322C23.2885 52.4802 23.369 52.5102 23.447 52.5223C23.5249 52.5343 23.5916 52.5279 23.6469 52.5029C23.7035 52.4776 23.7464 52.4395 23.7759 52.3886C23.8057 52.3369 23.8167 52.2833 23.8088 52.2278C23.8013 52.1716 23.7707 52.1104 23.7169 52.0444C23.6826 52.0017 23.6002 51.9187 23.4697 51.7954C23.3396 51.6713 23.2535 51.5756 23.2114 51.5084C23.1565 51.4218 23.1272 51.3369 23.1232 51.2538C23.1205 51.1703 23.141 51.0907 23.1846 51.0151C23.2326 50.9319 23.301 50.868 23.3897 50.8234C23.4788 50.778 23.5795 50.7627 23.6918 50.7776C23.804 50.7924 23.9156 50.8319 24.0265 50.8959C24.1485 50.9664 24.2446 51.0483 24.3145 51.1416C24.3857 51.2346 24.4243 51.3338 24.4304 51.4392C24.4364 51.5445 24.4134 51.6466 24.3614 51.7454L24.1433 51.6405C24.1922 51.5299 24.1994 51.4292 24.165 51.3384C24.1313 51.248 24.0511 51.1663 23.9245 51.0932C23.7927 51.0171 23.6824 50.9859 23.5936 50.9995C23.506 51.0129 23.4425 51.0536 23.4032 51.1218C23.369 51.1809 23.3623 51.242 23.3829 51.3048C23.4028 51.3672 23.4894 51.4697 23.6429 51.6122C23.7975 51.7544 23.8991 51.8595 23.9477 51.9275C24.018 52.0271 24.0564 52.1241 24.0627 52.2186C24.0695 52.3124 24.0474 52.4035 23.9963 52.4919C23.9457 52.5795 23.8729 52.6478 23.7777 52.6967C23.683 52.7449 23.5759 52.7635 23.4564 52.7524C23.3381 52.7411 23.2202 52.7014 23.1026 52.6336C22.9536 52.5475 22.841 52.4536 22.765 52.3517C22.6897 52.2503 22.6483 52.1395 22.6408 52.0194C22.6344 51.8989 22.6616 51.7827 22.7221 51.6709Z" fill="white"/>
<path d="M21.7755 51.589L21.7016 51.7845C21.6377 51.7636 21.5833 51.7402 21.5384 51.7143C21.465 51.6719 21.4148 51.6274 21.3877 51.5808C21.3607 51.5343 21.3497 51.4875 21.3549 51.4405C21.3605 51.3928 21.3983 51.3083 21.4683 51.1869L21.8647 50.5005L21.7164 50.4148L21.8072 50.2575L21.9555 50.3432L22.1261 50.0477L22.3973 50.0424L22.1566 50.4593L22.36 50.5767L22.2692 50.734L22.0658 50.6166L21.663 51.3143C21.6297 51.372 21.6116 51.411 21.6089 51.4314C21.6068 51.4522 21.6109 51.472 21.621 51.4908C21.6318 51.51 21.6523 51.5283 21.6822 51.5456C21.7047 51.5586 21.7358 51.573 21.7755 51.589Z" fill="white"/>
<path d="M20.2277 50.4603L20.4459 50.5443C20.4108 50.6309 20.4065 50.7103 20.4328 50.7824C20.4598 50.8549 20.5194 50.9178 20.6115 50.971C20.7044 51.0246 20.7841 51.0456 20.8507 51.0341C20.9177 51.0219 20.9659 50.9903 20.9953 50.9393C21.0216 50.8937 21.0226 50.8462 20.998 50.7971C20.9807 50.7631 20.9249 50.7005 20.8308 50.6092C20.7041 50.4861 20.6198 50.3945 20.5776 50.3342C20.5367 50.2736 20.5151 50.2107 20.5128 50.1455C20.5117 50.0799 20.528 50.0179 20.5618 49.9595C20.5925 49.9063 20.6328 49.8642 20.6827 49.8331C20.7338 49.8017 20.789 49.7831 20.8482 49.7773C20.8931 49.7723 20.947 49.7775 21.01 49.7929C21.0742 49.808 21.1374 49.8335 21.1996 49.8693C21.2932 49.9234 21.3674 49.9842 21.4223 50.0519C21.4779 50.1199 21.5091 50.1869 21.516 50.2528C21.5233 50.3179 21.5111 50.3928 21.4793 50.4773L21.266 50.3901C21.2924 50.3234 21.2939 50.2604 21.2704 50.2008C21.2475 50.1417 21.1968 50.0895 21.1182 50.0441C21.0253 49.9904 20.9501 49.9675 20.8927 49.9753C20.8353 49.9831 20.7947 50.0076 20.7709 50.0488C20.7558 50.075 20.7504 50.1034 20.7547 50.1338C20.7587 50.1651 20.7741 50.198 20.8011 50.2325C20.817 50.2517 20.8666 50.3033 20.9499 50.3874C21.0709 50.5082 21.1524 50.5971 21.1943 50.6543C21.2374 50.7111 21.2616 50.7721 21.267 50.8371C21.2724 50.9021 21.2552 50.9691 21.2155 51.038C21.1765 51.1054 21.1199 51.1576 21.0456 51.1946C20.9725 51.2313 20.8894 51.2447 20.7962 51.2349C20.7034 51.2243 20.6102 51.1919 20.5166 51.1379C20.3616 51.0484 20.2618 50.9478 20.2174 50.8363C20.1737 50.7252 20.1771 50.5998 20.2277 50.4603Z" fill="white"/>
<path d="M20.4312 49.1673L20.5654 48.9347L20.7677 49.0515L20.6334 49.284L20.4312 49.1673ZM19.6145 50.5818L20.3034 49.3886L20.5056 49.5054L19.8167 50.6986L19.6145 50.5818Z" fill="white"/>
<path d="M18.3561 49.8549L19.045 48.6617L19.227 48.7668L19.129 48.9364C19.2924 48.8559 19.4568 48.8635 19.6223 48.959C19.6942 49.0006 19.7526 49.0517 19.7974 49.1125C19.8433 49.173 19.8692 49.2329 19.8749 49.2921C19.8807 49.3514 19.8729 49.4133 19.8516 49.4779C19.8374 49.5197 19.8033 49.5874 19.7493 49.681L19.3257 50.4147L19.1235 50.2979L19.5425 49.5721C19.5901 49.4897 19.6177 49.4238 19.6253 49.3742C19.6334 49.3239 19.6241 49.2751 19.5975 49.2278C19.572 49.1802 19.5324 49.1408 19.4784 49.1097C19.3923 49.0599 19.302 49.0442 19.2075 49.0626C19.1138 49.0814 19.0228 49.1672 18.9346 49.32L18.5583 49.9716L18.3561 49.8549Z" fill="white"/>
<path d="M17.3665 48.4884C17.4941 48.2674 17.65 48.1392 17.8343 48.1038C17.9879 48.0746 18.1385 48.1027 18.2861 48.1878C18.4501 48.2826 18.5531 48.4139 18.5949 48.5819C18.6372 48.7491 18.6036 48.9275 18.4942 49.117C18.4055 49.2705 18.3125 49.3781 18.215 49.4396C18.1187 49.5009 18.0123 49.5304 17.8958 49.528C17.7801 49.5261 17.6702 49.4951 17.5661 49.435C17.399 49.3385 17.2947 49.2069 17.2532 49.0401C17.2124 48.8738 17.2502 48.6899 17.3665 48.4884ZM17.5744 48.6084C17.4862 48.7612 17.4533 48.895 17.4759 49.0099C17.4989 49.1241 17.5609 49.2103 17.6621 49.2687C17.7624 49.3266 17.868 49.3367 17.9788 49.2988C18.0895 49.2608 18.1901 49.1636 18.2805 49.0071C18.3657 48.8595 18.3964 48.7284 18.3727 48.6139C18.3501 48.499 18.2891 48.4128 18.1894 48.3553C18.0883 48.2969 17.9826 48.2863 17.8722 48.3234C17.7619 48.3606 17.6626 48.4556 17.5744 48.6084Z" fill="white"/>
<path d="M17.4263 47.4328L17.5605 47.2003L17.7628 47.317L17.6285 47.5496L17.4263 47.4328ZM16.6096 48.8474L17.2985 47.6542L17.5007 47.7709L16.8118 48.9641L16.6096 48.8474Z" fill="white"/>
<path d="M16.5363 48.5642L16.4623 48.7597C16.3985 48.7388 16.3441 48.7154 16.2992 48.6894C16.2257 48.647 16.1755 48.6026 16.1485 48.556C16.1214 48.5094 16.1105 48.4626 16.1156 48.4157C16.1212 48.368 16.159 48.2834 16.2291 48.1621L16.6254 47.4756L16.4771 47.39L16.5679 47.2327L16.7162 47.3183L16.8868 47.0228L17.158 47.0176L16.9174 47.4344L17.1207 47.5518L17.0299 47.7091L16.8265 47.5917L16.4237 48.2894C16.3904 48.3471 16.3724 48.3861 16.3696 48.4065C16.3676 48.4273 16.3716 48.4471 16.3817 48.4659C16.3926 48.4852 16.413 48.5035 16.443 48.5208C16.4654 48.5337 16.4965 48.5482 16.5363 48.5642Z" fill="white"/>
<path d="M14.469 48.2203L15.4219 46.5698L15.6062 46.6762L15.5167 46.8312C15.5951 46.7957 15.6704 46.7787 15.7423 46.7803C15.8148 46.7811 15.8899 46.804 15.9678 46.849C16.0697 46.9078 16.1444 46.9859 16.1921 47.0834C16.2397 47.1808 16.2557 47.2889 16.24 47.4077C16.2248 47.5257 16.1843 47.6417 16.1186 47.7555C16.0481 47.8776 15.9624 47.9749 15.8616 48.0476C15.7619 48.1198 15.655 48.158 15.5408 48.162C15.4279 48.1657 15.3253 48.1409 15.2332 48.0877C15.1658 48.0488 15.1133 47.9995 15.0758 47.9399C15.0391 47.8808 15.016 47.8195 15.0066 47.7562L14.6713 48.3371L14.469 48.2203ZM15.2567 47.2789C15.1681 47.4324 15.1336 47.5639 15.1534 47.6732C15.1732 47.7825 15.2273 47.8626 15.3157 47.9137C15.4056 47.9655 15.5042 47.972 15.6115 47.9332C15.7201 47.8939 15.8204 47.7946 15.9125 47.635C16.0003 47.483 16.0346 47.351 16.0153 47.239C15.9968 47.1274 15.9441 47.0466 15.8572 46.9964C15.7711 46.9467 15.6714 46.943 15.558 46.9854C15.4458 47.0275 15.3454 47.1253 15.2567 47.2789Z" fill="white"/>
<path d="M14.5139 47.1247L14.708 47.2712C14.6045 47.3743 14.4888 47.4338 14.3607 47.4498C14.2327 47.4657 14.0994 47.4337 13.9608 47.3537C13.7863 47.2529 13.6786 47.1194 13.6378 46.953C13.5982 46.7863 13.6344 46.606 13.7465 46.412C13.8623 46.2113 14.004 46.0853 14.1713 46.0341C14.3387 45.9829 14.5048 46.0049 14.6696 46.1001C14.8291 46.1922 14.9281 46.3217 14.9665 46.4887C15.0049 46.6557 14.9673 46.8377 14.8535 47.0347C14.8466 47.0467 14.8359 47.0644 14.8213 47.088L13.9314 46.5742C13.8632 46.7096 13.8424 46.8314 13.8688 46.9396C13.8953 47.0477 13.9583 47.1305 14.0579 47.188C14.1321 47.2309 14.2066 47.2479 14.2815 47.2392C14.3564 47.2306 14.4339 47.1924 14.5139 47.1247ZM14.0387 46.4144L14.7049 46.7991C14.7539 46.6935 14.7719 46.6036 14.7589 46.5291C14.7395 46.4141 14.6784 46.3269 14.5758 46.2676C14.4829 46.214 14.3867 46.1999 14.2872 46.2253C14.1884 46.2512 14.1055 46.3142 14.0387 46.4144Z" fill="white"/>
<path d="M13.3795 46.3989L13.5634 46.5395C13.4626 46.6641 13.3447 46.7393 13.2099 46.7653C13.0762 46.791 12.9442 46.7662 12.8138 46.691C12.6506 46.5967 12.5498 46.4676 12.5116 46.3038C12.4746 46.1396 12.5136 45.9579 12.6286 45.7586C12.703 45.6298 12.7894 45.5294 12.8879 45.4574C12.9864 45.3854 13.0929 45.3506 13.2075 45.3528C13.3232 45.3547 13.4324 45.3853 13.535 45.4445C13.6646 45.5193 13.7515 45.6135 13.7959 45.727C13.8407 45.8397 13.8398 45.9631 13.7934 46.0971L13.5793 46.0139C13.6068 45.9229 13.6083 45.8434 13.5837 45.7753C13.5599 45.7076 13.5143 45.6543 13.4469 45.6153C13.345 45.5565 13.241 45.5454 13.135 45.5821C13.0294 45.618 12.9309 45.715 12.8397 45.873C12.7472 46.0333 12.7106 46.1675 12.7301 46.2756C12.7496 46.3837 12.8087 46.4663 12.9076 46.5234C12.987 46.5693 13.0673 46.5832 13.1486 46.5652C13.2299 46.5472 13.3069 46.4918 13.3795 46.3989Z" fill="white"/>
<path d="M12.1301 45.7474L12.3242 45.8939C12.2207 45.997 12.105 46.0565 11.9769 46.0724C11.8489 46.0884 11.7156 46.0564 11.577 45.9764C11.4025 45.8756 11.2948 45.742 11.254 45.5757C11.2145 45.409 11.2507 45.2287 11.3627 45.0347C11.4786 44.8339 11.6202 44.708 11.7876 44.6568C11.9549 44.6056 12.121 44.6276 12.2858 44.7227C12.4453 44.8149 12.5443 44.9444 12.5827 45.1114C12.6211 45.2784 12.5835 45.4604 12.4697 45.6574C12.4628 45.6694 12.4521 45.6871 12.4375 45.7107L11.5476 45.1969C11.4795 45.3323 11.4586 45.4541 11.485 45.5622C11.5115 45.6704 11.5745 45.7532 11.6741 45.8107C11.7483 45.8535 11.8228 45.8706 11.8977 45.8619C11.9727 45.8533 12.0501 45.8151 12.1301 45.7474ZM11.6549 45.0371L12.3211 45.4218C12.3701 45.3162 12.3881 45.2262 12.3751 45.1518C12.3557 45.0367 12.2947 44.9496 12.192 44.8903C12.0992 44.8367 12.0029 44.8226 11.9034 44.848C11.8046 44.8739 11.7217 44.9369 11.6549 45.0371Z" fill="white"/>
<path d="M9.47873 44.7302L10.4297 43.0831L11.16 43.5047C11.3068 43.5895 11.4098 43.6689 11.4689 43.743C11.5284 43.8163 11.5594 43.9036 11.5618 44.0049C11.5643 44.1061 11.5393 44.2021 11.487 44.2927C11.4195 44.4096 11.3249 44.4862 11.2029 44.5227C11.081 44.5592 10.9347 44.5427 10.7642 44.4731C10.8058 44.5341 10.8339 44.5868 10.8483 44.631C10.8782 44.7262 10.8963 44.8341 10.9027 44.9546L10.9303 45.5683L10.6562 45.41L10.6361 44.9415C10.6295 44.8058 10.6207 44.6999 10.6098 44.6237C10.5989 44.5475 10.583 44.4894 10.5622 44.4494C10.5421 44.4098 10.5175 44.3762 10.4886 44.3485C10.4669 44.329 10.428 44.303 10.3718 44.2706L10.119 44.1246L9.69669 44.856L9.47873 44.7302ZM10.228 43.9358L10.6965 44.2063C10.7961 44.2639 10.8798 44.2987 10.9477 44.3109C11.016 44.3224 11.0777 44.3141 11.1329 44.286C11.1884 44.2572 11.2316 44.2162 11.2623 44.163C11.3073 44.0851 11.3158 44.0046 11.2878 43.9216C11.2606 43.839 11.186 43.7624 11.0639 43.6919L10.5426 43.3909L10.228 43.9358Z" fill="white"/>
<path d="M8.27853 44.0371L9.22949 42.39L9.44746 42.5159L8.4965 44.163L8.27853 44.0371Z" fill="white"/>
<path d="M6.54806 43.0385L8.13158 41.7566L8.3664 41.8921L8.08956 43.9285L7.84126 43.7851L7.93715 43.1753L7.24842 42.7777L6.77951 43.1721L6.54806 43.0385ZM7.41382 42.6365L7.97222 42.9589L8.06369 42.4035C8.09126 42.2346 8.11804 42.0983 8.14404 41.9945C8.06209 42.088 7.97196 42.1757 7.87365 42.2578L7.41382 42.6365Z" fill="white"/>
<path d="M5.99536 42.2062L6.18942 42.3527C6.08597 42.4557 5.97022 42.5152 5.84217 42.5312C5.71411 42.5471 5.5808 42.5151 5.44223 42.4351C5.26771 42.3343 5.16006 42.2008 5.11928 42.0344C5.07969 41.8678 5.11589 41.6874 5.2279 41.4934C5.34379 41.2927 5.48543 41.1667 5.65279 41.1155C5.82016 41.0644 5.98624 41.0863 6.15103 41.1815C6.31057 41.2736 6.40955 41.4031 6.44796 41.5701C6.48637 41.7371 6.44871 41.9191 6.33498 42.1161C6.32806 42.1281 6.31731 42.1459 6.30272 42.1694L5.41287 41.6556C5.34468 41.791 5.32381 41.9128 5.35026 42.021C5.3767 42.1291 5.43974 42.212 5.53936 42.2695C5.61351 42.3123 5.68805 42.3293 5.76297 42.3207C5.83789 42.312 5.91535 42.2738 5.99536 42.2062ZM5.52011 41.4958L6.18637 41.8805C6.23533 41.775 6.25333 41.685 6.24036 41.6106C6.22092 41.4955 6.15989 41.4083 6.05727 41.3491C5.96439 41.2954 5.86817 41.2813 5.76861 41.3067C5.6698 41.3326 5.58697 41.3956 5.52011 41.4958Z" fill="white"/>
<path d="M3.69845 41.3931L4.64941 39.746L4.85165 39.8627L4.51045 40.4537C4.66796 40.3988 4.81863 40.4129 4.96244 40.496C5.05083 40.547 5.11744 40.6089 5.16228 40.6817C5.20755 40.7538 5.22631 40.8286 5.21857 40.906C5.21157 40.9838 5.17434 41.0812 5.10688 41.198L4.67032 41.9542L4.46808 41.8374L4.90464 41.0813C4.96302 40.9802 4.9833 40.894 4.96549 40.8228C4.94886 40.7513 4.90047 40.6924 4.82032 40.6461C4.7604 40.6115 4.69477 40.5946 4.62343 40.5953C4.55326 40.5958 4.49159 40.6161 4.43842 40.6563C4.38524 40.6965 4.33163 40.7634 4.27757 40.8571L3.90069 41.5098L3.69845 41.3931Z" fill="white"/>
<path d="M2.7587 40.8507L3.59744 39.3979L3.05477 39.0846L3.16699 38.8903L4.47255 39.644L4.36033 39.8384L3.81541 39.5238L2.97667 40.9765L2.7587 40.8507Z" fill="white"/>
<rect x="57.1338" y="58.6569" width="9.15418" height="8.45567" rx="4.22783" transform="rotate(30 57.1338 58.6569)" fill="#6524EB"/>
<path d="M61.832 66.0885C61.7733 66.19 61.701 66.3528 61.6282 66.4414C59.4707 68.8516 56.4088 67.739 56.2115 67.4224C56.1927 67.3922 56.8876 66.9095 56.9031 66.6633C55.9394 66.1069 55.644 63.8913 56.1456 63.0226C56.8624 61.7809 58.6715 61.3191 60.2164 62.2111C61.7614 63.1031 62.5488 64.8468 61.832 66.0885Z" fill="white"/>
<path d="M61.7128 66.1455C62.4297 64.9038 61.8126 63.2054 60.2676 62.3134C58.7227 61.4215 56.8891 61.7049 56.1722 62.9466L56.1556 62.9758C55.5801 64.01 56.0293 65.7413 57.0592 66.678C57.1067 66.7212 56.4532 67.3813 56.4532 67.3813L56.8746 67.4979C56.8746 67.4979 59.5159 68.5342 61.3946 66.5655C61.5074 66.4473 61.6098 66.318 61.6958 66.1744L61.7128 66.1455ZM62.0385 66.3336C61.9412 66.5021 61.8221 66.6498 61.6993 66.7904C59.5338 69.2684 55.7588 67.6138 55.7588 67.6138C55.7588 67.6138 56.6258 66.7347 56.5737 66.6726C55.6622 65.5853 55.1948 64.0126 55.9007 62.7899C56.7344 61.3459 58.7879 61.0971 60.4244 62.042C62.0609 62.9868 62.8722 64.8896 62.0385 66.3336Z" fill="#6524EB"/>
<path d="M55.6907 67.0993C56.5546 67.5545 57.4945 67.9191 58.2505 67.964C60.0741 68.0724 60.9515 67.4525 61.631 66.5734L57.0649 65.9995L55.6907 67.0993Z" fill="white"/>
<ellipse cx="59.5148" cy="65.2757" rx="2.41373" ry="2.74288" transform="rotate(30 59.5148 65.2757)" fill="white"/>
<ellipse cx="58.873" cy="64.7985" rx="3.25359" ry="2.83081" transform="rotate(30 58.873 64.7985)" fill="white"/>
<rect x="57.3867" y="62.317" width="4.00307" height="2.06099" rx="1.03049" transform="rotate(30 57.3867 62.317)" fill="#6524EB"/>
<rect x="57.5762" y="63.0208" width="0.515247" height="1.03049" rx="0.257624" transform="rotate(30 57.5762 63.0208)" fill="white"/>
<rect x="58.2959" y="63.4368" width="0.515247" height="1.03049" rx="0.257624" transform="rotate(30 58.2959 63.4368)" fill="white"/>
<path d="M61.4895 61.1667C61.3381 61.4291 61.0086 61.5225 60.7538 61.3753C60.4989 61.2281 60.415 60.8962 60.5665 60.6338C60.718 60.3714 61.0474 60.278 61.3023 60.4251C61.5572 60.5723 61.641 60.9043 61.4895 61.1667Z" fill="white"/>
<path d="M61.4747 61.1767C61.6176 60.9291 61.5364 60.6136 61.2939 60.4652L61.2822 60.4583C61.0307 60.3131 60.709 60.3993 60.5638 60.6508L60.5572 60.6626C60.4235 60.9084 60.506 61.2162 60.7446 61.3622L60.7563 61.3692C61.0039 61.5121 61.3194 61.4308 61.4678 61.1883L61.4747 61.1767ZM61.6979 61.3056C61.4815 61.6804 61.0023 61.8088 60.6274 61.5924C60.2526 61.376 60.1242 60.8967 60.3406 60.5219C60.557 60.1471 61.0363 60.0186 61.4111 60.235C61.7859 60.4515 61.9144 60.9308 61.6979 61.3056Z" fill="#6524EB"/>
<path d="M60.9448 61.4857L60.519 62.4706L59.8675 62.0945L60.5496 61.2576L60.9448 61.4857ZM60.6064 61.49L60.1455 62.0554L60.4215 62.2148L60.7092 61.5493L60.6064 61.49Z" fill="#6524EB"/>
<path d="M60.6519 61.4251L60.7567 61.4856L60.3678 62.4193L59.9877 62.1999L60.6519 61.4251Z" fill="white"/>
<path d="M17.6404 19.4616L16.0324 22.2467L15.0296 21.6677L19.3286 14.2216L21.5266 15.4906C21.9977 15.7626 22.3744 16.0541 22.6568 16.3649C22.9447 16.6743 23.145 16.9954 23.2576 17.3284C23.3702 17.6613 23.4 18.0018 23.3468 18.3498C23.2971 18.6999 23.1713 19.0498 22.9693 19.3997C22.7693 19.7461 22.5257 20.0281 22.2384 20.2456C21.9512 20.4631 21.6298 20.6078 21.2742 20.6797C20.9221 20.7535 20.5389 20.7493 20.1245 20.6671C19.7121 20.5814 19.2824 20.4096 18.8356 20.1516L17.6404 19.4616ZM18.1024 18.6614L19.2976 19.3514C19.5851 19.5174 19.86 19.6253 20.1222 19.6751C20.3879 19.7268 20.6342 19.7282 20.8612 19.6791C21.0901 19.6265 21.2977 19.527 21.4839 19.3805C21.6701 19.2339 21.8292 19.0463 21.9612 18.8177C22.2352 18.3431 22.302 17.8875 22.1616 17.4507C22.0246 17.016 21.6599 16.6276 21.0676 16.2856L19.8724 15.5956L18.1024 18.6614ZM26.1985 20.987C26.583 21.209 26.8924 21.473 27.1267 21.7792C27.3645 22.0874 27.5227 22.4212 27.6015 22.7808C27.6837 23.1424 27.685 23.5242 27.6053 23.9262C27.5311 24.3267 27.375 24.7331 27.137 25.1453C26.897 25.561 26.6221 25.9012 26.3123 26.1657C26.006 26.4323 25.6757 26.6203 25.3215 26.7299C24.9707 26.8414 24.6025 26.8713 24.2167 26.8195C23.8364 26.7662 23.454 26.6285 23.0695 26.4065C22.6849 26.1845 22.3728 25.9212 22.133 25.6165C21.8987 25.3103 21.7405 24.9764 21.6582 24.6149C21.576 24.2533 21.572 23.8723 21.6462 23.4717C21.7204 23.0712 21.8775 22.663 22.1175 22.2473C22.3555 21.8351 22.6294 21.4967 22.9392 21.2322C23.251 20.9642 23.584 20.7754 23.9382 20.6658C24.2925 20.5562 24.6607 20.5264 25.043 20.5762C25.4288 20.628 25.8139 20.765 26.1985 20.987ZM23.4865 25.6843C24.0061 25.9843 24.4941 26.0351 24.9504 25.8367C25.4087 25.6348 25.8179 25.2221 26.1779 24.5985C26.5399 23.9715 26.6937 23.4091 26.6394 22.9112C26.5851 22.4133 26.2981 22.0144 25.7785 21.7144C25.5152 21.5624 25.2606 21.4754 25.0146 21.4535C24.7686 21.4316 24.5308 21.4675 24.3011 21.5612C24.075 21.657 23.857 21.8105 23.6471 22.022C23.4428 22.2319 23.2506 22.4928 23.0706 22.8045C22.8906 23.1163 22.7608 23.4132 22.6811 23.6951C22.605 23.9791 22.582 24.2429 22.6121 24.4867C22.6478 24.7289 22.7366 24.9511 22.8786 25.1532C23.0206 25.3552 23.2232 25.5323 23.4865 25.6843ZM29.1088 22.7781L29.8362 23.1981C29.9125 23.2421 29.9638 23.2971 29.9903 23.3632C30.0168 23.4293 30.0237 23.4934 30.011 23.5553L29.0631 27.5252C29.0188 27.6659 28.9748 27.8022 28.931 27.934C28.8893 28.0623 28.8431 28.1903 28.7924 28.3181C28.8881 28.2163 28.9863 28.1183 29.0869 28.024C29.1896 27.9262 29.2959 27.8259 29.406 27.7232L32.486 24.9565C32.5333 24.9146 32.5878 24.8883 32.6493 24.8776C32.7144 24.869 32.7798 24.8837 32.8456 24.9217L33.2457 25.1527C33.315 25.1927 33.3622 25.243 33.3872 25.3036C33.4122 25.3643 33.4184 25.4256 33.4057 25.4875L32.5237 29.5232C32.4918 29.6665 32.4557 29.805 32.4154 29.9388C32.3786 30.0745 32.3411 30.2076 32.3028 30.3379C32.3861 30.2336 32.4776 30.1271 32.5773 30.0184C32.677 29.9097 32.7735 29.8106 32.8667 29.7212L35.8515 26.9273C35.9008 26.8819 35.9597 26.8559 36.0282 26.8492C36.0987 26.8391 36.1669 26.8531 36.2327 26.8911L36.929 27.2931L32.1857 31.5728L31.453 31.1498C31.3629 31.0978 31.3346 31.0029 31.3679 30.8651L32.265 26.6233C32.2833 26.5277 32.3068 26.435 32.3354 26.3453C32.3661 26.2522 32.3958 26.1608 32.4245 26.0711C32.3612 26.1408 32.2968 26.2122 32.2315 26.2853C32.1662 26.3585 32.0967 26.4269 32.023 26.4905L28.7854 29.3741C28.6793 29.4699 28.5743 29.4878 28.4704 29.4278L27.7741 29.0258L29.1088 22.7781ZM39.8829 28.8877C40.1982 29.0697 40.4582 29.2914 40.6629 29.5528C40.8696 29.8107 41.012 30.0961 41.09 30.409C41.17 30.7185 41.1787 31.0514 41.116 31.4079C41.0589 31.7629 40.9223 32.1274 40.7063 32.5015C40.6223 32.647 40.5507 32.735 40.4916 32.7655C40.4324 32.796 40.3595 32.7863 40.2729 32.7363L36.7707 30.7143C36.5856 31.0508 36.4636 31.3661 36.4048 31.66C36.3459 31.954 36.3412 32.2261 36.3907 32.4764C36.4422 32.7232 36.5444 32.9462 36.6973 33.1453C36.8523 33.341 37.0544 33.5108 37.3038 33.6548C37.5359 33.7888 37.7501 33.8778 37.9464 33.9219C38.1481 33.9644 38.3276 33.9896 38.4849 33.9972C38.6421 34.0048 38.7756 34.0057 38.8853 33.9997C39.0004 33.9923 39.0874 34.0056 39.1463 34.0396C39.2225 34.0836 39.2644 34.147 39.272 34.2299L39.3368 34.7177C39.1425 34.7902 38.9356 34.8325 38.7163 34.8444C38.4989 34.8529 38.2795 34.837 38.0579 34.7968C37.8397 34.7586 37.6247 34.6991 37.4127 34.6183C37.1987 34.541 36.9964 34.4473 36.8059 34.3373C36.4422 34.1273 36.1412 33.8726 35.9028 33.5734C35.67 33.2727 35.509 32.9396 35.4198 32.574C35.3361 32.207 35.3329 31.8125 35.4102 31.3907C35.4875 30.9688 35.6572 30.531 35.9192 30.0772C36.1312 29.71 36.3846 29.399 36.6794 29.1443C36.9777 28.8916 37.2996 28.7102 37.6449 28.6001C37.9922 28.4866 38.3563 28.452 38.7371 28.4963C39.1199 28.5372 39.5019 28.6677 39.8829 28.8877ZM39.5107 29.5804C39.0639 29.3224 38.6372 29.2493 38.2309 29.3611C37.8266 29.4694 37.4612 29.7342 37.1349 30.1555L39.9979 31.8085C40.1219 31.5937 40.2055 31.381 40.2486 31.1703C40.2937 30.9562 40.2961 30.752 40.2558 30.5579C40.2175 30.3602 40.1352 30.1788 40.0089 30.0135C39.8881 29.8468 39.722 29.7024 39.5107 29.5804ZM40.1622 36.178L43.2012 30.9143L43.7312 31.2203C43.8316 31.2783 43.8899 31.3374 43.906 31.3975C43.9221 31.4576 43.9101 31.5384 43.8699 31.6399L43.4583 32.4969C43.8504 32.2337 44.2371 32.0759 44.6184 32.0235C45.0051 31.9697 45.3769 32.0458 45.7337 32.2518C45.8792 32.3358 46.0008 32.4291 46.0986 32.5317C46.1984 32.6309 46.2815 32.7389 46.348 32.8558L45.8295 33.4779C45.7552 33.5505 45.6765 33.5628 45.5934 33.5148C45.5449 33.4868 45.4794 33.4282 45.397 33.3391C45.3165 33.2464 45.1862 33.1481 45.0061 33.0441C44.6839 32.8581 44.3597 32.7956 44.0335 32.8567C43.7107 32.9198 43.3736 33.0877 43.0221 33.3605L41.0871 36.712L40.1622 36.178ZM49.5242 34.4541C49.8395 34.6361 50.0995 34.8578 50.3042 35.1192C50.5109 35.3771 50.6533 35.6625 50.7313 35.9754C50.8113 36.2849 50.82 36.6178 50.7573 36.9743C50.7002 37.3293 50.5636 37.6938 50.3476 38.0679C50.2636 38.2134 50.192 38.3014 50.1329 38.3319C50.0737 38.3624 50.0008 38.3527 49.9142 38.3027L46.412 36.2807C46.2269 36.6172 46.1049 36.9325 46.0461 37.2264C45.9872 37.5204 45.9825 37.7925 46.032 38.0428C46.0835 38.2896 46.1857 38.5126 46.3386 38.7117C46.4936 38.9074 46.6957 39.0772 46.9451 39.2212C47.1772 39.3552 47.3914 39.4442 47.5877 39.4883C47.7894 39.5308 47.9689 39.556 48.1262 39.5636C48.2834 39.5713 48.4169 39.5721 48.5266 39.5661C48.6417 39.5587 48.7287 39.572 48.7876 39.606C48.8638 39.65 48.9057 39.7134 48.9133 39.7963L48.9781 40.2841C48.7838 40.3566 48.5769 40.3989 48.3576 40.4108C48.1402 40.4193 47.9208 40.4034 47.6992 40.3632C47.481 40.325 47.266 40.2655 47.054 40.1847C46.84 40.1074 46.6377 40.0137 46.4472 39.9037C46.0835 39.6937 45.7824 39.4391 45.5441 39.1398C45.3113 38.8391 45.1503 38.506 45.0611 38.1404C44.9774 37.7734 44.9742 37.3789 45.0515 36.9571C45.1288 36.5352 45.2985 36.0974 45.5605 35.6436C45.7725 35.2764 46.0259 34.9654 46.3207 34.7107C46.619 34.458 46.9409 34.2766 47.2862 34.1665C47.6335 34.053 47.9976 34.0184 48.3784 34.0627C48.7612 34.1036 49.1432 34.2341 49.5242 34.4541ZM49.152 35.1468C48.7052 34.8888 48.2785 34.8157 47.8722 34.9275C47.4679 35.0358 47.1025 35.3006 46.7762 35.7219L49.6392 37.3749C49.7632 37.1601 49.8468 36.9474 49.8899 36.7367C49.935 36.5226 49.9374 36.3185 49.8971 36.1243C49.8588 35.9266 49.7765 35.7452 49.6502 35.5799C49.5294 35.4132 49.3633 35.2688 49.152 35.1468ZM53.5083 43.8834C53.3767 43.8074 53.3305 43.6953 53.3699 43.5472L53.6558 42.86C53.2726 43.0037 52.8875 43.0747 52.5005 43.0729C52.119 43.0698 51.7412 42.9602 51.3671 42.7442C51.0657 42.5702 50.825 42.355 50.6451 42.0987C50.4671 41.8389 50.3565 41.5464 50.3133 41.2213C50.2701 40.8961 50.2988 40.5385 50.3992 40.1485C50.4997 39.7585 50.6759 39.3452 50.9279 38.9088C51.1519 38.5208 51.4119 38.1905 51.7078 37.918C52.0057 37.6419 52.3227 37.4369 52.6587 37.303C52.9981 37.171 53.3482 37.1168 53.7088 37.1402C54.0713 37.1602 54.431 37.2732 54.7878 37.4792C55.11 37.6652 55.3534 37.8796 55.518 38.1225C55.6847 38.3618 55.801 38.6323 55.8672 38.9337L57.5532 36.0135L58.4781 36.5475L54.0591 44.2014L53.5083 43.8834ZM52.1056 42.1729C52.407 42.3469 52.7103 42.4296 53.0154 42.4211C53.3241 42.4145 53.6467 42.3398 53.9832 42.1969L55.4532 39.6508C55.4154 39.3242 55.3204 39.0568 55.168 38.8487C55.0211 38.6392 54.8246 38.4634 54.5787 38.3214C54.0868 38.0374 53.6082 37.9944 53.1429 38.1923C52.6777 38.3901 52.258 38.813 51.884 39.4608C51.686 39.8037 51.5455 40.1151 51.4624 40.3951C51.3813 40.6716 51.3519 40.9225 51.3742 41.1479C51.3985 41.3697 51.4728 41.5651 51.5971 41.7338C51.7213 41.9025 51.8909 42.0489 52.1056 42.1729ZM57.6492 46.2741L62.0682 38.6202L62.9983 39.1572L61.1803 42.3061C61.5445 42.1792 61.9109 42.1205 62.2795 42.1301C62.6536 42.1382 63.0225 42.2473 63.3862 42.4573C63.691 42.6333 63.9334 42.8495 64.1134 43.1058C64.2933 43.3621 64.4039 43.6546 64.4451 43.9832C64.4883 44.3084 64.4597 44.6659 64.3592 45.056C64.2607 45.4425 64.0855 45.854 63.8335 46.2905C63.6095 46.6785 63.3486 47.0105 63.0506 47.2865C62.7547 47.5591 62.437 47.7613 62.0976 47.8933C61.7636 48.0237 61.4135 48.078 61.0475 48.056C60.6869 48.0326 60.3299 47.9189 59.9766 47.7149C59.6371 47.5189 59.3859 47.2861 59.2228 47.0164C59.0633 46.7488 58.9632 46.4462 58.9225 46.1086L58.5997 46.5597C58.496 46.6753 58.3783 46.6951 58.2467 46.6191L57.6492 46.2741ZM62.6588 43.0211C62.3574 42.8471 62.0524 42.7634 61.7438 42.77C61.4386 42.7786 61.1178 42.8543 60.7813 42.9972L59.3113 45.5433C59.3455 45.8679 59.4361 46.135 59.5831 46.3445C59.7334 46.556 59.9333 46.7338 60.1828 46.8778C60.6747 47.1618 61.1532 47.2049 61.6185 47.007C62.0838 46.8091 62.5034 46.3863 62.8774 45.7385C63.0754 45.3956 63.2142 45.0831 63.2939 44.8012C63.377 44.5212 63.4064 44.2703 63.3821 44.0484C63.3598 43.8231 63.2865 43.626 63.1622 43.4573C63.0379 43.2885 62.8701 43.1431 62.6588 43.0211ZM63.9374 51.9762C63.8662 52.0275 63.7944 52.0599 63.7219 52.0735C63.6528 52.089 63.5698 52.0688 63.4728 52.0128L62.7869 51.6168L64.9542 50.083L65.6442 43.8718L66.4444 44.3338C66.5241 44.3798 66.5745 44.4366 66.5955 44.5042C66.6185 44.5683 66.6264 44.6306 66.6192 44.6911L66.1134 48.8192C66.1006 48.9134 66.0825 49.0046 66.0593 49.0929C66.0396 49.1831 66.0154 49.273 65.9867 49.3627C66.0569 49.297 66.1262 49.2331 66.1944 49.1709C66.2627 49.1086 66.3354 49.0467 66.4126 48.985L69.6901 46.4641C69.7429 46.4207 69.8036 46.3956 69.8721 46.389C69.946 46.3809 70.0125 46.3938 70.0713 46.4278L70.8092 46.8538L63.9374 51.9762ZM73.6648 51.3777L71.8708 54.485L70.8679 53.906L75.1669 46.4599L77.2714 47.6749C77.7425 47.9469 78.1215 48.2304 78.4085 48.5254C78.6974 48.8169 78.9007 49.1168 79.0184 49.4249C79.1396 49.735 79.1799 50.0493 79.1393 50.3676C79.1006 50.6825 78.9903 50.9975 78.8083 51.3128C78.6563 51.5761 78.4728 51.798 78.2576 51.9786C78.0425 52.1593 77.8023 52.2954 77.5369 52.387C77.277 52.4771 76.9958 52.5203 76.6931 52.5164C76.394 52.5146 76.0816 52.4636 75.7561 52.3634C75.8388 52.5082 75.8887 52.6778 75.9057 52.8724L76.3706 57.083L75.4769 56.567C75.2933 56.461 75.1992 56.312 75.1946 56.12L74.7976 52.3435C74.7867 52.2264 74.7567 52.1305 74.7074 52.0559C74.6601 51.9777 74.5672 51.8987 74.4286 51.8187L73.6648 51.3777ZM74.0878 50.645L75.1426 51.254C75.437 51.424 75.7151 51.5384 75.9768 51.5971C76.244 51.6544 76.4891 51.6619 76.712 51.6197C76.9404 51.5761 77.1447 51.4862 77.325 51.3501C77.5052 51.214 77.6583 51.0368 77.7843 50.8185C78.0403 50.3751 78.086 49.9558 77.9216 49.5607C77.7606 49.1675 77.3909 48.8039 76.8124 48.4699L75.7108 47.8339L74.0878 50.645ZM82.4772 53.4795C82.7924 53.6615 83.0524 53.8832 83.2571 54.1446C83.4639 54.4025 83.6062 54.6879 83.6842 55.0008C83.7642 55.3103 83.7729 55.6432 83.7103 55.9997C83.6531 56.3547 83.5166 56.7192 83.3006 57.0933C83.2166 57.2388 83.145 57.3268 83.0858 57.3573C83.0266 57.3878 82.9537 57.3781 82.8671 57.3281L79.3649 55.3061C79.1798 55.6426 79.0579 55.9579 78.999 56.2518C78.9402 56.5458 78.9355 56.8179 78.985 57.0682C79.0365 57.315 79.1387 57.538 79.2916 57.7371C79.4465 57.9328 79.6487 58.1026 79.8981 58.2466C80.1302 58.3806 80.3444 58.4696 80.5406 58.5137C80.7424 58.5562 80.9219 58.5813 81.0791 58.589C81.2364 58.5966 81.3698 58.5975 81.4795 58.5915C81.5946 58.5841 81.6816 58.5974 81.7405 58.6314C81.8167 58.6754 81.8586 58.7388 81.8662 58.8217L81.931 59.3095C81.7367 59.382 81.5299 59.4243 81.3105 59.4362C81.0932 59.4447 80.8737 59.4288 80.6521 59.3886C80.434 59.3504 80.2189 59.2909 80.0069 59.2101C79.7929 59.1327 79.5907 59.0391 79.4001 58.9291C79.0364 58.7191 78.7354 58.4644 78.4971 58.1652C78.2642 57.8645 78.1032 57.5314 78.0141 57.1658C77.9304 56.7988 77.9272 56.4043 78.0045 55.9825C78.0818 55.5606 78.2514 55.1227 78.5134 54.6689C78.7254 54.3018 78.9788 53.9908 79.2737 53.7361C79.572 53.4834 79.8938 53.302 80.2391 53.1919C80.5864 53.0784 80.9505 53.0438 81.3313 53.0881C81.7142 53.129 82.0961 53.2595 82.4772 53.4795ZM82.105 54.1722C81.6581 53.9142 81.2315 53.8411 80.8251 53.9529C80.4208 54.0612 80.0555 54.326 79.7291 54.7473L82.5922 56.4003C82.7162 56.1855 82.7997 55.9728 82.8428 55.7621C82.888 55.548 82.8904 55.3438 82.85 55.1497C82.8117 54.952 82.7294 54.7706 82.6031 54.6053C82.4823 54.4386 82.3163 54.2942 82.105 54.1722ZM85.2303 58.6024L84.9404 55.0125L85.8289 55.5255C85.9051 55.5695 85.9536 55.6136 85.9742 55.6578C85.9948 55.7021 86.006 55.7547 86.0077 55.8158L86.1564 58.5343C86.2436 58.4553 86.3446 58.3843 86.4595 58.3213L88.5522 57.3125C88.6149 57.284 88.6715 57.2659 88.7222 57.2582C88.7748 57.2471 88.8271 57.2565 88.8791 57.2865L89.7312 57.7785L86.5073 59.2704L86.765 63.0842L85.8764 62.5712C85.8002 62.5272 85.7506 62.4731 85.7276 62.409C85.71 62.3434 85.7014 62.2784 85.7016 62.2139L85.5676 59.386C85.4854 59.4725 85.397 59.5416 85.3025 59.5932L83.0412 60.6779C82.9786 60.7064 82.9145 60.7294 82.8489 60.747C82.7888 60.7631 82.7241 60.7512 82.6548 60.7112L81.8286 60.2342L85.2303 58.6024ZM86.6495 65.3939L90.7175 58.3479L91.2683 58.6659C91.4 58.7419 91.4461 58.854 91.4067 59.0022L91.1247 59.6707C91.5078 59.527 91.8912 59.4551 92.2747 59.4548C92.6617 59.4565 93.044 59.5664 93.4216 59.7844C93.7229 59.9584 93.9626 60.1753 94.1406 60.435C94.3205 60.6914 94.4311 60.9838 94.4723 61.3125C94.5155 61.6376 94.4869 61.9952 94.3864 62.3852C94.2859 62.7753 94.1097 63.1885 93.8577 63.625C93.6337 64.013 93.3727 64.345 93.0748 64.621C92.7789 64.8935 92.4629 65.0968 92.1269 65.2307C91.7929 65.3612 91.4429 65.4155 91.0769 65.3935C90.7163 65.3701 90.3593 65.2563 90.006 65.0523C89.6803 64.8643 89.4325 64.6497 89.2624 64.4083C89.0958 64.1689 88.9811 63.8995 88.9184 63.6L87.5744 65.9279L86.6495 65.3939ZM92.683 60.3556C92.3816 60.1816 92.0766 60.0979 91.768 60.1045C91.4628 60.113 91.142 60.1887 90.8054 60.3316L89.3354 62.8777C89.3732 63.2044 89.4655 63.4725 89.6124 63.682C89.7628 63.8935 89.9627 64.0713 90.2121 64.2153C90.7006 64.4973 91.1774 64.5393 91.6427 64.3415C92.108 64.1436 92.5276 63.7208 92.9016 63.073C93.0996 62.73 93.2384 62.4176 93.3181 62.1356C93.4012 61.8557 93.4306 61.6048 93.4063 61.3829C93.3839 61.1575 93.3107 60.9605 93.1864 60.7917C93.0621 60.623 92.8943 60.4776 92.683 60.3556ZM94.9598 67.9263C94.5441 67.6863 94.2907 67.3852 94.1995 67.0231C94.1118 66.6631 94.1939 66.2648 94.4459 65.8283L96.3059 62.6067L95.672 62.2407C95.6166 62.2087 95.5788 62.1661 95.5587 62.1129C95.5406 62.0563 95.5516 61.9933 95.5916 61.924L95.8046 61.5551L96.7301 61.944L97.8822 60.4406C97.9191 60.3926 97.9656 60.3641 98.0217 60.3549C98.0798 60.3422 98.1383 60.3529 98.1972 60.3869L98.6649 60.6569L97.6179 62.4704L99.1247 63.3404L98.7377 64.0107L97.2309 63.1407L95.4069 66.2999C95.2789 66.5216 95.2375 66.7172 95.2829 66.8866C95.3283 67.056 95.4359 67.1897 95.6056 67.2877C95.7026 67.3437 95.7928 67.3795 95.876 67.3953C95.9648 67.4096 96.0441 67.4161 96.1141 67.4149C96.1841 67.4138 96.2434 67.4111 96.292 67.4068C96.3461 67.4011 96.387 67.4062 96.4147 67.4222C96.4632 67.4502 96.4895 67.5047 96.4936 67.5856L96.5088 68.1832C96.2635 68.2402 96.0032 68.247 95.7281 68.2036C95.4549 68.1567 95.1988 68.0643 94.9598 67.9263Z" fill="#D1DCED"/>
<path d="M13.4215 22.1249L62.6486 50.5462L62.2886 51.1697L13.0615 22.7485L13.4215 22.1249ZM65.0797 51.9498L86.4575 64.2923L86.0975 64.9158L64.7197 52.5733L65.0797 51.9498ZM88.6247 65.5435L95.9303 69.7614L95.5703 70.3849L88.2647 66.1671L88.6247 65.5435Z" fill="#D1DCED"/>
</svg>
