<svg width="148" height="148" viewBox="0 0 148 148" fill="none" xmlns="http://www.w3.org/2000/svg">
<path d="M0 28.6421H57.2812L119.281 90.6392L119.281 147.639L0 28.6421Z" fill="#6524EB"/>
<path d="M84.7462 94.4246C84.465 94.7059 84.3244 95.0421 84.3244 95.4334C84.3366 95.837 84.4834 96.1793 84.7646 96.4606L86.5437 98.2397L84.4161 100.367L82.6369 98.5882C82.1601 98.1113 81.7932 97.5733 81.5364 96.9741C81.3041 96.375 81.1818 95.7636 81.1696 95.14C81.1818 94.5163 81.3041 93.9049 81.5364 93.3058C81.7688 92.7066 82.1234 92.1686 82.6003 91.6917L85.3515 88.9404L84.0309 87.6198L86.0669 85.5839L87.3875 86.9045L90.7073 83.5846L93.1468 86.0241L84.7462 94.4246Z" fill="white"/>
<path d="M81.4366 78.7558C82.0969 79.4161 82.5922 80.1681 82.9223 81.0118C83.2647 81.8433 83.4298 82.6932 83.4175 83.5613C83.4298 84.4295 83.2708 85.2732 82.9407 86.0925C82.6227 86.924 82.1336 87.6699 81.4733 88.3302C80.8008 89.0027 80.0427 89.5041 79.1989 89.8342C78.3674 90.1766 77.5115 90.3478 76.6311 90.3478C75.7751 90.3478 74.9253 90.1827 74.0816 89.8526C73.2501 89.5102 72.5042 89.0088 71.8439 88.3485C70.939 87.4437 70.4316 86.4471 70.3215 85.3588L70.3399 85.3405L72.9444 84.5701V84.6068C73.1278 85.0837 73.3907 85.4933 73.7331 85.8357C74.0877 86.1903 74.4912 86.4593 74.9437 86.6428C75.3961 86.8262 75.8546 86.9179 76.3193 86.9179C76.8084 86.9179 77.2792 86.8262 77.7316 86.6428C78.184 86.4593 78.5937 86.1842 78.9605 85.8174C79.3151 85.4628 79.578 85.0654 79.7492 84.6252C79.9326 84.1727 80.0182 83.7081 80.006 83.2312C80.006 82.7665 79.9143 82.308 79.7309 81.8556C79.5474 81.4031 79.2784 80.9996 78.9238 80.645C78.557 80.2782 78.1473 80.003 77.6949 79.8196C77.2547 79.6484 76.8023 79.5628 76.3376 79.5628C75.873 79.5628 75.4144 79.6545 74.962 79.838C74.5218 80.0091 74.1244 80.272 73.7698 80.6267L65.5527 88.8438L63.0765 86.3676L75.9158 73.5284L78.3919 76.0045L77.1447 77.2518C78.7343 76.9828 80.1649 77.4841 81.4366 78.7558Z" fill="white"/>
<path d="M56.1104 72.0622L61.9064 71.1818L63.1169 74.4466L59.1001 75.0519L56.1104 72.0622ZM67.0054 73.8597L65.8315 81.7833L62.8235 78.7753L62.8418 78.7569L64.0157 70.9067L65.2996 62.9096L68.271 65.881L67.0054 70.8516L71.9943 69.6044L75.0024 72.6124L74.9474 72.5941L67.0054 73.8597Z" fill="white"/>
<path d="M61.3665 58.685C62.0146 59.3331 62.4976 60.0729 62.8155 60.9044C63.1457 61.7236 63.3107 62.5612 63.3107 63.4172C63.3107 64.2731 63.1457 65.1107 62.8155 65.93C62.4976 66.7615 62.0085 67.5074 61.3482 68.1677C60.9936 68.5223 60.6145 68.828 60.211 69.0848L60.156 69.1031L55.4972 64.4443L56.1941 61.3996L59.6791 64.8845C60.0215 64.1998 60.156 63.4905 60.0826 62.7569C60.0215 62.0354 59.7219 61.4057 59.1838 60.8677C58.8537 60.5375 58.4746 60.293 58.0467 60.134C57.6187 59.975 57.1785 59.9017 56.726 59.9139C56.2981 59.9261 55.864 60.0301 55.4238 60.2257C54.9958 60.4091 54.5984 60.6843 54.2316 61.0511C53.9503 61.3323 53.7119 61.6808 53.5162 62.0966C53.3328 62.5001 53.2228 62.9281 53.1861 63.3805C53.1494 63.8329 53.1922 64.2915 53.3145 64.7561C53.449 65.2086 53.6997 65.6182 54.0665 65.985C54.3966 66.3152 54.739 66.572 55.0936 66.7554C55.4727 66.9388 55.9435 66.9938 56.5059 66.9205L56.5426 66.9205L56.561 66.9755L57.7532 70.0386L57.6798 70.0386C56.6282 70.2097 55.5889 70.1242 54.5617 69.7818C53.5468 69.4516 52.6603 68.9075 51.9022 68.1494C51.2419 67.489 50.7405 66.7432 50.3981 65.9117C50.068 65.0924 49.9029 64.2548 49.9029 63.3988C49.9029 62.5429 50.0619 61.6992 50.3798 60.8677C50.7099 60.0484 51.1991 59.3147 51.8471 58.6667C52.5074 58.0064 53.2472 57.5111 54.0665 57.181C54.898 56.863 55.7417 56.7041 56.5977 56.7041C57.4536 56.7041 58.2912 56.8692 59.1105 57.1993C59.9542 57.5295 60.7062 58.0247 61.3665 58.685Z" fill="white"/>
<path d="M56.6535 54.9977L56.0665 55.1445L53.462 55.8782L53.462 55.8415C53.2908 55.2056 52.9729 54.6554 52.5082 54.1907C52.1903 53.8728 51.8357 53.6282 51.4444 53.457C51.0653 53.2736 50.6679 53.1697 50.2522 53.1452C49.8487 53.1085 49.439 53.1391 49.0233 53.2369C48.6198 53.347 48.2468 53.5243 47.9044 53.7688L42.8605 58.8128L40.366 56.3183L49.5369 47.1475L52.0313 49.6419L50.8391 50.8342C52.3798 50.5896 53.7738 51.0909 55.0211 52.3382C55.7547 53.0719 56.2927 53.9523 56.6351 54.9794L56.6535 54.9977Z" fill="white"/>
<path d="M89.9648 89.4451L92.2117 91.6919L90.1483 93.7554L89.9648 89.4451Z" fill="white"/>
<path d="M63.1341 83.7386L63.302 83.9538C63.1599 84.0355 63.0171 84.0664 62.8736 84.0465C62.7301 84.0266 62.5948 83.9531 62.4678 83.8261C62.3078 83.6661 62.2298 83.49 62.234 83.2978C62.2395 83.1055 62.3311 82.9205 62.509 82.7426C62.693 82.5586 62.8832 82.4632 63.0795 82.4563C63.2759 82.4494 63.4496 82.5215 63.6007 82.6726C63.7469 82.8188 63.8166 82.9881 63.8098 83.1803C63.8029 83.3726 63.7092 83.559 63.5286 83.7396C63.5176 83.7506 63.5008 83.7667 63.4781 83.788L62.6624 82.9723C62.5491 83.0993 62.4911 83.2253 62.4884 83.3503C62.4856 83.4753 62.5299 83.5834 62.6212 83.6747C62.6892 83.7427 62.7651 83.7829 62.8488 83.7952C62.9326 83.8076 63.0277 83.7887 63.1341 83.7386ZM62.8252 82.8302L63.4359 83.4409C63.5197 83.3407 63.5653 83.2483 63.5729 83.1639C63.5852 83.0334 63.5444 82.9211 63.4503 82.8271C63.3652 82.7419 63.2649 82.6987 63.1496 82.6973C63.0349 82.6966 62.9268 82.7409 62.8252 82.8302Z" fill="white"/>
<path d="M62.115 82.6205L62.2736 82.8264C62.1281 82.9322 61.9784 82.9796 61.8246 82.9686C61.6722 82.9576 61.5362 82.8924 61.4167 82.7729C61.267 82.6232 61.1953 82.454 61.2015 82.2651C61.209 82.0763 61.3041 81.8906 61.4868 81.7079C61.6049 81.5898 61.7278 81.5061 61.8555 81.4566C61.9832 81.4072 62.1088 81.4003 62.2324 81.436C62.3574 81.4717 62.4669 81.5366 62.561 81.6307C62.6798 81.7495 62.7467 81.8768 62.7618 82.0128C62.7776 82.1481 62.7409 82.2816 62.6516 82.4134L62.4436 82.261C62.4999 82.1704 62.5246 82.0845 62.5177 82.0035C62.5116 81.9232 62.4776 81.8521 62.4158 81.7903C62.3224 81.6969 62.2129 81.6547 62.0872 81.6636C61.9623 81.6719 61.8273 81.7484 61.6825 81.8933C61.5355 82.0403 61.4569 82.1752 61.4466 82.2981C61.4363 82.421 61.4765 82.5278 61.5671 82.6184C61.6399 82.6912 61.723 82.7296 61.8163 82.7337C61.9097 82.7379 62.0093 82.7001 62.115 82.6205Z" fill="white"/>
<path d="M61.8493 80.5638L62.0625 80.3506L62.2479 80.536L62.0347 80.7492L61.8493 80.5638ZM60.5526 81.8605L61.6464 80.7667L61.8318 80.9521L60.738 82.0459L60.5526 81.8605Z" fill="white"/>
<path d="M59.8223 81.1324L60.5 79.6225L60.6957 79.8182L60.2755 80.708C60.2302 80.8042 60.18 80.901 60.1251 80.9985C60.1993 80.9573 60.2916 80.9109 60.4022 80.8594L61.3126 80.4351L61.5032 80.6257L59.9953 81.3054L59.8223 81.1324Z" fill="white"/>
<path d="M58.8346 80.1418L59.9284 79.048L60.0953 79.2148L59.9294 79.3806C60.0496 79.3456 60.1399 79.3336 60.2003 79.3446C60.2614 79.3563 60.3136 79.3837 60.3569 79.427C60.4193 79.4895 60.4629 79.5729 60.4877 79.6773L60.2518 79.7854C60.2333 79.7133 60.2013 79.6546 60.156 79.6093C60.1155 79.5688 60.0668 79.5447 60.0098 79.5372C59.9535 79.529 59.8968 79.5396 59.8398 79.5691C59.7533 79.6144 59.6709 79.6762 59.5926 79.7545L59.02 80.3272L58.8346 80.1418Z" fill="white"/>
<path d="M58.7865 79.3878L58.9544 79.6031C58.8122 79.6848 58.6694 79.7157 58.5259 79.6958C58.3824 79.6758 58.2471 79.6024 58.1201 79.4753C57.9601 79.3154 57.8822 79.1392 57.8863 78.947C57.8918 78.7547 57.9835 78.5697 58.1613 78.3919C58.3453 78.2078 58.5355 78.1124 58.7319 78.1055C58.9283 78.0987 59.102 78.1708 59.253 78.3218C59.3993 78.4681 59.469 78.6373 59.4621 78.8296C59.4552 79.0218 59.3615 79.2083 59.1809 79.3888C59.17 79.3998 59.1531 79.416 59.1305 79.4372L58.3148 78.6215C58.2015 78.7486 58.1435 78.8746 58.1407 78.9995C58.138 79.1245 58.1822 79.2326 58.2736 79.3239C58.3415 79.3919 58.4174 79.4321 58.5012 79.4444C58.585 79.4568 58.68 79.4379 58.7865 79.3878ZM58.4775 78.4794L59.0882 79.0902C59.172 78.9899 59.2177 78.8976 59.2252 78.8131C59.2376 78.6826 59.1967 78.5704 59.1027 78.4763C59.0175 78.3912 58.9173 78.3479 58.8019 78.3465C58.6873 78.3459 58.5791 78.3901 58.4775 78.4794Z" fill="white"/>
<path d="M56.7385 77.0773L56.9435 77.2493C56.8769 77.3337 56.8353 77.4165 56.8189 77.4975C56.8038 77.5785 56.8154 77.6684 56.8539 77.7673C56.893 77.8655 56.9555 77.9575 57.0413 78.0433C57.1175 78.1196 57.1962 78.1755 57.2772 78.2112C57.3582 78.2469 57.4324 78.2593 57.4997 78.2483C57.5683 78.2373 57.626 78.2085 57.6727 78.1618C57.7201 78.1144 57.7475 78.0595 57.7551 77.997C57.7633 77.9338 57.7479 77.8586 57.7087 77.7714C57.684 77.7151 57.6188 77.6012 57.513 77.4295C57.408 77.2572 57.3424 77.1284 57.3163 77.0433C57.282 76.9334 57.2748 76.8328 57.2947 76.7415C57.316 76.6502 57.3613 76.5699 57.4306 76.5005C57.5069 76.4243 57.5996 76.3749 57.7087 76.3522C57.8186 76.3288 57.9322 76.3415 58.0496 76.3903C58.167 76.4391 58.2766 76.5142 58.3782 76.6159C58.4901 76.7278 58.5704 76.8445 58.6192 76.966C58.6693 77.0876 58.6824 77.2064 58.6583 77.3224C58.6343 77.4384 58.5797 77.5425 58.4946 77.6345L58.2886 77.4573C58.3737 77.3516 58.4108 77.2445 58.3998 77.136C58.3895 77.0282 58.3263 76.9163 58.2103 76.8002C58.0895 76.6794 57.9789 76.6135 57.8787 76.6025C57.7798 76.5915 57.6991 76.6172 57.6366 76.6797C57.5824 76.734 57.5573 76.7982 57.5614 76.8723C57.5649 76.9458 57.6291 77.0821 57.754 77.2812C57.8804 77.4803 57.96 77.6238 57.993 77.7117C58.0404 77.8401 58.0538 77.9565 58.0332 78.0609C58.0132 78.1645 57.9628 78.2569 57.8818 78.3379C57.8014 78.4182 57.7025 78.4711 57.5851 78.4965C57.4684 78.5212 57.3469 78.5102 57.2205 78.4636C57.0956 78.4169 56.9792 78.3396 56.8714 78.2318C56.7348 78.0952 56.64 77.9606 56.5871 77.8281C56.5349 77.6963 56.5222 77.5641 56.549 77.4316C56.5772 77.299 56.6403 77.1809 56.7385 77.0773Z" fill="white"/>
<path d="M55.7357 76.7126L55.5987 76.9032C55.5356 76.862 55.4834 76.8208 55.4422 76.7796C55.3749 76.7123 55.3334 76.6494 55.3176 76.5911C55.3018 76.5327 55.3035 76.4788 55.3227 76.4294C55.3426 76.3793 55.4082 76.2986 55.5194 76.1874L56.1487 75.5581L56.0128 75.4221L56.157 75.2779L56.2929 75.4139L56.5638 75.143L56.8594 75.2161L56.4773 75.5982L56.6637 75.7846L56.5195 75.9288L56.3331 75.7424L55.6935 76.382C55.6406 76.4349 55.6097 76.472 55.6008 76.4932C55.5926 76.5152 55.5912 76.5379 55.5967 76.5612C55.6029 76.5852 55.6197 76.611 55.6471 76.6385C55.6677 76.6591 55.6973 76.6838 55.7357 76.7126Z" fill="white"/>
<path d="M54.3838 75.0398L54.5959 75.1943C54.5328 75.2781 54.505 75.3629 54.5125 75.4487C54.5207 75.5352 54.5671 75.6207 54.6515 75.7052C54.7367 75.7903 54.817 75.8363 54.8925 75.8432C54.9688 75.8493 55.0302 75.8291 55.0769 75.7824C55.1188 75.7405 55.1336 75.6894 55.1212 75.6289C55.1123 75.5871 55.07 75.5029 54.9945 75.3766C54.8929 75.2063 54.828 75.0824 54.7999 75.0048C54.7731 74.9272 54.7679 74.8527 54.7844 74.7813C54.8023 74.7099 54.838 74.6474 54.8915 74.5939C54.9403 74.5451 54.9962 74.5111 55.0594 74.4919C55.1239 74.4727 55.1892 74.4686 55.2551 74.4795C55.3052 74.4871 55.3622 74.5084 55.4261 74.5434C55.4913 74.5784 55.5524 74.6244 55.6094 74.6814C55.6952 74.7672 55.758 74.8548 55.7979 74.944C55.8384 75.034 55.8528 75.1157 55.8411 75.1892C55.8301 75.2619 55.7951 75.3395 55.7361 75.4219L55.5301 75.2654C55.5781 75.2008 55.5981 75.1329 55.5898 75.0615C55.5823 74.9907 55.5424 74.9193 55.4703 74.8472C55.3852 74.7621 55.3104 74.7154 55.2458 74.7072C55.1813 74.6989 55.1301 74.7137 55.0924 74.7514C55.0683 74.7755 55.0542 74.8047 55.0501 74.839C55.0453 74.874 55.0525 74.9142 55.0718 74.9595C55.0834 74.9849 55.1222 75.0553 55.1881 75.1706C55.2843 75.3368 55.3468 75.4569 55.3756 75.5311C55.4058 75.6053 55.4144 75.6784 55.4013 75.7505C55.3883 75.8226 55.3502 75.8902 55.287 75.9534C55.2252 76.0152 55.1487 76.0553 55.0573 76.0739C54.9674 76.0924 54.8733 76.0828 54.7751 76.045C54.6776 76.0066 54.586 75.9444 54.5001 75.8586C54.358 75.7165 54.2791 75.5785 54.2633 75.4446C54.2482 75.3114 54.2883 75.1765 54.3838 75.0398Z" fill="white"/>
<path d="M54.9821 73.6979L55.1953 73.4847L55.3807 73.6701L55.1675 73.8833L54.9821 73.6979ZM53.6854 74.9946L54.7792 73.9008L54.9646 74.0862L53.8708 75.18L53.6854 74.9946Z" fill="white"/>
<path d="M52.5338 73.8406L53.6276 72.7468L53.7945 72.9137L53.639 73.0692C53.8394 73.0294 54.0156 73.0853 54.1673 73.2371C54.2332 73.303 54.2816 73.3754 54.3125 73.4544C54.3448 73.5334 54.3554 73.6058 54.3445 73.6717C54.3335 73.7376 54.307 73.8025 54.2652 73.8664C54.2377 73.9076 54.181 73.9711 54.0952 74.0569L53.4227 74.7294L53.2373 74.5441L53.9026 73.8787C53.9781 73.8032 54.0272 73.7397 54.0499 73.6882C54.0732 73.636 54.0774 73.5804 54.0623 73.5213C54.0485 73.4623 54.0169 73.408 53.9675 73.3586C53.8885 73.2796 53.7952 73.2364 53.6874 73.2288C53.5802 73.222 53.4567 73.2886 53.3166 73.4286L52.7192 74.026L52.5338 73.8406Z" fill="white"/>
<path d="M51.8542 72.0688C52.0567 71.8663 52.2631 71.7725 52.4732 71.7876C52.6482 71.8007 52.8034 71.8748 52.9387 72.0101C53.0891 72.1605 53.1625 72.3328 53.1591 72.5271C53.1563 72.7208 53.0681 72.9044 52.8944 73.0781C52.7536 73.2189 52.6215 73.3085 52.4979 73.347C52.3757 73.3854 52.2517 73.3864 52.1261 73.35C52.0011 73.3143 51.8909 73.2488 51.7955 73.1533C51.6423 73.0002 51.5675 72.8272 51.5709 72.6342C51.5751 72.442 51.6695 72.2535 51.8542 72.0688ZM52.0447 72.2593C51.9046 72.3994 51.8301 72.535 51.8212 72.6662C51.813 72.7966 51.8552 72.9082 51.9479 73.0009C52.0399 73.0929 52.1515 73.1344 52.2826 73.1255C52.4138 73.1166 52.5511 73.0404 52.6946 72.8969C52.8299 72.7616 52.9013 72.6284 52.9088 72.4973C52.9177 72.3661 52.8765 72.2549 52.7852 72.1636C52.6925 72.0709 52.581 72.0286 52.4505 72.0369C52.32 72.0451 52.1848 72.1193 52.0447 72.2593Z" fill="white"/>
<path d="M52.2243 70.9412L52.4375 70.728L52.6229 70.9134L52.4097 71.1266L52.2243 70.9412ZM50.9276 72.2378L52.0214 71.1441L52.2068 71.3294L51.113 72.4232L50.9276 72.2378Z" fill="white"/>
<path d="M50.9349 71.9123L50.798 72.1028C50.7348 72.0616 50.6826 72.0204 50.6414 71.9792C50.5741 71.9119 50.5326 71.8491 50.5168 71.7907C50.501 71.7324 50.5027 71.6785 50.5219 71.629C50.5418 71.5789 50.6074 71.4982 50.7186 71.387L51.3479 70.7577L51.212 70.6218L51.3562 70.4776L51.4921 70.6135L51.763 70.3426L52.0586 70.4158L51.6765 70.7979L51.8629 70.9843L51.7187 71.1285L51.5323 70.9421L50.8927 71.5817C50.8398 71.6345 50.8089 71.6716 50.8 71.6929C50.7918 71.7149 50.7904 71.7375 50.7959 71.7609C50.8021 71.7849 50.8189 71.8106 50.8464 71.8381C50.867 71.8587 50.8965 71.8834 50.9349 71.9123Z" fill="white"/>
<path d="M48.7943 70.9386L50.3073 69.4257L50.4762 69.5946L50.3341 69.7367C50.4295 69.7209 50.516 69.7243 50.5936 69.747C50.6719 69.769 50.7468 69.8157 50.8182 69.8871C50.9115 69.9804 50.9699 70.0869 50.9932 70.2063C51.0166 70.3258 51.0025 70.4477 50.951 70.572C50.9002 70.6956 50.8226 70.8095 50.7183 70.9139C50.6063 71.0258 50.4851 71.1065 50.3547 71.1559C50.2256 71.2054 50.0986 71.2157 49.9736 71.1868C49.85 71.158 49.746 71.1014 49.6615 71.0169C49.5997 70.9551 49.5572 70.8864 49.5338 70.8109C49.5112 70.7361 49.504 70.663 49.5122 70.5915L48.9797 71.124L48.7943 70.9386ZM49.9221 70.1466C49.7814 70.2874 49.7058 70.4199 49.6955 70.5442C49.6852 70.6684 49.7206 70.7711 49.8016 70.8521C49.884 70.9345 49.9891 70.9702 50.1168 70.9592C50.2459 70.9482 50.3835 70.8696 50.5298 70.7234C50.6692 70.584 50.7447 70.4508 50.7564 70.3238C50.7687 70.1974 50.7351 70.0944 50.6554 70.0148C50.5765 69.9358 50.4694 69.9029 50.3341 69.9159C50.2002 69.929 50.0629 70.0059 49.9221 70.1466Z" fill="white"/>
<path d="M49.1576 69.7622L49.3254 69.9774C49.1833 70.0592 49.0405 70.0901 48.897 70.0701C48.7535 70.0502 48.6182 69.9768 48.4912 69.8497C48.3312 69.6898 48.2533 69.5136 48.2574 69.3214C48.2629 69.1291 48.3546 68.9441 48.5324 68.7662C48.7164 68.5822 48.9066 68.4868 49.103 68.4799C49.2994 68.4731 49.4731 68.5452 49.6241 68.6962C49.7704 68.8425 49.8401 69.0117 49.8332 69.204C49.8263 69.3962 49.7326 69.5826 49.552 69.7632C49.541 69.7742 49.5242 69.7903 49.5016 69.8116L48.6859 68.9959C48.5726 69.1229 48.5145 69.2489 48.5118 69.3739C48.5091 69.4989 48.5533 69.607 48.6447 69.6983C48.7126 69.7663 48.7885 69.8065 48.8723 69.8188C48.956 69.8312 49.0511 69.8123 49.1576 69.7622ZM48.8486 68.8538L49.4593 69.4645C49.5431 69.3643 49.5888 69.2719 49.5963 69.1875C49.6087 69.057 49.5678 68.9448 49.4738 68.8507C49.3886 68.7656 49.2884 68.7223 49.173 68.7209C49.0584 68.7202 48.9502 68.7645 48.8486 68.8538Z" fill="white"/>
<path d="M48.1424 68.6469L48.301 68.8529C48.1554 68.9587 48.0057 69.006 47.8519 68.9951C47.6995 68.9841 47.5635 68.9188 47.4441 68.7994C47.2944 68.6497 47.2226 68.4804 47.2288 68.2916C47.2364 68.1028 47.3315 67.9171 47.5141 67.7344C47.6322 67.6163 47.7551 67.5326 47.8828 67.4831C48.0105 67.4337 48.1362 67.4268 48.2598 67.4625C48.3847 67.4982 48.4943 67.5631 48.5883 67.6572C48.7071 67.776 48.7741 67.9033 48.7892 68.0393C48.805 68.1745 48.7682 68.3081 48.679 68.4399L48.4709 68.2875C48.5272 68.1969 48.5519 68.111 48.5451 68.03C48.5389 67.9497 48.5049 67.8786 48.4431 67.8168C48.3497 67.7234 48.2402 67.6812 48.1146 67.6901C47.9896 67.6984 47.8547 67.7749 47.7098 67.9198C47.5629 68.0667 47.4842 68.2017 47.4739 68.3246C47.4636 68.4475 47.5038 68.5543 47.5944 68.6449C47.6672 68.7177 47.7503 68.7561 47.8437 68.7602C47.9371 68.7644 48.0366 68.7266 48.1424 68.6469Z" fill="white"/>
<path d="M46.974 67.5756L47.1419 67.7909C46.9997 67.8726 46.8569 67.9035 46.7134 67.8836C46.5699 67.8636 46.4346 67.7902 46.3076 67.6632C46.1476 67.5032 46.0697 67.3271 46.0738 67.1348C46.0793 66.9425 46.171 66.7575 46.3488 66.5797C46.5328 66.3956 46.723 66.3002 46.9194 66.2933C47.1158 66.2865 47.2895 66.3586 47.4405 66.5096C47.5868 66.6559 47.6565 66.8251 47.6496 67.0174C47.6427 67.2096 47.549 67.3961 47.3684 67.5766C47.3575 67.5876 47.3406 67.6038 47.318 67.625L46.5023 66.8093C46.389 66.9364 46.331 67.0624 46.3282 67.1873C46.3255 67.3123 46.3697 67.4204 46.4611 67.5118C46.529 67.5797 46.6049 67.6199 46.6887 67.6323C46.7725 67.6446 46.8675 67.6257 46.974 67.5756ZM46.665 66.6672L47.2757 67.278C47.3595 67.1777 47.4052 67.0854 47.4127 67.0009C47.4251 66.8704 47.3842 66.7582 47.2902 66.6641C47.205 66.579 47.1048 66.5357 46.9894 66.5343C46.8748 66.5337 46.7666 66.5779 46.665 66.6672Z" fill="white"/>
<path d="M44.3964 65.7039L45.9062 64.194L46.5757 64.8634C46.7103 64.998 46.7989 65.114 46.8414 65.2115C46.8847 65.3084 46.8929 65.412 46.8661 65.5226C46.8394 65.6331 46.7844 65.7299 46.7014 65.813C46.5942 65.9201 46.4693 65.9758 46.3265 65.9799C46.1836 65.984 46.0298 65.9236 45.8651 65.7986C45.8925 65.8769 45.9076 65.9421 45.9104 65.9943C45.9152 66.1062 45.9035 66.2284 45.8754 66.3609L45.727 67.0345L45.4757 66.7832L45.5901 66.2693C45.6223 66.1203 45.6436 66.0029 45.6539 65.917C45.6642 65.8312 45.6639 65.7636 45.6529 65.7142C45.6426 65.6654 45.6258 65.6218 45.6024 65.5834C45.5846 65.5559 45.5499 65.5164 45.4984 65.4649L45.2667 65.2332L44.5962 65.9037L44.3964 65.7039ZM45.4397 65.0601L45.8692 65.4896C45.9605 65.5809 46.0412 65.6431 46.1112 65.676C46.1819 65.7083 46.2513 65.7172 46.3193 65.7028C46.3879 65.6877 46.4466 65.6558 46.4954 65.607C46.5668 65.5356 46.5994 65.4508 46.5932 65.3526C46.5877 65.2551 46.529 65.1504 46.4171 65.0385L45.9392 64.5606L45.4397 65.0601Z" fill="white"/>
<path d="M43.2948 64.6028L44.8047 63.0929L45.0045 63.2927L43.4946 64.8026L43.2948 64.6028Z" fill="white"/>
<path d="M41.705 63.0154L43.7947 62.0853L44.01 62.3006L43.118 64.4284L42.8904 64.2008L43.1716 63.5674L42.5402 62.9361L41.9171 63.2275L41.705 63.0154ZM42.7606 62.831L43.2725 63.3429L43.5331 62.7672C43.6121 62.5921 43.6807 62.452 43.7391 62.3469C43.623 62.4245 43.4998 62.4935 43.3693 62.554L42.7606 62.831Z" fill="white"/>
<path d="M41.349 61.9535L41.5169 62.1687C41.3747 62.2504 41.2319 62.2813 41.0884 62.2614C40.9449 62.2415 40.8096 62.168 40.6826 62.041C40.5226 61.881 40.4447 61.7049 40.4488 61.5127C40.4543 61.3204 40.546 61.1354 40.7238 60.9575C40.9078 60.7735 41.098 60.6781 41.2944 60.6712C41.4908 60.6643 41.6645 60.7364 41.8155 60.8875C41.9618 61.0337 42.0315 61.203 42.0246 61.3953C42.0177 61.5875 41.924 61.7739 41.7434 61.9545C41.7325 61.9655 41.7156 61.9816 41.693 62.0029L40.8773 61.1872C40.764 61.3142 40.706 61.4402 40.7032 61.5652C40.7005 61.6902 40.7447 61.7983 40.8361 61.8896C40.904 61.9576 40.9799 61.9978 41.0637 62.0101C41.1475 62.0225 41.2425 62.0036 41.349 61.9535ZM41.04 61.0451L41.6507 61.6558C41.7345 61.5556 41.7802 61.4632 41.7877 61.3788C41.8001 61.2483 41.7592 61.1361 41.6652 61.042C41.58 60.9568 41.4798 60.9136 41.3644 60.9122C41.2498 60.9115 41.1416 60.9558 41.04 61.0451Z" fill="white"/>
<path d="M39.0956 60.404L40.6055 58.8942L40.7909 59.0796L40.2491 59.6213C40.4359 59.6076 40.5952 59.6666 40.727 59.7984C40.808 59.8795 40.8623 59.966 40.8897 60.058C40.9179 60.1493 40.9165 60.2358 40.8856 60.3175C40.8554 60.3999 40.7867 60.4947 40.6796 60.6018L39.9865 61.2949L39.8011 61.1096L40.4942 60.4164C40.5869 60.3237 40.634 60.2362 40.6353 60.1538C40.6381 60.0714 40.6027 59.9934 40.5293 59.92C40.4743 59.865 40.4081 59.8276 40.3305 59.8077C40.2543 59.7878 40.1815 59.7919 40.1121 59.8201C40.0428 59.8482 39.9652 59.9052 39.8794 59.991L39.281 60.5894L39.0956 60.404Z" fill="white"/>
<path d="M38.2337 59.5434L39.5654 58.2116L39.0679 57.7142L39.2461 57.536L40.4429 58.7328L40.2647 58.911L39.7652 58.4115L38.4335 59.7432L38.2337 59.5434Z" fill="white"/>
<path d="M88.6671 98.0094C90.5207 96.1557 93.5261 96.1557 95.3798 98.0094L95.9343 98.5639C97.788 100.418 97.788 103.423 95.9343 105.277V105.277C94.0807 107.13 91.0753 107.13 89.2216 105.277L88.6671 104.722C86.8134 102.868 86.8134 99.863 88.6671 98.0094V98.0094Z" fill="#6524EB"/>
<path d="M94.9574 104.078C94.8643 104.171 94.7386 104.326 94.6339 104.401C91.5939 106.388 88.5967 104.292 88.4747 103.891C88.4631 103.853 89.357 103.532 89.4453 103.269C88.5618 102.386 88.8854 99.8971 89.6817 99.1008C90.8199 97.9626 92.9159 97.9874 94.3322 99.4037C95.7484 100.82 96.0957 102.94 94.9574 104.078Z" fill="white"/>
<path d="M94.8149 104.105C95.9531 102.967 95.7775 100.946 94.3612 99.5296C92.945 98.1133 90.8742 97.888 89.7359 99.0262L89.7095 99.053C88.7848 100.007 88.7689 102.015 89.6136 103.33C89.6525 103.391 88.7521 103.917 88.7521 103.917L89.1752 104.166C89.1752 104.166 91.7384 106.057 94.3478 104.468C94.5045 104.373 94.6531 104.262 94.7881 104.132L94.8149 104.105ZM95.1135 104.404C94.959 104.558 94.787 104.684 94.6128 104.801C91.5444 106.859 87.9315 103.967 87.9315 103.967C87.9315 103.967 89.1271 103.266 89.0886 103.184C88.4161 101.74 88.3663 99.8981 89.4871 98.7773C90.8108 97.4536 93.1099 97.7806 94.6101 99.2807C96.1103 100.781 96.4372 103.08 95.1135 104.404Z" fill="#6524EB"/>
<path d="M88.0086 103.391C88.8132 104.136 89.7266 104.804 90.5333 105.073C92.4794 105.72 93.611 105.303 94.6034 104.547L89.8184 102.598L88.0086 103.391Z" fill="white"/>
<path d="M94.6002 104.441C93.3976 105.644 91.5648 105.76 90.5065 104.702C89.4482 103.644 89.5652 101.811 90.7678 100.609C91.9704 99.4059 93.8032 99.2889 94.8615 100.347C95.9198 101.406 95.8028 103.238 94.6002 104.441Z" fill="white"/>
<path d="M94.7076 104.402C93.4665 105.643 91.3039 105.493 89.8774 104.066C88.4509 102.64 88.3006 100.477 89.5418 99.2358C90.7829 97.9947 92.9455 98.1449 94.372 99.5715C95.7985 100.998 95.9488 103.161 94.7076 104.402Z" fill="white"/>
<path d="M90.4163 99.5146C90.8681 99.0628 91.6006 99.0628 92.0525 99.5146L93.5942 101.056C94.046 101.508 94.046 102.241 93.5942 102.693V102.693C93.1424 103.144 92.4099 103.144 91.9581 102.693L90.4163 101.151C89.9645 100.699 89.9645 99.9664 90.4163 99.5146V99.5146Z" fill="#6524EB"/>
<path d="M91.0299 99.7194C91.1428 99.6064 91.3259 99.6064 91.4389 99.7194V99.7194C91.5518 99.8323 91.5518 100.015 91.4389 100.128L91.0299 100.537C90.9169 100.65 90.7338 100.65 90.6208 100.537V100.537C90.5079 100.424 90.5079 100.241 90.6208 100.128L91.0299 99.7194Z" fill="white"/>
<path d="M91.69 100.38C91.803 100.267 91.9861 100.267 92.0991 100.38V100.38C92.212 100.493 92.212 100.676 92.0991 100.789L91.69 101.198C91.5771 101.311 91.3939 101.311 91.281 101.198V101.198C91.168 101.085 91.168 100.902 91.281 100.789L91.69 100.38Z" fill="white"/>
<path d="M96.0161 98.6399C95.7756 98.8805 95.3912 98.886 95.1575 98.6524C94.9239 98.4187 94.9295 98.0344 95.17 97.7938C95.4105 97.5533 95.7949 97.5477 96.0285 97.7814C96.2622 98.015 96.2566 98.3994 96.0161 98.6399Z" fill="white"/>
<path d="M95.9995 98.6475C96.2265 98.4205 96.23 98.0547 96.0102 97.8234L95.9995 97.8125C95.769 97.5819 95.3951 97.5819 95.1645 97.8125L95.1539 97.8234C94.9375 98.0511 94.9375 98.4089 95.1539 98.6366L95.1646 98.6475C95.3915 98.8745 95.7573 98.878 95.9886 98.6581L95.9995 98.6475ZM96.2042 98.8521C95.8606 99.1957 95.3035 99.1957 94.9599 98.8521C94.6163 98.5086 94.6163 97.9515 94.9599 97.6079C95.3035 97.2643 95.8606 97.2643 96.2042 97.6079C96.5478 97.9515 96.5478 98.5086 96.2042 98.8521Z" fill="#6524EB"/>
<path d="M95.335 98.8305L94.5871 99.7748L93.9898 99.1776L94.9727 98.4683L95.335 98.8305ZM94.9668 98.7368L94.3027 99.216L94.5557 99.4691L95.061 98.831L94.9668 98.7368Z" fill="#6524EB"/>
<path d="M95.0358 98.6793L95.1319 98.7754L94.4388 99.675L94.0904 99.3266L95.0358 98.6793Z" fill="white"/>
<path d="M99.4652 85.526L97.4712 87.5201L96.6474 86.6963L98.6415 84.7022L99.8789 79.7454L100.604 80.4702C100.677 80.5433 100.717 80.6187 100.724 80.6965C100.731 80.7743 100.722 80.8544 100.696 80.9369L99.9143 83.8042C99.8695 83.9433 99.8247 84.0729 99.7799 84.1931C99.7375 84.3157 99.6915 84.4324 99.642 84.5431C99.7504 84.4866 99.8636 84.4371 99.9814 84.3946C100.102 84.3499 100.231 84.3051 100.37 84.2603L103.231 83.4719C103.301 83.4483 103.378 83.4401 103.46 83.4471C103.545 83.4518 103.623 83.4896 103.694 83.5603L104.422 84.2886L99.4652 85.526Z" fill="#E4E4E4"/>
<path d="M93.4741 82.2139C93.6603 82.4001 93.8383 82.5356 94.008 82.6205C94.1824 82.7053 94.3474 82.7501 94.503 82.7548C94.6609 82.7619 94.8082 82.7325 94.9449 82.6665C95.0863 82.6005 95.216 82.5085 95.3338 82.3907C95.5742 82.1503 95.6803 81.8792 95.652 81.5775C95.6284 81.2758 95.4399 80.9482 95.0863 80.5946L94.0646 79.5729L92.4488 81.1886L93.4741 82.2139ZM96.2389 77.3985L94.6479 78.9895L95.4752 79.8168C95.8288 80.1704 96.1611 80.366 96.4723 80.4037C96.7834 80.4414 97.0674 80.3318 97.3243 80.0749C97.6048 79.7944 97.725 79.5092 97.6849 79.2193C97.6472 78.9318 97.454 78.6136 97.1051 78.2647L96.2389 77.3985ZM97.7521 77.6177C98.0774 77.943 98.3237 78.2529 98.491 78.5476C98.6607 78.8398 98.7621 79.118 98.7951 79.3819C98.8281 79.6459 98.7951 79.8958 98.6961 80.1315C98.6018 80.3672 98.451 80.5887 98.2436 80.7962C98.1233 80.9164 97.9878 81.0142 97.837 81.0896C97.6908 81.165 97.5294 81.2134 97.3526 81.2346C97.1805 81.2558 96.9979 81.2475 96.8046 81.2098C96.6113 81.1721 96.4098 81.1002 96.2 80.9942C96.7681 81.8686 96.7457 82.6122 96.1328 83.2251C95.916 83.4419 95.6756 83.5998 95.4116 83.6988C95.1523 83.7978 94.8789 83.8355 94.5913 83.812C94.3085 83.7884 94.0174 83.7 93.7181 83.5468C93.4187 83.3936 93.1241 83.172 92.8342 82.8821L90.9674 81.0154L96.0586 75.9242L97.7521 77.6177Z" fill="#E4E4E4"/>
<path d="M90.8413 75.7986C90.4642 76.1757 90.0576 76.4597 89.6215 76.6506C89.1878 76.8392 88.7471 76.9335 88.2993 76.9335C87.8538 76.9358 87.4118 76.8427 86.9734 76.6542C86.5397 76.4656 86.132 76.1804 85.7501 75.7986L83.8268 73.8752L88.918 68.7841L90.8413 70.7074C91.2231 71.0892 91.5072 71.4982 91.6934 71.9342C91.8843 72.3703 91.9786 72.811 91.9762 73.2565C91.9762 73.7043 91.8807 74.1463 91.6898 74.5823C91.5013 75.016 91.2184 75.4214 90.8413 75.7986ZM89.9963 74.9536C90.2886 74.6613 90.5113 74.3584 90.6645 74.0449C90.8201 73.7338 90.9038 73.4239 90.9155 73.1151C90.9297 72.8087 90.8743 72.5082 90.7494 72.2135C90.6268 71.9165 90.4347 71.6372 90.1731 71.3756L89.0806 70.2831L85.3259 74.0379L86.4183 75.1303C86.68 75.392 86.9581 75.5852 87.2527 75.7102C87.5474 75.8351 87.8479 75.8905 88.1543 75.8763C88.4654 75.8622 88.7754 75.7785 89.0841 75.6253C89.3976 75.4721 89.7017 75.2482 89.9963 74.9536Z" fill="#E4E4E4"/>
<path d="M83.5992 72.3113L82.9275 72.976L79.7526 69.8011L84.8438 64.7099L88.0187 67.8848L87.3504 68.553L85.0064 66.209L83.472 67.7434L85.3458 69.6172L84.6988 70.2642L82.825 68.3904L81.2516 69.9637L83.5992 72.3113Z" fill="#E4E4E4"/>
<path d="M79.3938 64.1388C79.5824 64.3274 79.7697 64.47 79.956 64.5666C80.1445 64.6609 80.3272 64.7139 80.504 64.7257C80.6807 64.7375 80.8493 64.7104 81.0095 64.6444C81.1722 64.576 81.323 64.4723 81.4621 64.3333C81.7402 64.0551 81.8604 63.7511 81.8227 63.4211C81.785 63.0911 81.5799 62.7399 81.2075 62.3675L80.5358 61.6958L78.7433 63.4883L79.3938 64.1388ZM79.1392 69.1875L78.4003 68.4486C78.2542 68.3025 78.2047 68.1399 78.2518 67.9607L78.7786 65.058C78.7975 64.9591 78.7963 64.873 78.7751 64.8C78.7539 64.7269 78.6961 64.6432 78.6018 64.5489L78.1422 64.0893L76.0916 66.1399L75.2643 65.3126L80.3555 60.2214L81.8545 61.7205C82.1892 62.0552 82.4426 62.3769 82.6147 62.6857C82.7891 62.9968 82.8904 63.2938 82.9187 63.5767C82.9494 63.8571 82.9128 64.1223 82.8091 64.3722C82.7078 64.6244 82.5487 64.8589 82.3318 65.0757C82.1551 65.2525 81.963 65.3904 81.7555 65.4894C81.5505 65.5907 81.3348 65.6532 81.1085 65.6768C80.8846 65.7027 80.6536 65.6885 80.4156 65.6343C80.1775 65.5801 79.9395 65.4858 79.7014 65.3515C79.7415 65.5141 79.7426 65.6874 79.7049 65.8712L79.1392 69.1875Z" fill="#E4E4E4"/>
<path d="M75.0367 63.7487L74.365 64.4134L71.1901 61.2384L76.2812 56.1473L79.4562 59.3222L78.7879 59.9904L76.4439 57.6463L74.9095 59.1808L76.7833 61.0546L76.1363 61.7016L74.2625 59.8278L72.6891 61.4011L75.0367 63.7487Z" fill="#E4E4E4"/>
<path d="M75.591 55.4583L68.9159 58.9655L68.1699 58.2195L70.6307 53.3688C70.6566 53.3146 70.6861 53.2568 70.7191 53.1955C70.7544 53.1366 70.7933 53.0741 70.8357 53.0081C70.7697 53.0506 70.7061 53.0883 70.6448 53.1213C70.5859 53.1566 70.5293 53.1873 70.4751 53.2132L65.6137 55.6633L64.8677 54.9173L68.375 48.2422L69.068 48.9352C69.1387 49.0059 69.1799 49.0825 69.1917 49.165C69.2082 49.2475 69.1952 49.3265 69.1528 49.4019L66.8441 53.6198C66.7923 53.7094 66.7333 53.8036 66.6673 53.9026C66.6013 54.0016 66.5318 54.1042 66.4587 54.2102C66.5648 54.1372 66.6685 54.0688 66.7699 54.0052C66.8759 53.9415 66.9749 53.8873 67.0669 53.8425L71.4226 51.6717C71.4863 51.6411 71.5629 51.6305 71.6524 51.6399C71.742 51.6493 71.821 51.6882 71.8893 51.7566L72.1297 51.997C72.2028 52.0701 72.2429 52.1478 72.2499 52.2303C72.2594 52.3105 72.2488 52.3894 72.2181 52.4672L70.0438 56.8195C69.999 56.9114 69.946 57.0068 69.8847 57.1058C69.8281 57.2048 69.7645 57.3062 69.6938 57.4099C69.7975 57.3392 69.8953 57.272 69.9872 57.2084C70.0838 57.1447 70.1758 57.0882 70.263 57.0387L74.4773 54.7264C74.5433 54.6887 74.6199 54.6757 74.7071 54.6875C74.7967 54.7017 74.8757 54.7429 74.944 54.8113L75.591 55.4583Z" fill="#E4E4E4"/>
<path d="M65.5359 50.4944C65.1588 50.8715 64.7498 51.1579 64.3091 51.3535C63.8683 51.5492 63.4205 51.6505 62.9656 51.6576C62.5154 51.6647 62.0687 51.5763 61.6256 51.3924C61.1848 51.2109 60.7735 50.9293 60.3917 50.5474C60.0122 50.168 59.7305 49.7567 59.5467 49.3135C59.3652 48.8728 59.2768 48.4261 59.2815 47.9736C59.2886 47.5187 59.39 47.0708 59.5856 46.6301C59.7812 46.1893 60.0676 45.7804 60.4447 45.4032C60.8218 45.0261 61.2308 44.7397 61.6716 44.5441C62.1123 44.3485 62.5601 44.2471 63.0151 44.24C63.47 44.233 63.9178 44.3202 64.3586 44.5017C64.8017 44.6855 65.213 44.9672 65.5925 45.3467C65.9743 45.7285 66.256 46.1398 66.4375 46.5806C66.6213 47.0237 66.7085 47.4715 66.6991 47.9241C66.692 48.379 66.5907 48.8268 66.395 49.2676C66.1994 49.7083 65.913 50.1173 65.5359 50.4944ZM64.6909 49.6494C64.9832 49.3571 65.2059 49.0543 65.3591 48.7408C65.5147 48.4297 65.5995 48.1185 65.6137 47.8074C65.6302 47.4986 65.5771 47.1958 65.4546 46.8988C65.332 46.6018 65.1399 46.3225 64.8783 46.0608C64.619 45.8016 64.3409 45.6107 64.0439 45.4881C63.7469 45.3655 63.4429 45.3113 63.1317 45.3255C62.8206 45.3396 62.5083 45.4233 62.1948 45.5765C61.8813 45.7297 61.5785 45.9524 61.2862 46.2447C60.9916 46.5393 60.7676 46.8434 60.6144 47.1569C60.4612 47.4703 60.3775 47.7827 60.3634 48.0938C60.3516 48.4026 60.407 48.7054 60.5296 49.0024C60.6545 49.297 60.8466 49.574 61.1059 49.8333C61.3675 50.0949 61.6456 50.2882 61.9403 50.4131C62.2372 50.5357 62.5389 50.5899 62.8453 50.5757C63.1565 50.5616 63.4676 50.4767 63.7787 50.3212C64.0922 50.168 64.3963 49.944 64.6909 49.6494Z" fill="#E4E4E4"/>
<path d="M57.9732 43.0284C58.1571 43.2123 58.3421 43.3502 58.5283 43.4421C58.7169 43.5364 58.8995 43.587 59.0763 43.5941C59.2578 43.6012 59.4334 43.567 59.6031 43.4916C59.7728 43.4162 59.9331 43.303 60.0839 43.1522C60.2324 43.0037 60.342 42.8469 60.4127 42.6819C60.4858 42.5193 60.5176 42.3508 60.5082 42.1764C60.4988 42.0019 60.4446 41.8228 60.3456 41.639C60.2513 41.4551 60.1099 41.2689 59.9213 41.0803L59.1647 40.3237L57.2166 42.2718L57.9732 43.0284ZM60.5683 40.4333C60.9006 40.7657 61.1493 41.0921 61.3143 41.4127C61.4816 41.7356 61.5736 42.0467 61.5901 42.3461C61.6113 42.6454 61.5618 42.933 61.4416 43.2087C61.3237 43.4822 61.1458 43.7379 60.9077 43.976C60.6649 44.2187 60.4009 44.4002 60.1157 44.5204C59.8329 44.6383 59.5371 44.689 59.2283 44.6725C58.9219 44.6536 58.6061 44.564 58.2808 44.4038C57.9602 44.2435 57.6397 44.0031 57.3191 43.6825L56.5625 42.9259L54.7205 44.7679L53.8932 43.9406L58.9844 38.8494L60.5683 40.4333Z" fill="#E4E4E4"/>
</svg>
