<svg width="394" height="215" viewBox="0 0 394 215" fill="none" xmlns="http://www.w3.org/2000/svg">
<rect x="5" y="5" width="384" height="205" rx="12" fill="url(#paint0_linear_1495_511)"/>
<rect x="2.5" y="2.5" width="389" height="210" rx="14.5" stroke="white" stroke-opacity="0.15" stroke-width="5"/>
<path d="M261.618 84.287V78.545H262.572V79.103C262.932 78.689 263.481 78.455 264.102 78.455C265.326 78.455 266.163 79.49 266.163 80.768C266.163 82.055 265.326 83.09 264.102 83.09C263.499 83.09 262.968 82.847 262.617 82.433V84.287H261.618ZM263.85 82.127C264.606 82.127 265.146 81.551 265.146 80.768C265.146 79.985 264.606 79.418 263.85 79.418C263.148 79.418 262.617 79.976 262.617 80.768C262.617 81.551 263.139 82.127 263.85 82.127ZM269.265 83.09C267.996 83.09 266.862 82.244 266.862 80.777C266.862 79.499 267.861 78.455 269.157 78.455C270.345 78.455 271.299 79.49 271.299 80.741C271.299 80.93 271.272 81.128 271.272 81.128H267.897C268.041 81.839 268.617 82.208 269.283 82.208C269.733 82.208 270.201 82.073 270.561 81.821L270.957 82.559C270.453 82.901 269.859 83.09 269.265 83.09ZM267.888 80.39H270.327C270.228 79.751 269.715 79.328 269.103 79.328C268.527 79.328 268.023 79.751 267.888 80.39ZM272.156 83V78.545H273.155V79.427C273.326 78.977 273.812 78.455 274.766 78.455V79.544C273.785 79.544 273.155 80.012 273.155 81.182V83H272.156ZM277.447 83V78.545H278.446V79.202C278.68 78.788 279.202 78.455 279.751 78.455C280.453 78.455 280.921 78.761 281.155 79.301C281.452 78.779 282.082 78.455 282.613 78.455C283.783 78.455 284.305 79.175 284.305 80.435V83H283.306V80.57C283.306 79.949 283.171 79.418 282.388 79.418C281.749 79.418 281.38 79.922 281.38 80.525V83H280.381V80.57C280.381 79.949 280.246 79.418 279.463 79.418C278.797 79.418 278.446 79.985 278.446 80.588V83H277.447ZM287.466 83.09C286.152 83.09 285.099 82.064 285.099 80.777C285.099 79.481 286.152 78.455 287.466 78.455C288.78 78.455 289.833 79.481 289.833 80.777C289.833 82.064 288.78 83.09 287.466 83.09ZM287.466 82.127C288.231 82.127 288.816 81.551 288.816 80.777C288.816 79.994 288.231 79.418 287.466 79.418C286.701 79.418 286.116 79.994 286.116 80.777C286.116 81.551 286.701 82.127 287.466 82.127ZM290.684 83V78.545H291.683V79.184C292.016 78.689 292.529 78.455 293.123 78.455C294.329 78.455 294.725 79.256 294.725 80.444V83H293.726V80.57C293.726 79.841 293.564 79.418 292.817 79.418C292.16 79.418 291.683 79.931 291.683 80.669V83H290.684ZM297.296 83.09C296.387 83.09 295.946 82.595 295.946 81.569V79.364H295.289V78.545H295.946V77.672L296.945 77.465V78.545H298.286V79.364H296.945V81.596C296.945 82.073 297.17 82.226 297.422 82.226C297.773 82.226 298.07 82.01 298.07 82.01L298.367 82.757C298.16 82.892 297.8 83.09 297.296 83.09ZM299.042 83V77.078H300.041V79.184C300.365 78.689 300.878 78.455 301.472 78.455C302.642 78.455 303.074 79.22 303.074 80.444V83H302.075V80.57C302.075 79.841 301.877 79.418 301.139 79.418C300.446 79.418 300.041 79.967 300.041 80.66V83H299.042ZM308.199 83.09C306.885 83.09 305.832 82.064 305.832 80.777C305.832 79.481 306.885 78.455 308.199 78.455C309.513 78.455 310.566 79.481 310.566 80.777C310.566 82.064 309.513 83.09 308.199 83.09ZM308.199 82.127C308.964 82.127 309.549 81.551 309.549 80.777C309.549 79.994 308.964 79.418 308.199 79.418C307.434 79.418 306.849 79.994 306.849 80.777C306.849 81.551 307.434 82.127 308.199 82.127ZM311.417 83V78.545H312.416V79.184C312.749 78.689 313.262 78.455 313.856 78.455C315.062 78.455 315.458 79.256 315.458 80.444V83H314.459V80.57C314.459 79.841 314.297 79.418 313.55 79.418C312.893 79.418 312.416 79.931 312.416 80.669V83H311.417ZM320.091 83V80.309L317.832 77.168H319.029L320.172 78.761C320.433 79.121 320.613 79.418 320.613 79.418C320.613 79.418 320.829 79.103 321.072 78.761L322.179 77.168H323.376L321.135 80.3V83H320.091ZM325.374 83.09C324.105 83.09 322.971 82.244 322.971 80.777C322.971 79.499 323.97 78.455 325.266 78.455C326.454 78.455 327.408 79.49 327.408 80.741C327.408 80.93 327.381 81.128 327.381 81.128H324.006C324.15 81.839 324.726 82.208 325.392 82.208C325.842 82.208 326.31 82.073 326.67 81.821L327.066 82.559C326.562 82.901 325.968 83.09 325.374 83.09ZM323.997 80.39H326.436C326.337 79.751 325.824 79.328 325.212 79.328C324.636 79.328 324.132 79.751 323.997 80.39ZM330.174 83.09C328.95 83.09 328.113 82.055 328.113 80.777C328.113 79.49 328.95 78.455 330.174 78.455C330.777 78.455 331.308 78.698 331.659 79.112V78.545H332.658V83H331.659V82.442C331.308 82.856 330.777 83.09 330.174 83.09ZM330.426 82.127C331.128 82.127 331.659 81.569 331.659 80.777C331.659 79.994 331.137 79.418 330.426 79.418C329.67 79.418 329.13 79.994 329.13 80.777C329.13 81.56 329.67 82.127 330.426 82.127ZM333.662 83V78.545H334.661V79.427C334.832 78.977 335.318 78.455 336.272 78.455V79.544C335.291 79.544 334.661 80.012 334.661 81.182V83H333.662ZM336.984 83V77.078H337.983V83H336.984ZM339.411 84.323V83.387C339.942 83.387 340.167 83.198 340.392 82.748L340.482 82.568L338.556 78.545H339.582L340.653 80.921C340.788 81.218 340.941 81.623 340.941 81.623C340.941 81.623 341.139 81.101 341.229 80.876L342.192 78.545H343.2L341.166 83.198C340.707 84.233 339.933 84.323 339.411 84.323ZM348.231 83.09C347.61 83.09 347.061 82.856 346.701 82.442V83H345.747V77.078H346.746V79.112C347.097 78.698 347.628 78.455 348.231 78.455C349.455 78.455 350.292 79.49 350.292 80.777C350.292 82.055 349.455 83.09 348.231 83.09ZM347.979 82.127C348.735 82.127 349.275 81.56 349.275 80.777C349.275 79.994 348.735 79.418 347.979 79.418C347.268 79.418 346.746 79.994 346.746 80.777C346.746 81.569 347.277 82.127 347.979 82.127ZM351.144 83V78.545H352.143V83H351.144ZM351.639 77.897C351.306 77.897 351.036 77.627 351.036 77.294C351.036 76.961 351.306 76.682 351.639 76.682C351.972 76.682 352.251 76.961 352.251 77.294C352.251 77.627 351.972 77.897 351.639 77.897ZM353.148 83V77.078H354.147V83H353.148ZM355.151 83V77.078H356.15V83H355.151ZM357.155 83V78.545H358.154V83H357.155ZM357.65 77.897C357.317 77.897 357.047 77.627 357.047 77.294C357.047 76.961 357.317 76.682 357.65 76.682C357.983 76.682 358.262 76.961 358.262 77.294C358.262 77.627 357.983 77.897 357.65 77.897ZM359.159 83V78.545H360.158V79.184C360.491 78.689 361.004 78.455 361.598 78.455C362.804 78.455 363.2 79.256 363.2 80.444V83H362.201V80.57C362.201 79.841 362.039 79.418 361.292 79.418C360.635 79.418 360.158 79.931 360.158 80.669V83H359.159ZM366.177 84.323C365.412 84.323 364.773 84.098 364.359 83.729L364.746 83.099C365.097 83.405 365.619 83.558 366.078 83.558C367.032 83.558 367.5 82.946 367.5 82.037V82.001C367.32 82.361 366.843 82.766 366.033 82.766C364.8 82.766 363.99 81.812 363.99 80.615C363.99 79.418 364.8 78.455 366.033 78.455C366.708 78.455 367.311 78.77 367.545 79.211V78.545H368.499V81.983C368.499 83.54 367.455 84.323 366.177 84.323ZM366.249 81.893C366.969 81.893 367.5 81.353 367.5 80.579C367.5 79.868 366.951 79.328 366.249 79.328C365.547 79.328 365.007 79.877 365.007 80.615C365.007 81.353 365.547 81.893 366.249 81.893Z" fill="#B1B1B1"/>
<rect x="208" y="100" width="165" height="26" rx="13" fill="#FFEDF9"/>
<path d="M218.702 116.024L216.23 108.224H217.622L219.098 112.916C219.29 113.528 219.458 114.212 219.458 114.212C219.458 114.212 219.626 113.54 219.782 112.916L221.006 108.224H222.494L223.718 112.916C223.886 113.54 224.03 114.212 224.03 114.212C224.03 114.212 224.21 113.54 224.402 112.916L225.878 108.224H227.27L224.786 116.024H223.31L222.062 111.512C221.882 110.84 221.75 109.976 221.75 109.976C221.75 109.976 221.618 110.84 221.438 111.512L220.19 116.024H218.702ZM230.516 116.12C228.824 116.12 227.312 114.992 227.312 113.036C227.312 111.332 228.644 109.94 230.372 109.94C231.956 109.94 233.228 111.32 233.228 112.988C233.228 113.24 233.192 113.504 233.192 113.504H228.692C228.884 114.452 229.652 114.944 230.54 114.944C231.14 114.944 231.764 114.764 232.244 114.428L232.772 115.412C232.1 115.868 231.308 116.12 230.516 116.12ZM228.68 112.52H231.932C231.8 111.668 231.116 111.104 230.3 111.104C229.532 111.104 228.86 111.668 228.68 112.52ZM237.683 116.12C236.855 116.12 236.123 115.808 235.643 115.256V116H234.371V108.104H235.703V110.816C236.171 110.264 236.879 109.94 237.683 109.94C239.315 109.94 240.431 111.32 240.431 113.036C240.431 114.74 239.315 116.12 237.683 116.12ZM237.347 114.836C238.355 114.836 239.075 114.08 239.075 113.036C239.075 111.992 238.355 111.224 237.347 111.224C236.399 111.224 235.703 111.992 235.703 113.036C235.703 114.092 236.411 114.836 237.347 114.836ZM243.643 116.12C242.419 116.12 241.579 115.568 241.255 115.256L241.759 114.164C242.143 114.476 242.755 114.872 243.643 114.872C244.183 114.872 244.819 114.668 244.819 114.248C244.819 113.816 244.219 113.708 243.631 113.54C242.503 113.228 241.543 112.892 241.543 111.728C241.543 110.564 242.731 109.94 243.775 109.94C244.663 109.94 245.251 110.168 245.899 110.552L245.407 111.632C244.879 111.332 244.375 111.188 243.787 111.188C243.343 111.188 242.899 111.392 242.899 111.704C242.899 112.112 243.391 112.208 243.919 112.316C245.023 112.556 246.175 113 246.175 114.224C246.175 115.616 244.747 116.12 243.643 116.12ZM247.238 116V110.06H248.57V116H247.238ZM247.898 109.196C247.454 109.196 247.094 108.836 247.094 108.392C247.094 107.948 247.454 107.576 247.898 107.576C248.342 107.576 248.714 107.948 248.714 108.392C248.714 108.836 248.342 109.196 247.898 109.196ZM252.082 116.12C250.87 116.12 250.282 115.46 250.282 114.092V111.152H249.406V110.06H250.282V108.896L251.614 108.62V110.06H253.402V111.152H251.614V114.128C251.614 114.764 251.914 114.968 252.25 114.968C252.718 114.968 253.114 114.68 253.114 114.68L253.51 115.676C253.234 115.856 252.754 116.12 252.082 116.12ZM257.328 116.12C255.636 116.12 254.124 114.992 254.124 113.036C254.124 111.332 255.456 109.94 257.184 109.94C258.768 109.94 260.04 111.32 260.04 112.988C260.04 113.24 260.004 113.504 260.004 113.504H255.504C255.696 114.452 256.464 114.944 257.352 114.944C257.952 114.944 258.576 114.764 259.056 114.428L259.584 115.412C258.912 115.868 258.12 116.12 257.328 116.12ZM255.492 112.52H258.744C258.612 111.668 257.928 111.104 257.112 111.104C256.344 111.104 255.672 111.668 255.492 112.52ZM267.757 116.12C265.405 116.12 263.665 114.332 263.665 112.1C263.665 109.892 265.405 108.104 267.757 108.104C268.765 108.104 269.689 108.44 270.373 109.016L269.569 109.952C269.041 109.544 268.465 109.364 267.853 109.364C266.245 109.364 265.117 110.612 265.117 112.1C265.117 113.6 266.245 114.86 267.769 114.86C268.525 114.86 269.221 114.584 269.725 114.092L270.577 115.052C269.857 115.712 268.873 116.12 267.757 116.12ZM271.414 116V108.104H272.746V110.912C273.178 110.252 273.862 109.94 274.654 109.94C276.214 109.94 276.79 110.96 276.79 112.592V116H275.458V112.76C275.458 111.788 275.194 111.224 274.21 111.224C273.286 111.224 272.746 111.956 272.746 112.88V116H271.414ZM280.591 116.12C278.959 116.12 277.843 114.74 277.843 113.036C277.843 111.32 278.959 109.94 280.591 109.94C281.395 109.94 282.103 110.264 282.571 110.816V110.06H283.903V116H282.571V115.256C282.103 115.808 281.395 116.12 280.591 116.12ZM280.927 114.836C281.863 114.836 282.571 114.092 282.571 113.036C282.571 111.992 281.875 111.224 280.927 111.224C279.919 111.224 279.199 111.992 279.199 113.036C279.199 114.08 279.919 114.836 280.927 114.836ZM287.414 116.12C286.202 116.12 285.614 115.46 285.614 114.092V111.152H284.738V110.06H285.614V108.896L286.946 108.62V110.06H288.734V111.152H286.946V114.128C286.946 114.764 287.246 114.968 287.582 114.968C288.05 114.968 288.446 114.68 288.446 114.68L288.842 115.676C288.566 115.856 288.086 116.12 287.414 116.12ZM294.791 116.12C293.411 116.12 292.127 115.364 292.127 113.744C292.127 112.976 292.535 112.172 293.435 111.608C293.147 111.152 292.943 110.672 292.943 110.144C292.943 109.208 293.639 108.104 295.151 108.104C295.859 108.104 296.759 108.32 297.335 109.604L296.243 110.3C296.039 109.712 295.643 109.304 295.175 109.304C294.647 109.304 294.311 109.688 294.311 110.144C294.311 110.684 294.659 111.248 295.439 112.04L296.963 113.576C297.071 113.408 297.191 113.144 297.191 112.676H298.451C298.451 113.396 298.211 114.14 297.923 114.5L298.739 115.316L297.911 116.156L297.095 115.364C296.447 115.856 295.595 116.12 294.791 116.12ZM294.923 114.872C295.379 114.872 295.799 114.728 296.159 114.5L294.167 112.532C293.687 112.832 293.471 113.252 293.471 113.66C293.471 114.368 294.071 114.872 294.923 114.872ZM306.171 116.12C303.819 116.12 302.079 114.332 302.079 112.1C302.079 109.892 303.819 108.104 306.171 108.104C307.179 108.104 308.103 108.44 308.787 109.016L307.983 109.952C307.455 109.544 306.879 109.364 306.267 109.364C304.659 109.364 303.531 110.612 303.531 112.1C303.531 113.6 304.659 114.86 306.183 114.86C306.939 114.86 307.635 114.584 308.139 114.092L308.991 115.052C308.271 115.712 307.287 116.12 306.171 116.12ZM312.372 116.12C310.74 116.12 309.624 114.74 309.624 113.036C309.624 111.32 310.74 109.94 312.372 109.94C313.176 109.94 313.884 110.264 314.352 110.816V110.06H315.684V116H314.352V115.256C313.884 115.808 313.176 116.12 312.372 116.12ZM312.708 114.836C313.644 114.836 314.352 114.092 314.352 113.036C314.352 111.992 313.656 111.224 312.708 111.224C311.7 111.224 310.98 111.992 310.98 113.036C310.98 114.08 311.7 114.836 312.708 114.836ZM317.024 116V108.104H318.356V116H317.024ZM319.695 116V108.104H321.027V116H319.695ZM326.924 116.024L324.452 108.224H325.844L327.32 112.916C327.512 113.528 327.68 114.212 327.68 114.212C327.68 114.212 327.848 113.54 328.004 112.916L329.228 108.224H330.716L331.94 112.916C332.108 113.54 332.252 114.212 332.252 114.212C332.252 114.212 332.432 113.54 332.624 112.916L334.1 108.224H335.492L333.008 116.024H331.532L330.284 111.512C330.104 110.84 329.972 109.976 329.972 109.976C329.972 109.976 329.84 110.84 329.66 111.512L328.412 116.024H326.924ZM336.301 116V110.06H337.633V116H336.301ZM336.961 109.196C336.517 109.196 336.157 108.836 336.157 108.392C336.157 107.948 336.517 107.576 336.961 107.576C337.405 107.576 337.777 107.948 337.777 108.392C337.777 108.836 337.405 109.196 336.961 109.196ZM341.517 116.12C339.885 116.12 338.769 114.74 338.769 113.036C338.769 111.32 339.885 109.94 341.517 109.94C342.321 109.94 343.029 110.264 343.497 110.816V108.104H344.829V116H343.557V115.256C343.077 115.808 342.345 116.12 341.517 116.12ZM341.853 114.836C342.789 114.836 343.497 114.092 343.497 113.036C343.497 111.992 342.801 111.224 341.853 111.224C340.845 111.224 340.125 111.992 340.125 113.036C340.125 114.08 340.845 114.836 341.853 114.836ZM348.88 117.764C347.86 117.764 347.008 117.464 346.456 116.972L346.972 116.132C347.44 116.54 348.136 116.744 348.748 116.744C350.02 116.744 350.644 115.928 350.644 114.716V114.668C350.404 115.148 349.768 115.688 348.688 115.688C347.044 115.688 345.964 114.416 345.964 112.82C345.964 111.224 347.044 109.94 348.688 109.94C349.588 109.94 350.392 110.36 350.704 110.948V110.06H351.976V114.644C351.976 116.72 350.584 117.764 348.88 117.764ZM348.976 114.524C349.936 114.524 350.644 113.804 350.644 112.772C350.644 111.824 349.912 111.104 348.976 111.104C348.04 111.104 347.32 111.836 347.32 112.82C347.32 113.804 348.04 114.524 348.976 114.524ZM356.317 116.12C354.625 116.12 353.113 114.992 353.113 113.036C353.113 111.332 354.445 109.94 356.173 109.94C357.757 109.94 359.029 111.32 359.029 112.988C359.029 113.24 358.993 113.504 358.993 113.504H354.493C354.685 114.452 355.453 114.944 356.341 114.944C356.941 114.944 357.565 114.764 358.045 114.428L358.573 115.412C357.901 115.868 357.109 116.12 356.317 116.12ZM354.481 112.52H357.733C357.601 111.668 356.917 111.104 356.101 111.104C355.333 111.104 354.661 111.668 354.481 112.52ZM362.344 116.12C361.132 116.12 360.544 115.46 360.544 114.092V111.152H359.668V110.06H360.544V108.896L361.876 108.62V110.06H363.664V111.152H361.876V114.128C361.876 114.764 362.176 114.968 362.512 114.968C362.98 114.968 363.376 114.68 363.376 114.68L363.772 115.676C363.496 115.856 363.016 116.12 362.344 116.12Z" fill="#E83BAC"/>
<rect x="246" y="135" width="127" height="26" rx="13" fill="#FFEDF9"/>
<path d="M257.012 151V143.224H260.636C261.92 143.224 262.964 143.824 262.964 145.192C262.964 145.804 262.58 146.368 262.148 146.584C263.036 146.776 263.696 147.568 263.696 148.576C263.696 150.172 262.484 151 260.744 151H257.012ZM258.404 149.8H260.648C261.62 149.8 262.244 149.404 262.244 148.6C262.244 147.784 261.668 147.352 260.78 147.352H258.404V149.8ZM258.404 146.164H260.564C261.164 146.164 261.512 145.84 261.512 145.312C261.512 144.784 261.176 144.424 260.504 144.424H258.404V146.164ZM266.994 151.12C265.422 151.12 264.834 150.232 264.834 148.672V145.06H266.166V148.48C266.166 149.428 266.586 149.836 267.414 149.836C268.338 149.836 268.83 149.068 268.83 148.216V145.06H270.162V151H268.902V150.088C268.542 150.736 267.714 151.12 266.994 151.12ZM271.504 151V145.06H272.836V151H271.504ZM272.164 144.196C271.72 144.196 271.36 143.836 271.36 143.392C271.36 142.948 271.72 142.576 272.164 142.576C272.608 142.576 272.98 142.948 272.98 143.392C272.98 143.836 272.608 144.196 272.164 144.196ZM274.176 151V143.104H275.508V151H274.176ZM279.02 151.12C277.808 151.12 277.22 150.46 277.22 149.092V146.152H276.344V145.06H277.22V143.896L278.552 143.62V145.06H280.34V146.152H278.552V149.128C278.552 149.764 278.852 149.968 279.188 149.968C279.656 149.968 280.052 149.68 280.052 149.68L280.448 150.676C280.172 150.856 279.692 151.12 279.02 151.12ZM281.06 148.612V147.52H285.908V148.612H281.06ZM287.117 151V143.224H288.509V151H287.117ZM290.008 151V145.06H291.34V145.912C291.784 145.252 292.468 144.94 293.26 144.94C294.868 144.94 295.396 146.008 295.396 147.592V151H294.064V147.76C294.064 146.788 293.848 146.224 292.852 146.224C291.976 146.224 291.34 146.908 291.34 147.892V151H290.008ZM299.433 151V143.224H300.645L301.725 144.736C302.277 145.504 303.489 147.232 303.489 147.232C303.489 147.232 304.701 145.516 305.241 144.748L306.321 143.224H307.533V151H306.141V145.6C306.141 145.6 305.901 146.032 305.397 146.764L303.489 149.5L301.557 146.74C301.077 146.044 300.825 145.6 300.825 145.6V151H299.433ZM311.991 151.12C310.239 151.12 308.835 149.752 308.835 148.036C308.835 146.308 310.239 144.94 311.991 144.94C313.743 144.94 315.147 146.308 315.147 148.036C315.147 149.752 313.743 151.12 311.991 151.12ZM311.991 149.836C313.011 149.836 313.791 149.068 313.791 148.036C313.791 146.992 313.011 146.224 311.991 146.224C310.971 146.224 310.191 146.992 310.191 148.036C310.191 149.068 310.971 149.836 311.991 149.836ZM319.593 151.12C318.765 151.12 318.033 150.808 317.553 150.256V151H316.281V143.104H317.613V145.816C318.081 145.264 318.789 144.94 319.593 144.94C321.225 144.94 322.341 146.32 322.341 148.036C322.341 149.74 321.225 151.12 319.593 151.12ZM319.257 149.836C320.265 149.836 320.985 149.08 320.985 148.036C320.985 146.992 320.265 146.224 319.257 146.224C318.309 146.224 317.613 146.992 317.613 148.036C317.613 149.092 318.321 149.836 319.257 149.836ZM323.477 151V145.06H324.809V151H323.477ZM324.137 144.196C323.693 144.196 323.333 143.836 323.333 143.392C323.333 142.948 323.693 142.576 324.137 142.576C324.581 142.576 324.953 142.948 324.953 143.392C324.953 143.836 324.581 144.196 324.137 144.196ZM326.149 151V143.104H327.481V151H326.149ZM331.82 151.12C330.128 151.12 328.616 149.992 328.616 148.036C328.616 146.332 329.948 144.94 331.676 144.94C333.26 144.94 334.532 146.32 334.532 147.988C334.532 148.24 334.496 148.504 334.496 148.504H329.996C330.188 149.452 330.956 149.944 331.844 149.944C332.444 149.944 333.068 149.764 333.548 149.428L334.076 150.412C333.404 150.868 332.612 151.12 331.82 151.12ZM329.984 147.52H333.236C333.104 146.668 332.42 146.104 331.604 146.104C330.836 146.104 330.164 146.668 329.984 147.52ZM342.249 151.12C339.897 151.12 338.157 149.332 338.157 147.1C338.157 144.892 339.897 143.104 342.249 143.104C343.257 143.104 344.181 143.44 344.865 144.016L344.061 144.952C343.533 144.544 342.957 144.364 342.345 144.364C340.737 144.364 339.609 145.612 339.609 147.1C339.609 148.6 340.737 149.86 342.261 149.86C343.017 149.86 343.713 149.584 344.217 149.092L345.069 150.052C344.349 150.712 343.365 151.12 342.249 151.12ZM346.062 151V143.224H349.35C351.582 143.224 352.77 144.556 352.77 146.2C352.77 147.244 352.206 148.228 351.174 148.72L352.89 151H351.27L349.914 149.104C349.698 149.14 349.458 149.164 349.218 149.164H347.454V151H346.062ZM347.454 147.964H349.41C350.526 147.964 351.306 147.172 351.306 146.2C351.306 145.204 350.526 144.412 349.422 144.412H347.454V147.964ZM354.066 151V143.224H355.278L356.358 144.736C356.91 145.504 358.122 147.232 358.122 147.232C358.122 147.232 359.334 145.516 359.874 144.748L360.954 143.224H362.166V151H360.774V145.6C360.774 145.6 360.534 146.032 360.03 146.764L358.122 149.5L356.19 146.74C355.71 146.044 355.458 145.6 355.458 145.6V151H354.066Z" fill="#E83BAC"/>
<rect x="174" y="170" width="199" height="26" rx="13" fill="#FFEDF9"/>
<path d="M188.604 187.12C186.912 187.12 186.012 186.484 185.496 186.004L186.036 184.948C186.672 185.464 187.452 185.86 188.616 185.86C189.456 185.86 190.296 185.464 190.296 184.756C190.296 184.048 189.492 183.832 188.7 183.64C187.272 183.304 185.796 182.848 185.796 181.3C185.796 179.848 187.176 179.104 188.616 179.104C189.732 179.104 190.596 179.416 191.376 179.944L190.836 181.012C190.14 180.568 189.42 180.364 188.616 180.364C188.1 180.364 187.212 180.58 187.212 181.288C187.212 181.912 187.908 182.116 188.844 182.344C190.32 182.692 191.748 183.244 191.748 184.756C191.748 186.388 190.14 187.12 188.604 187.12ZM195.521 187.12C193.889 187.12 192.773 185.74 192.773 184.036C192.773 182.32 193.889 180.94 195.521 180.94C196.325 180.94 197.033 181.264 197.501 181.816V181.06H198.833V187H197.501V186.256C197.033 186.808 196.325 187.12 195.521 187.12ZM195.857 185.836C196.793 185.836 197.501 185.092 197.501 184.036C197.501 182.992 196.805 182.224 195.857 182.224C194.849 182.224 194.129 182.992 194.129 184.036C194.129 185.08 194.849 185.836 195.857 185.836ZM202.044 187.012L199.596 181.06H200.928L202.14 184.06C202.452 184.828 202.692 185.656 202.692 185.656C202.692 185.656 202.944 184.816 203.244 184.072L204.444 181.06H205.776L203.328 187.012H202.044ZM209.336 187.12C207.644 187.12 206.132 185.992 206.132 184.036C206.132 182.332 207.464 180.94 209.192 180.94C210.776 180.94 212.048 182.32 212.048 183.988C212.048 184.24 212.012 184.504 212.012 184.504H207.512C207.704 185.452 208.472 185.944 209.36 185.944C209.96 185.944 210.584 185.764 211.064 185.428L211.592 186.412C210.92 186.868 210.128 187.12 209.336 187.12ZM207.5 183.52H210.752C210.62 182.668 209.936 182.104 209.12 182.104C208.352 182.104 207.68 182.668 207.5 183.52ZM215.745 187V186.124C218.625 183.616 219.705 182.56 219.705 181.528C219.705 180.844 219.237 180.304 218.385 180.304C217.941 180.304 217.317 180.508 216.585 181.192L215.865 180.328C216.801 179.272 217.893 179.104 218.493 179.104C220.029 179.104 221.121 179.992 221.121 181.42C221.121 183.016 219.309 184.708 217.821 185.8H221.361V187H215.745ZM225.587 187.12C223.799 187.12 222.551 185.464 222.551 183.112C222.551 180.76 223.799 179.104 225.587 179.104C227.363 179.104 228.611 180.76 228.611 183.112C228.611 185.464 227.363 187.12 225.587 187.12ZM225.587 185.92C226.607 185.92 227.195 184.756 227.195 183.112C227.195 181.468 226.607 180.304 225.587 180.304C224.555 180.304 223.967 181.468 223.967 183.112C223.967 184.756 224.555 185.92 225.587 185.92ZM237.297 187.12C236.193 187.12 235.413 186.136 235.413 184.744C235.413 183.328 236.193 182.356 237.297 182.356C238.401 182.356 239.181 183.328 239.181 184.744C239.181 186.136 238.401 187.12 237.297 187.12ZM231.597 183.868C230.493 183.868 229.713 182.884 229.713 181.492C229.713 180.076 230.493 179.104 231.597 179.104C232.701 179.104 233.481 180.076 233.481 181.492C233.481 182.884 232.701 183.868 231.597 183.868ZM231.597 182.956C232.161 182.956 232.521 182.356 232.521 181.492C232.521 180.616 232.161 180.016 231.597 180.016C231.009 180.016 230.685 180.616 230.685 181.492C230.685 182.356 231.009 182.956 231.597 182.956ZM237.297 186.208C237.861 186.208 238.221 185.608 238.221 184.744C238.221 183.868 237.861 183.268 237.297 183.268C236.709 183.268 236.385 183.868 236.385 184.744C236.385 185.608 236.709 186.208 237.297 186.208ZM232.449 187.132L231.825 186.772L236.589 178.852L237.213 179.212L232.449 187.132ZM243.317 187.516L242.573 188.332C241.589 187.492 240.461 186.016 240.461 183.58C240.461 181.144 241.589 179.668 242.573 178.828L243.317 179.644C242.429 180.616 241.745 181.996 241.745 183.58C241.745 185.164 242.429 186.544 243.317 187.516ZM246.903 188.476V187.072C245.451 186.964 244.743 186.292 244.395 185.98L244.887 184.96C245.271 185.32 246.063 185.896 247.371 185.896C248.271 185.896 249.003 185.38 249.003 184.708C249.003 183.988 248.175 183.76 247.419 183.592C246.123 183.304 244.743 182.848 244.743 181.312C244.743 180.04 245.763 179.296 246.903 179.152V177.796H247.899V179.152C248.751 179.2 249.447 179.596 249.975 180.004L249.507 180.988C248.919 180.58 248.271 180.292 247.395 180.292C246.735 180.292 246.087 180.688 246.087 181.276C246.087 181.924 246.699 182.14 247.527 182.32C248.991 182.644 250.359 183.22 250.359 184.708C250.359 186.112 249.219 186.88 247.899 187.048V188.476H246.903ZM251.545 187V186.124C254.425 183.616 255.505 182.56 255.505 181.528C255.505 180.844 255.037 180.304 254.185 180.304C253.741 180.304 253.117 180.508 252.385 181.192L251.665 180.328C252.601 179.272 253.693 179.104 254.293 179.104C255.829 179.104 256.921 179.992 256.921 181.42C256.921 183.016 255.109 184.708 253.621 185.8H257.161V187H251.545ZM261.686 187V185.44H258.002V184.504L261.17 179.02L262.31 179.668L259.646 184.24H261.686V182.464H263.018V184.24H263.978V185.44H263.018V187H261.686ZM268.067 187.12C266.279 187.12 265.031 185.464 265.031 183.112C265.031 180.76 266.279 179.104 268.067 179.104C269.843 179.104 271.091 180.76 271.091 183.112C271.091 185.464 269.843 187.12 268.067 187.12ZM268.067 185.92C269.087 185.92 269.675 184.756 269.675 183.112C269.675 181.468 269.087 180.304 268.067 180.304C267.035 180.304 266.447 181.468 266.447 183.112C266.447 184.756 267.035 185.92 268.067 185.92ZM272.89 188.332L272.146 187.516C273.034 186.544 273.718 185.164 273.718 183.58C273.718 181.996 273.034 180.616 272.146 179.644L272.89 178.828C273.874 179.668 275.002 181.144 275.002 183.58C275.002 186.016 273.874 187.492 272.89 188.332ZM281.933 187.12C280.181 187.12 278.777 185.752 278.777 184.036C278.777 182.308 280.181 180.94 281.933 180.94C283.685 180.94 285.089 182.308 285.089 184.036C285.089 185.752 283.685 187.12 281.933 187.12ZM281.933 185.836C282.953 185.836 283.733 185.068 283.733 184.036C283.733 182.992 282.953 182.224 281.933 182.224C280.913 182.224 280.133 182.992 280.133 184.036C280.133 185.068 280.913 185.836 281.933 185.836ZM286.223 187V181.06H287.555V181.912C287.999 181.252 288.683 180.94 289.475 180.94C291.083 180.94 291.611 182.008 291.611 183.592V187H290.279V183.76C290.279 182.788 290.063 182.224 289.067 182.224C288.191 182.224 287.555 182.908 287.555 183.892V187H286.223ZM297.789 187V183.412L294.777 179.224H296.373L297.897 181.348C298.245 181.828 298.485 182.224 298.485 182.224C298.485 182.224 298.773 181.804 299.097 181.348L300.573 179.224H302.169L299.181 183.4V187H297.789ZM304.832 187.12C303.14 187.12 301.628 185.992 301.628 184.036C301.628 182.332 302.96 180.94 304.688 180.94C306.272 180.94 307.544 182.32 307.544 183.988C307.544 184.24 307.508 184.504 307.508 184.504H303.008C303.2 185.452 303.968 185.944 304.856 185.944C305.456 185.944 306.08 185.764 306.56 185.428L307.088 186.412C306.416 186.868 305.624 187.12 304.832 187.12ZM302.996 183.52H306.248C306.116 182.668 305.432 182.104 304.616 182.104C303.848 182.104 303.176 182.668 302.996 183.52ZM311.232 187.12C309.6 187.12 308.484 185.74 308.484 184.036C308.484 182.32 309.6 180.94 311.232 180.94C312.036 180.94 312.744 181.264 313.212 181.816V181.06H314.544V187H313.212V186.256C312.744 186.808 312.036 187.12 311.232 187.12ZM311.568 185.836C312.504 185.836 313.212 185.092 313.212 184.036C313.212 182.992 312.516 182.224 311.568 182.224C310.56 182.224 309.84 182.992 309.84 184.036C309.84 185.08 310.56 185.836 311.568 185.836ZM315.883 187V181.06H317.215V182.236C317.443 181.636 318.091 180.94 319.363 180.94V182.392C318.055 182.392 317.215 183.016 317.215 184.576V187H315.883ZM320.313 187V179.104H321.645V187H320.313ZM323.549 188.764V187.516C324.257 187.516 324.557 187.264 324.857 186.664L324.977 186.424L322.409 181.06H323.777L325.205 184.228C325.385 184.624 325.589 185.164 325.589 185.164C325.589 185.164 325.853 184.468 325.973 184.168L327.257 181.06H328.601L325.889 187.264C325.277 188.644 324.245 188.764 323.549 188.764ZM335.308 187.12C334.48 187.12 333.748 186.808 333.268 186.256V187H331.996V179.104H333.328V181.816C333.796 181.264 334.504 180.94 335.308 180.94C336.94 180.94 338.056 182.32 338.056 184.036C338.056 185.74 336.94 187.12 335.308 187.12ZM334.972 185.836C335.98 185.836 336.7 185.08 336.7 184.036C336.7 182.992 335.98 182.224 334.972 182.224C334.024 182.224 333.328 182.992 333.328 184.036C333.328 185.092 334.036 185.836 334.972 185.836ZM339.192 187V181.06H340.524V187H339.192ZM339.852 180.196C339.408 180.196 339.048 179.836 339.048 179.392C339.048 178.948 339.408 178.576 339.852 178.576C340.296 178.576 340.668 178.948 340.668 179.392C340.668 179.836 340.296 180.196 339.852 180.196ZM341.863 187V179.104H343.195V187H341.863ZM344.535 187V179.104H345.867V187H344.535ZM347.207 187V181.06H348.539V187H347.207ZM347.867 180.196C347.423 180.196 347.063 179.836 347.063 179.392C347.063 178.948 347.423 178.576 347.867 178.576C348.311 178.576 348.683 178.948 348.683 179.392C348.683 179.836 348.311 180.196 347.867 180.196ZM349.879 187V181.06H351.211V181.912C351.655 181.252 352.339 180.94 353.131 180.94C354.739 180.94 355.267 182.008 355.267 183.592V187H353.935V183.76C353.935 182.788 353.719 182.224 352.723 182.224C351.847 182.224 351.211 182.908 351.211 183.892V187H349.879ZM359.236 188.764C358.216 188.764 357.364 188.464 356.812 187.972L357.328 187.132C357.796 187.54 358.492 187.744 359.104 187.744C360.376 187.744 361 186.928 361 185.716V185.668C360.76 186.148 360.124 186.688 359.044 186.688C357.4 186.688 356.32 185.416 356.32 183.82C356.32 182.224 357.4 180.94 359.044 180.94C359.944 180.94 360.748 181.36 361.06 181.948V181.06H362.332V185.644C362.332 187.72 360.94 188.764 359.236 188.764ZM359.332 185.524C360.292 185.524 361 184.804 361 183.772C361 182.824 360.268 182.104 359.332 182.104C358.396 182.104 357.676 182.836 357.676 183.82C357.676 184.804 358.396 185.524 359.332 185.524Z" fill="#E83BAC"/>
<path d="M43.336 103.24C41.008 103.24 39.304 102.496 38.152 101.344L39.496 99.472C40.552 100.504 41.896 100.864 43.12 100.864C45.376 100.864 46.768 99.616 46.768 97.936C46.768 96.52 45.472 95.368 43.408 95.368C42.544 95.368 41.824 95.56 41.176 95.944L40.12 94.168L45.016 89.848H38.824V87.448H48.784V89.776L44.776 93.304C45.208 93.328 45.616 93.4 46.024 93.52C48.088 94.072 49.6 95.656 49.6 97.96C49.6 101.392 46.864 103.24 43.336 103.24ZM57.8847 103.24C54.3087 103.24 51.8127 99.928 51.8127 95.224C51.8127 90.52 54.3087 87.208 57.8847 87.208C61.4367 87.208 63.9327 90.52 63.9327 95.224C63.9327 99.928 61.4367 103.24 57.8847 103.24ZM57.8847 100.84C59.9247 100.84 61.1007 98.512 61.1007 95.224C61.1007 91.936 59.9247 89.608 57.8847 89.608C55.8207 89.608 54.6447 91.936 54.6447 95.224C54.6447 98.512 55.8207 100.84 57.8847 100.84ZM72.0175 103.24C68.4415 103.24 65.9455 99.928 65.9455 95.224C65.9455 90.52 68.4415 87.208 72.0175 87.208C75.5695 87.208 78.0655 90.52 78.0655 95.224C78.0655 99.928 75.5695 103.24 72.0175 103.24ZM72.0175 100.84C74.0575 100.84 75.2335 98.512 75.2335 95.224C75.2335 91.936 74.0575 89.608 72.0175 89.608C69.9535 89.608 68.7775 91.936 68.7775 95.224C68.7775 98.512 69.9535 100.84 72.0175 100.84ZM38.752 120V108.528H39.664V110.832C40.312 109.368 41.872 108.288 43.648 108.288C45.544 108.288 46.96 109.104 47.44 111C48.304 108.96 50.296 108.288 51.616 108.288C54.064 108.288 55.648 109.608 55.648 112.656V120H54.736V112.776C54.736 110.4 53.656 109.176 51.472 109.176C49.192 109.176 47.656 111.264 47.656 113.184V120H46.744V112.776C46.744 110.4 45.664 109.176 43.504 109.176C41.176 109.176 39.664 111.408 39.664 113.208V120H38.752ZM58.9083 120V108.528H59.8203V120H58.9083ZM59.3643 106.056C58.9563 106.056 58.6203 105.72 58.6203 105.288C58.6203 104.88 58.9563 104.544 59.3643 104.544C59.7723 104.544 60.1323 104.88 60.1323 105.288C60.1323 105.72 59.7723 106.056 59.3643 106.056ZM63.2911 120V108.528H64.2031V110.832C64.9231 109.296 66.5791 108.288 68.4751 108.288C71.0671 108.288 72.6511 109.656 72.6511 112.656V120H71.7391V112.776C71.7391 110.352 70.5631 109.176 68.3071 109.176C65.8351 109.176 64.2031 111.36 64.2031 113.256V120H63.2911ZM79.8839 120.24C77.2919 120.24 75.6839 119.016 75.6839 115.896V108.528H76.5959V115.824C76.5959 118.344 77.8679 119.352 80.0519 119.352C82.4279 119.352 83.9399 117.168 83.9399 115.272V108.528H84.8519V120H83.9639V117.672C83.2199 119.424 81.4919 120.24 79.8839 120.24ZM91.7303 120.24C90.0983 120.24 88.8023 119.592 88.8023 116.856V109.32H87.0503V108.528H88.8023V105.792L89.7143 105.672V108.528H94.1303V109.32H89.7143V116.88C89.7143 118.848 90.5063 119.376 91.7303 119.376C92.9783 119.376 93.8903 118.656 93.8903 118.656L94.2503 119.4C93.8903 119.664 92.9303 120.24 91.7303 120.24ZM101.734 120.24C98.518 120.24 95.926 117.72 95.926 114.264C95.926 110.904 98.374 108.288 101.542 108.288C104.614 108.288 107.014 110.904 107.014 114.24C107.014 114.408 106.99 114.576 106.99 114.624H96.886C97.054 117.408 99.142 119.4 101.734 119.4C103.198 119.4 104.59 118.848 105.55 117.912L106.03 118.584C104.902 119.616 103.366 120.24 101.734 120.24ZM96.886 113.88H106.078C105.958 111.192 103.99 109.128 101.518 109.128C98.998 109.128 97.03 111.144 96.886 113.88ZM113.604 120.24C111.3 120.24 110.028 119.208 109.308 118.416L109.764 117.696C110.724 118.8 111.996 119.352 113.604 119.352C115.812 119.352 117.18 118.248 117.18 116.928C117.18 115.296 115.524 114.888 113.868 114.48C111.804 114 109.788 113.472 109.788 111.36C109.788 109.464 111.804 108.288 113.652 108.288C115.068 108.288 116.22 108.672 117.324 109.584L116.892 110.304C115.98 109.536 114.924 109.176 113.652 109.176C112.092 109.176 110.724 110.136 110.724 111.36C110.724 112.896 112.38 113.256 114.06 113.616C116.076 114.072 118.116 114.744 118.116 116.928C118.116 119.04 116.004 120.24 113.604 120.24Z" fill="#25242C"/>
<rect x="21" y="84" width="10" height="38" fill="#E83BAC"/>
<path d="M280.701 73.6364V37.2727H283.031V73.6364H280.701ZM286.88 49.2756C286.766 48.1297 286.279 47.2396 285.417 46.6051C284.555 45.9706 283.386 45.6534 281.908 45.6534C280.905 45.6534 280.057 45.7955 279.366 46.0795C278.674 46.3542 278.144 46.7377 277.775 47.2301C277.415 47.7225 277.235 48.2812 277.235 48.9062C277.216 49.4271 277.325 49.8816 277.562 50.2699C277.808 50.6581 278.144 50.9943 278.57 51.2784C278.996 51.553 279.489 51.7945 280.048 52.0028C280.606 52.2017 281.203 52.3722 281.837 52.5142L284.451 53.1392C285.72 53.4233 286.885 53.8021 287.945 54.2756C289.006 54.7491 289.924 55.3314 290.701 56.0227C291.478 56.714 292.079 57.5284 292.505 58.4659C292.941 59.4034 293.163 60.4782 293.173 61.6903C293.163 63.4706 292.709 65.0142 291.809 66.321C290.919 67.6184 289.631 68.6269 287.945 69.3466C286.269 70.0568 284.247 70.4119 281.88 70.4119C279.531 70.4119 277.486 70.0521 275.744 69.3324C274.011 68.6127 272.656 67.5473 271.681 66.1364C270.715 64.7159 270.209 62.9593 270.161 60.8665H276.113C276.179 61.8419 276.459 62.6562 276.951 63.3097C277.453 63.9536 278.121 64.4413 278.954 64.7727C279.797 65.0947 280.748 65.2557 281.809 65.2557C282.851 65.2557 283.755 65.1042 284.522 64.8011C285.299 64.4981 285.9 64.0767 286.326 63.5369C286.752 62.9972 286.965 62.3769 286.965 61.6761C286.965 61.0227 286.771 60.4735 286.383 60.0284C286.004 59.5833 285.445 59.2045 284.707 58.892C283.978 58.5795 283.083 58.2955 282.022 58.0398L278.854 57.2443C276.402 56.6477 274.465 55.715 273.045 54.446C271.624 53.1771 270.919 51.4678 270.928 49.3182C270.919 47.5568 271.388 46.018 272.335 44.7017C273.291 43.3854 274.603 42.358 276.269 41.6193C277.936 40.8807 279.83 40.5114 281.951 40.5114C284.11 40.5114 285.995 40.8807 287.604 41.6193C289.224 42.358 290.483 43.3854 291.383 44.7017C292.282 46.018 292.746 47.5426 292.775 49.2756H286.88ZM314.107 25.767C316.351 25.767 318.51 26.1435 320.584 26.8963C322.672 27.6491 324.533 28.8494 326.166 30.4972C327.814 32.1449 329.114 34.3324 330.065 37.0597C331.031 39.7727 331.521 43.1037 331.536 47.0526C331.536 50.7599 331.116 54.0696 330.278 56.9815C329.455 59.8793 328.268 62.3438 326.72 64.375C325.172 66.4062 323.304 67.9545 321.116 69.0199C318.929 70.071 316.486 70.5966 313.787 70.5966C310.875 70.5966 308.304 70.0355 306.074 68.9134C303.844 67.777 302.047 66.2358 300.683 64.2898C299.334 62.3295 298.517 60.1278 298.233 57.6847H307.331C307.686 59.2756 308.432 60.5114 309.568 61.392C310.705 62.2585 312.111 62.6918 313.787 62.6918C316.628 62.6918 318.787 61.456 320.264 58.9844C321.741 56.4986 322.487 53.0966 322.501 48.7784H322.203C321.55 50.0568 320.669 51.1577 319.561 52.081C318.453 52.9901 317.182 53.6932 315.747 54.1903C314.327 54.6875 312.814 54.9361 311.209 54.9361C308.638 54.9361 306.344 54.3324 304.327 53.125C302.31 51.9176 300.719 50.2557 299.554 48.1392C298.389 46.0227 297.807 43.608 297.807 40.8949C297.793 37.9688 298.467 35.3622 299.831 33.0753C301.195 30.7884 303.098 28.9986 305.541 27.706C307.999 26.3991 310.854 25.7528 314.107 25.767ZM314.17 33.0114C312.736 33.0114 311.457 33.3523 310.335 34.0341C309.227 34.7159 308.347 35.6321 307.693 36.7827C307.054 37.9332 306.741 39.2187 306.756 40.6392C306.756 42.0739 307.068 43.3665 307.693 44.517C308.332 45.6534 309.199 46.5625 310.293 47.2443C311.401 47.9119 312.665 48.2457 314.085 48.2457C315.151 48.2457 316.138 48.0469 317.047 47.6491C317.956 47.2514 318.744 46.7045 319.412 46.0085C320.094 45.2983 320.626 44.4815 321.01 43.5582C321.393 42.6349 321.585 41.6548 321.585 40.6179C321.571 39.2401 321.244 37.9759 320.605 36.8253C319.966 35.6747 319.085 34.7514 317.963 34.0554C316.841 33.3594 315.577 33.0114 314.17 33.0114ZM353.716 25.767C355.96 25.767 358.119 26.1435 360.193 26.8963C362.281 27.6491 364.142 28.8494 365.776 30.4972C367.423 32.1449 368.723 34.3324 369.675 37.0597C370.641 39.7727 371.131 43.1037 371.145 47.0526C371.145 50.7599 370.726 54.0696 369.888 56.9815C369.064 59.8793 367.878 62.3438 366.33 64.375C364.781 66.4062 362.913 67.9545 360.726 69.0199C358.538 70.071 356.095 70.5966 353.396 70.5966C350.484 70.5966 347.913 70.0355 345.683 68.9134C343.453 67.777 341.656 66.2358 340.293 64.2898C338.943 62.3295 338.126 60.1278 337.842 57.6847H346.94C347.295 59.2756 348.041 60.5114 349.178 61.392C350.314 62.2585 351.72 62.6918 353.396 62.6918C356.237 62.6918 358.396 61.456 359.874 58.9844C361.351 56.4986 362.097 53.0966 362.111 48.7784H361.812C361.159 50.0568 360.278 51.1577 359.17 52.081C358.063 52.9901 356.791 53.6932 355.357 54.1903C353.936 54.6875 352.423 54.9361 350.818 54.9361C348.247 54.9361 345.953 54.3324 343.936 53.125C341.919 51.9176 340.328 50.2557 339.163 48.1392C337.999 46.0227 337.416 43.608 337.416 40.8949C337.402 37.9688 338.077 35.3622 339.44 33.0753C340.804 30.7884 342.707 28.9986 345.151 27.706C347.608 26.3991 350.463 25.7528 353.716 25.767ZM353.78 33.0114C352.345 33.0114 351.067 33.3523 349.945 34.0341C348.837 34.7159 347.956 35.6321 347.303 36.7827C346.663 37.9332 346.351 39.2187 346.365 40.6392C346.365 42.0739 346.678 43.3665 347.303 44.517C347.942 45.6534 348.808 46.5625 349.902 47.2443C351.01 47.9119 352.274 48.2457 353.695 48.2457C354.76 48.2457 355.747 48.0469 356.656 47.6491C357.565 47.2514 358.354 46.7045 359.021 46.0085C359.703 45.2983 360.236 44.4815 360.619 43.5582C361.003 42.6349 361.195 41.6548 361.195 40.6179C361.18 39.2401 360.854 37.9759 360.214 36.8253C359.575 35.6747 358.695 34.7514 357.572 34.0554C356.45 33.3594 355.186 33.0114 353.78 33.0114Z" fill="#24252C"/>
<path d="M24.636 28.86C24.968 28.86 25.26 28.816 25.512 28.728C25.768 28.64 25.982 28.518 26.154 28.362C26.33 28.202 26.462 28.012 26.55 27.792C26.638 27.572 26.682 27.33 26.682 27.066C26.682 26.518 26.512 26.09 26.172 25.782C25.836 25.474 25.324 25.32 24.636 25.32H23.256V28.86H24.636ZM24.636 24.402C25.18 24.402 25.652 24.466 26.052 24.594C26.456 24.718 26.79 24.896 27.054 25.128C27.318 25.36 27.514 25.64 27.642 25.968C27.774 26.296 27.84 26.662 27.84 27.066C27.84 27.466 27.77 27.832 27.63 28.164C27.49 28.496 27.284 28.782 27.012 29.022C26.744 29.262 26.41 29.45 26.01 29.586C25.614 29.718 25.156 29.784 24.636 29.784H23.256V33H22.098V24.402H24.636ZM32.9246 29.298C32.9246 29.05 32.8886 28.824 32.8166 28.62C32.7486 28.412 32.6466 28.234 32.5106 28.086C32.3786 27.934 32.2166 27.818 32.0246 27.738C31.8326 27.654 31.6146 27.612 31.3706 27.612C30.8586 27.612 30.4526 27.762 30.1526 28.062C29.8566 28.358 29.6726 28.77 29.6006 29.298H32.9246ZM33.7886 32.148C33.6566 32.308 33.4986 32.448 33.3146 32.568C33.1306 32.684 32.9326 32.78 32.7206 32.856C32.5126 32.932 32.2966 32.988 32.0726 33.024C31.8486 33.064 31.6266 33.084 31.4066 33.084C30.9866 33.084 30.5986 33.014 30.2426 32.874C29.8906 32.73 29.5846 32.522 29.3246 32.25C29.0686 31.974 28.8686 31.634 28.7246 31.23C28.5806 30.826 28.5086 30.362 28.5086 29.838C28.5086 29.414 28.5726 29.018 28.7006 28.65C28.8326 28.282 29.0206 27.964 29.2646 27.696C29.5086 27.424 29.8066 27.212 30.1586 27.06C30.5106 26.904 30.9066 26.826 31.3466 26.826C31.7106 26.826 32.0466 26.888 32.3546 27.012C32.6666 27.132 32.9346 27.308 33.1586 27.54C33.3866 27.768 33.5646 28.052 33.6926 28.392C33.8206 28.728 33.8846 29.112 33.8846 29.544C33.8846 29.712 33.8666 29.824 33.8306 29.88C33.7946 29.936 33.7266 29.964 33.6266 29.964H29.5646C29.5766 30.348 29.6286 30.682 29.7206 30.966C29.8166 31.25 29.9486 31.488 30.1166 31.68C30.2846 31.868 30.4846 32.01 30.7166 32.106C30.9486 32.198 31.2086 32.244 31.4966 32.244C31.7646 32.244 31.9946 32.214 32.1866 32.154C32.3826 32.09 32.5506 32.022 32.6906 31.95C32.8306 31.878 32.9466 31.812 33.0386 31.752C33.1346 31.688 33.2166 31.656 33.2846 31.656C33.3726 31.656 33.4406 31.69 33.4886 31.758L33.7886 32.148ZM36.3305 28.14C36.5225 27.724 36.7585 27.4 37.0385 27.168C37.3185 26.932 37.6605 26.814 38.0645 26.814C38.1925 26.814 38.3145 26.828 38.4305 26.856C38.5505 26.884 38.6565 26.928 38.7485 26.988L38.6705 27.786C38.6465 27.886 38.5865 27.936 38.4905 27.936C38.4345 27.936 38.3525 27.924 38.2445 27.9C38.1365 27.876 38.0145 27.864 37.8785 27.864C37.6865 27.864 37.5145 27.892 37.3625 27.948C37.2145 28.004 37.0805 28.088 36.9605 28.2C36.8445 28.308 36.7385 28.444 36.6425 28.608C36.5505 28.768 36.4665 28.952 36.3905 29.16V33H35.3165V26.922H35.9285C36.0445 26.922 36.1245 26.944 36.1685 26.988C36.2125 27.032 36.2425 27.108 36.2585 27.216L36.3305 28.14ZM40.2036 33V27.834L39.5316 27.756C39.4476 27.736 39.3776 27.706 39.3216 27.666C39.2696 27.622 39.2436 27.56 39.2436 27.48V27.042H40.2036V26.454C40.2036 26.106 40.2516 25.798 40.3476 25.53C40.4476 25.258 40.5876 25.03 40.7676 24.846C40.9516 24.658 41.1716 24.516 41.4276 24.42C41.6836 24.324 41.9716 24.276 42.2916 24.276C42.5636 24.276 42.8136 24.316 43.0416 24.396L43.0176 24.93C43.0096 25.026 42.9556 25.078 42.8556 25.086C42.7596 25.094 42.6296 25.098 42.4656 25.098C42.2816 25.098 42.1136 25.122 41.9616 25.17C41.8136 25.218 41.6856 25.296 41.5776 25.404C41.4696 25.512 41.3856 25.654 41.3256 25.83C41.2696 26.006 41.2416 26.224 41.2416 26.484V27.042H42.9936V27.816H41.2776V33H40.2036ZM48.0034 29.298C48.0034 29.05 47.9674 28.824 47.8954 28.62C47.8274 28.412 47.7254 28.234 47.5894 28.086C47.4574 27.934 47.2954 27.818 47.1034 27.738C46.9114 27.654 46.6934 27.612 46.4494 27.612C45.9374 27.612 45.5314 27.762 45.2314 28.062C44.9354 28.358 44.7514 28.77 44.6794 29.298H48.0034ZM48.8674 32.148C48.7354 32.308 48.5774 32.448 48.3934 32.568C48.2094 32.684 48.0114 32.78 47.7994 32.856C47.5914 32.932 47.3754 32.988 47.1514 33.024C46.9274 33.064 46.7054 33.084 46.4854 33.084C46.0654 33.084 45.6774 33.014 45.3214 32.874C44.9694 32.73 44.6634 32.522 44.4034 32.25C44.1474 31.974 43.9474 31.634 43.8034 31.23C43.6594 30.826 43.5874 30.362 43.5874 29.838C43.5874 29.414 43.6514 29.018 43.7794 28.65C43.9114 28.282 44.0994 27.964 44.3434 27.696C44.5874 27.424 44.8854 27.212 45.2374 27.06C45.5894 26.904 45.9854 26.826 46.4254 26.826C46.7894 26.826 47.1254 26.888 47.4334 27.012C47.7454 27.132 48.0134 27.308 48.2374 27.54C48.4654 27.768 48.6434 28.052 48.7714 28.392C48.8994 28.728 48.9634 29.112 48.9634 29.544C48.9634 29.712 48.9454 29.824 48.9094 29.88C48.8734 29.936 48.8054 29.964 48.7054 29.964H44.6434C44.6554 30.348 44.7074 30.682 44.7994 30.966C44.8954 31.25 45.0274 31.488 45.1954 31.68C45.3634 31.868 45.5634 32.01 45.7954 32.106C46.0274 32.198 46.2874 32.244 46.5754 32.244C46.8434 32.244 47.0734 32.214 47.2654 32.154C47.4614 32.09 47.6294 32.022 47.7694 31.95C47.9094 31.878 48.0254 31.812 48.1174 31.752C48.2134 31.688 48.2954 31.656 48.3634 31.656C48.4514 31.656 48.5194 31.69 48.5674 31.758L48.8674 32.148ZM54.6252 28.002C54.5932 28.046 54.5612 28.08 54.5292 28.104C54.4972 28.128 54.4532 28.14 54.3972 28.14C54.3372 28.14 54.2712 28.116 54.1992 28.068C54.1272 28.016 54.0372 27.96 53.9292 27.9C53.8252 27.84 53.6952 27.786 53.5392 27.738C53.3872 27.686 53.1992 27.66 52.9752 27.66C52.6752 27.66 52.4112 27.714 52.1832 27.822C51.9552 27.926 51.7632 28.078 51.6072 28.278C51.4552 28.478 51.3392 28.72 51.2592 29.004C51.1832 29.288 51.1452 29.606 51.1452 29.958C51.1452 30.326 51.1872 30.654 51.2712 30.942C51.3552 31.226 51.4732 31.466 51.6252 31.662C51.7812 31.854 51.9672 32.002 52.1832 32.106C52.4032 32.206 52.6492 32.256 52.9212 32.256C53.1812 32.256 53.3952 32.226 53.5632 32.166C53.7312 32.102 53.8692 32.032 53.9772 31.956C54.0892 31.88 54.1812 31.812 54.2532 31.752C54.3292 31.688 54.4032 31.656 54.4752 31.656C54.5632 31.656 54.6312 31.69 54.6792 31.758L54.9792 32.148C54.8472 32.312 54.6972 32.452 54.5292 32.568C54.3612 32.684 54.1792 32.782 53.9832 32.862C53.7912 32.938 53.5892 32.994 53.3772 33.03C53.1652 33.066 52.9492 33.084 52.7292 33.084C52.3492 33.084 51.9952 33.014 51.6672 32.874C51.3432 32.734 51.0612 32.532 50.8212 32.268C50.5812 32 50.3932 31.672 50.2572 31.284C50.1212 30.896 50.0532 30.454 50.0532 29.958C50.0532 29.506 50.1152 29.088 50.2392 28.704C50.3672 28.32 50.5512 27.99 50.7912 27.714C51.0352 27.434 51.3332 27.216 51.6852 27.06C52.0412 26.904 52.4492 26.826 52.9092 26.826C53.3372 26.826 53.7132 26.896 54.0372 27.036C54.3652 27.172 54.6552 27.366 54.9072 27.618L54.6252 28.002ZM58.1117 33.096C57.6317 33.096 57.2617 32.962 57.0017 32.694C56.7457 32.426 56.6177 32.04 56.6177 31.536V27.816H55.8857C55.8217 27.816 55.7677 27.798 55.7237 27.762C55.6797 27.722 55.6577 27.662 55.6577 27.582V27.156L56.6537 27.03L56.8997 25.152C56.9117 25.092 56.9377 25.044 56.9777 25.008C57.0217 24.968 57.0777 24.948 57.1457 24.948H57.6857V27.042H59.4437V27.816H57.6857V31.464C57.6857 31.72 57.7477 31.91 57.8717 32.034C57.9957 32.158 58.1557 32.22 58.3517 32.22C58.4637 32.22 58.5597 32.206 58.6397 32.178C58.7237 32.146 58.7957 32.112 58.8557 32.076C58.9157 32.04 58.9657 32.008 59.0057 31.98C59.0497 31.948 59.0877 31.932 59.1197 31.932C59.1757 31.932 59.2257 31.966 59.2697 32.034L59.5817 32.544C59.3977 32.716 59.1757 32.852 58.9157 32.952C58.6557 33.048 58.3877 33.096 58.1117 33.096ZM64.2528 33V27.834L63.5808 27.756C63.4968 27.736 63.4268 27.706 63.3708 27.666C63.3188 27.622 63.2928 27.56 63.2928 27.48V27.042H64.2528V26.454C64.2528 26.106 64.3008 25.798 64.3968 25.53C64.4968 25.258 64.6368 25.03 64.8168 24.846C65.0008 24.658 65.2208 24.516 65.4768 24.42C65.7328 24.324 66.0208 24.276 66.3408 24.276C66.6128 24.276 66.8628 24.316 67.0908 24.396L67.0668 24.93C67.0588 25.026 67.0048 25.078 66.9048 25.086C66.8088 25.094 66.6788 25.098 66.5148 25.098C66.3308 25.098 66.1628 25.122 66.0108 25.17C65.8628 25.218 65.7348 25.296 65.6268 25.404C65.5188 25.512 65.4348 25.654 65.3748 25.83C65.3188 26.006 65.2908 26.224 65.2908 26.484V27.042H67.0428V27.816H65.3268V33H64.2528ZM70.5466 26.826C70.9906 26.826 71.3906 26.9 71.7466 27.048C72.1026 27.196 72.4066 27.406 72.6586 27.678C72.9106 27.95 73.1026 28.28 73.2346 28.668C73.3706 29.052 73.4386 29.482 73.4386 29.958C73.4386 30.438 73.3706 30.87 73.2346 31.254C73.1026 31.638 72.9106 31.966 72.6586 32.238C72.4066 32.51 72.1026 32.72 71.7466 32.868C71.3906 33.012 70.9906 33.084 70.5466 33.084C70.0986 33.084 69.6946 33.012 69.3346 32.868C68.9786 32.72 68.6746 32.51 68.4226 32.238C68.1706 31.966 67.9766 31.638 67.8406 31.254C67.7086 30.87 67.6426 30.438 67.6426 29.958C67.6426 29.482 67.7086 29.052 67.8406 28.668C67.9766 28.28 68.1706 27.95 68.4226 27.678C68.6746 27.406 68.9786 27.196 69.3346 27.048C69.6946 26.9 70.0986 26.826 70.5466 26.826ZM70.5466 32.25C71.1466 32.25 71.5946 32.05 71.8906 31.65C72.1866 31.246 72.3346 30.684 72.3346 29.964C72.3346 29.24 72.1866 28.676 71.8906 28.272C71.5946 27.868 71.1466 27.666 70.5466 27.666C70.2426 27.666 69.9766 27.718 69.7486 27.822C69.5246 27.926 69.3366 28.076 69.1846 28.272C69.0366 28.468 68.9246 28.71 68.8486 28.998C68.7766 29.282 68.7406 29.604 68.7406 29.964C68.7406 30.684 68.8886 31.246 69.1846 31.65C69.4846 32.05 69.9386 32.25 70.5466 32.25ZM75.9272 28.14C76.1192 27.724 76.3552 27.4 76.6352 27.168C76.9152 26.932 77.2572 26.814 77.6612 26.814C77.7892 26.814 77.9112 26.828 78.0272 26.856C78.1472 26.884 78.2532 26.928 78.3452 26.988L78.2672 27.786C78.2432 27.886 78.1832 27.936 78.0872 27.936C78.0312 27.936 77.9492 27.924 77.8412 27.9C77.7332 27.876 77.6112 27.864 77.4752 27.864C77.2832 27.864 77.1112 27.892 76.9592 27.948C76.8112 28.004 76.6772 28.088 76.5572 28.2C76.4412 28.308 76.3352 28.444 76.2392 28.608C76.1472 28.768 76.0632 28.952 75.9872 29.16V33H74.9132V26.922H75.5252C75.6412 26.922 75.7212 26.944 75.7652 26.988C75.8092 27.032 75.8392 27.108 75.8552 27.216L75.9272 28.14ZM85.6308 30.264C85.1388 30.28 84.7188 30.32 84.3708 30.384C84.0268 30.444 83.7448 30.524 83.5248 30.624C83.3088 30.724 83.1508 30.842 83.0508 30.978C82.9548 31.114 82.9068 31.266 82.9068 31.434C82.9068 31.594 82.9328 31.732 82.9848 31.848C83.0368 31.964 83.1068 32.06 83.1948 32.136C83.2868 32.208 83.3928 32.262 83.5128 32.298C83.6368 32.33 83.7688 32.346 83.9088 32.346C84.0968 32.346 84.2688 32.328 84.4248 32.292C84.5808 32.252 84.7268 32.196 84.8628 32.124C85.0028 32.052 85.1348 31.966 85.2588 31.866C85.3868 31.766 85.5108 31.652 85.6308 31.524V30.264ZM82.1808 27.78C82.5168 27.456 82.8788 27.214 83.2668 27.054C83.6548 26.894 84.0848 26.814 84.5568 26.814C84.8968 26.814 85.1988 26.87 85.4628 26.982C85.7268 27.094 85.9488 27.25 86.1288 27.45C86.3088 27.65 86.4448 27.892 86.5368 28.176C86.6288 28.46 86.6748 28.772 86.6748 29.112V33H86.2008C86.0968 33 86.0168 32.984 85.9608 32.952C85.9048 32.916 85.8608 32.848 85.8288 32.748L85.7088 32.172C85.5488 32.32 85.3928 32.452 85.2408 32.568C85.0888 32.68 84.9288 32.776 84.7608 32.856C84.5928 32.932 84.4128 32.99 84.2208 33.03C84.0328 33.074 83.8228 33.096 83.5908 33.096C83.3548 33.096 83.1328 33.064 82.9248 33C82.7168 32.932 82.5348 32.832 82.3788 32.7C82.2268 32.568 82.1048 32.402 82.0128 32.202C81.9248 31.998 81.8808 31.758 81.8808 31.482C81.8808 31.242 81.9468 31.012 82.0788 30.792C82.2108 30.568 82.4248 30.37 82.7208 30.198C83.0168 30.026 83.4028 29.886 83.8788 29.778C84.3548 29.666 84.9388 29.602 85.6308 29.586V29.112C85.6308 28.64 85.5288 28.284 85.3248 28.044C85.1208 27.8 84.8228 27.678 84.4308 27.678C84.1668 27.678 83.9448 27.712 83.7648 27.78C83.5888 27.844 83.4348 27.918 83.3028 28.002C83.1748 28.082 83.0628 28.156 82.9668 28.224C82.8748 28.288 82.7828 28.32 82.6908 28.32C82.6188 28.32 82.5568 28.302 82.5048 28.266C82.4528 28.226 82.4088 28.178 82.3728 28.122L82.1808 27.78ZM95.1519 27.924C95.1039 28.012 95.0299 28.056 94.9299 28.056C94.8699 28.056 94.8019 28.034 94.7259 27.99C94.6499 27.946 94.5559 27.898 94.4439 27.846C94.3359 27.79 94.2059 27.74 94.0539 27.696C93.9019 27.648 93.7219 27.624 93.5139 27.624C93.3339 27.624 93.1719 27.648 93.0279 27.696C92.8839 27.74 92.7599 27.802 92.6559 27.882C92.5559 27.962 92.4779 28.056 92.4219 28.164C92.3699 28.268 92.3439 28.382 92.3439 28.506C92.3439 28.662 92.3879 28.792 92.4759 28.896C92.5679 29 92.6879 29.09 92.8359 29.166C92.9839 29.242 93.1519 29.31 93.3399 29.37C93.5279 29.426 93.7199 29.488 93.9159 29.556C94.1159 29.62 94.3099 29.692 94.4979 29.772C94.6859 29.852 94.8539 29.952 95.0019 30.072C95.1499 30.192 95.2679 30.34 95.3559 30.516C95.4479 30.688 95.4939 30.896 95.4939 31.14C95.4939 31.42 95.4439 31.68 95.3439 31.92C95.2439 32.156 95.0959 32.362 94.8999 32.538C94.7039 32.71 94.4639 32.846 94.1799 32.946C93.8959 33.046 93.5679 33.096 93.1959 33.096C92.7719 33.096 92.3879 33.028 92.0439 32.892C91.6999 32.752 91.4079 32.574 91.1679 32.358L91.4199 31.95C91.4519 31.898 91.4899 31.858 91.5339 31.83C91.5779 31.802 91.6339 31.788 91.7019 31.788C91.7739 31.788 91.8499 31.816 91.9299 31.872C92.0099 31.928 92.1059 31.99 92.2179 32.058C92.3339 32.126 92.4739 32.188 92.6379 32.244C92.8019 32.3 93.0059 32.328 93.2499 32.328C93.4579 32.328 93.6399 32.302 93.7959 32.25C93.9519 32.194 94.0819 32.12 94.1859 32.028C94.2899 31.936 94.3659 31.83 94.4139 31.71C94.4659 31.59 94.4919 31.462 94.4919 31.326C94.4919 31.158 94.4459 31.02 94.3539 30.912C94.2659 30.8 94.1479 30.706 93.9999 30.63C93.8519 30.55 93.6819 30.482 93.4899 30.426C93.3019 30.366 93.1079 30.304 92.9079 30.24C92.7119 30.176 92.5179 30.104 92.3259 30.024C92.1379 29.94 91.9699 29.836 91.8219 29.712C91.6739 29.588 91.5539 29.436 91.4619 29.256C91.3739 29.072 91.3299 28.85 91.3299 28.59C91.3299 28.358 91.3779 28.136 91.4739 27.924C91.5699 27.708 91.7099 27.52 91.8939 27.36C92.0779 27.196 92.3039 27.066 92.5719 26.97C92.8399 26.874 93.1459 26.826 93.4899 26.826C93.8899 26.826 94.2479 26.89 94.5639 27.018C94.8839 27.142 95.1599 27.314 95.3919 27.534L95.1519 27.924ZM98.7893 33.096C98.3093 33.096 97.9393 32.962 97.6793 32.694C97.4233 32.426 97.2953 32.04 97.2953 31.536V27.816H96.5633C96.4993 27.816 96.4453 27.798 96.4013 27.762C96.3573 27.722 96.3353 27.662 96.3353 27.582V27.156L97.3313 27.03L97.5773 25.152C97.5893 25.092 97.6153 25.044 97.6553 25.008C97.6993 24.968 97.7553 24.948 97.8233 24.948H98.3633V27.042H100.121V27.816H98.3633V31.464C98.3633 31.72 98.4253 31.91 98.5493 32.034C98.6733 32.158 98.8333 32.22 99.0293 32.22C99.1413 32.22 99.2373 32.206 99.3173 32.178C99.4013 32.146 99.4733 32.112 99.5333 32.076C99.5933 32.04 99.6433 32.008 99.6833 31.98C99.7273 31.948 99.7653 31.932 99.7973 31.932C99.8533 31.932 99.9033 31.966 99.9473 32.034L100.259 32.544C100.075 32.716 99.8533 32.852 99.5933 32.952C99.3333 33.048 99.0653 33.096 98.7893 33.096ZM104.638 30.264C104.146 30.28 103.726 30.32 103.378 30.384C103.034 30.444 102.752 30.524 102.532 30.624C102.316 30.724 102.158 30.842 102.058 30.978C101.962 31.114 101.914 31.266 101.914 31.434C101.914 31.594 101.94 31.732 101.992 31.848C102.044 31.964 102.114 32.06 102.202 32.136C102.294 32.208 102.4 32.262 102.52 32.298C102.644 32.33 102.776 32.346 102.916 32.346C103.104 32.346 103.276 32.328 103.432 32.292C103.588 32.252 103.734 32.196 103.87 32.124C104.01 32.052 104.142 31.966 104.266 31.866C104.394 31.766 104.518 31.652 104.638 31.524V30.264ZM101.188 27.78C101.524 27.456 101.886 27.214 102.274 27.054C102.662 26.894 103.092 26.814 103.564 26.814C103.904 26.814 104.206 26.87 104.47 26.982C104.734 27.094 104.956 27.25 105.136 27.45C105.316 27.65 105.452 27.892 105.544 28.176C105.636 28.46 105.682 28.772 105.682 29.112V33H105.208C105.104 33 105.024 32.984 104.968 32.952C104.912 32.916 104.868 32.848 104.836 32.748L104.716 32.172C104.556 32.32 104.4 32.452 104.248 32.568C104.096 32.68 103.936 32.776 103.768 32.856C103.6 32.932 103.42 32.99 103.228 33.03C103.04 33.074 102.83 33.096 102.598 33.096C102.362 33.096 102.14 33.064 101.932 33C101.724 32.932 101.542 32.832 101.386 32.7C101.234 32.568 101.112 32.402 101.02 32.202C100.932 31.998 100.888 31.758 100.888 31.482C100.888 31.242 100.954 31.012 101.086 30.792C101.218 30.568 101.432 30.37 101.728 30.198C102.024 30.026 102.41 29.886 102.886 29.778C103.362 29.666 103.946 29.602 104.638 29.586V29.112C104.638 28.64 104.536 28.284 104.332 28.044C104.128 27.8 103.83 27.678 103.438 27.678C103.174 27.678 102.952 27.712 102.772 27.78C102.596 27.844 102.442 27.918 102.31 28.002C102.182 28.082 102.07 28.156 101.974 28.224C101.882 28.288 101.79 28.32 101.698 28.32C101.626 28.32 101.564 28.302 101.512 28.266C101.46 28.226 101.416 28.178 101.38 28.122L101.188 27.78ZM108.443 28.14C108.635 27.724 108.871 27.4 109.151 27.168C109.431 26.932 109.773 26.814 110.177 26.814C110.305 26.814 110.427 26.828 110.543 26.856C110.663 26.884 110.769 26.928 110.861 26.988L110.783 27.786C110.759 27.886 110.699 27.936 110.603 27.936C110.547 27.936 110.465 27.924 110.357 27.9C110.249 27.876 110.127 27.864 109.991 27.864C109.799 27.864 109.627 27.892 109.475 27.948C109.327 28.004 109.193 28.088 109.073 28.2C108.957 28.308 108.851 28.444 108.755 28.608C108.663 28.768 108.579 28.952 108.503 29.16V33H107.429V26.922H108.041C108.157 26.922 108.237 26.944 108.281 26.988C108.325 27.032 108.355 27.108 108.371 27.216L108.443 28.14ZM113.786 33.096C113.306 33.096 112.936 32.962 112.676 32.694C112.42 32.426 112.292 32.04 112.292 31.536V27.816H111.56C111.496 27.816 111.442 27.798 111.398 27.762C111.354 27.722 111.332 27.662 111.332 27.582V27.156L112.328 27.03L112.574 25.152C112.586 25.092 112.612 25.044 112.652 25.008C112.696 24.968 112.752 24.948 112.82 24.948H113.36V27.042H115.118V27.816H113.36V31.464C113.36 31.72 113.422 31.91 113.546 32.034C113.67 32.158 113.83 32.22 114.026 32.22C114.138 32.22 114.234 32.206 114.314 32.178C114.398 32.146 114.47 32.112 114.53 32.076C114.59 32.04 114.64 32.008 114.68 31.98C114.724 31.948 114.762 31.932 114.794 31.932C114.85 31.932 114.9 31.966 114.944 32.034L115.256 32.544C115.072 32.716 114.85 32.852 114.59 32.952C114.33 33.048 114.062 33.096 113.786 33.096ZM121.339 26.922V33H120.703C120.551 33 120.455 32.926 120.415 32.778L120.331 32.124C120.067 32.416 119.771 32.652 119.443 32.832C119.115 33.008 118.739 33.096 118.315 33.096C117.983 33.096 117.689 33.042 117.433 32.934C117.181 32.822 116.969 32.666 116.797 32.466C116.625 32.266 116.495 32.024 116.407 31.74C116.323 31.456 116.281 31.142 116.281 30.798V26.922H117.349V30.798C117.349 31.258 117.453 31.614 117.661 31.866C117.873 32.118 118.195 32.244 118.627 32.244C118.943 32.244 119.237 32.17 119.509 32.022C119.785 31.87 120.039 31.662 120.271 31.398V26.922H121.339ZM124.226 31.536C124.422 31.8 124.636 31.986 124.868 32.094C125.1 32.202 125.36 32.256 125.648 32.256C126.216 32.256 126.652 32.054 126.956 31.65C127.26 31.246 127.412 30.67 127.412 29.922C127.412 29.526 127.376 29.186 127.304 28.902C127.236 28.618 127.136 28.386 127.004 28.206C126.872 28.022 126.71 27.888 126.518 27.804C126.326 27.72 126.108 27.678 125.864 27.678C125.516 27.678 125.21 27.758 124.946 27.918C124.686 28.078 124.446 28.304 124.226 28.596V31.536ZM124.172 27.864C124.428 27.548 124.724 27.294 125.06 27.102C125.396 26.91 125.78 26.814 126.212 26.814C126.564 26.814 126.882 26.882 127.166 27.018C127.45 27.15 127.692 27.348 127.892 27.612C128.092 27.872 128.246 28.196 128.354 28.584C128.462 28.972 128.516 29.418 128.516 29.922C128.516 30.37 128.456 30.788 128.336 31.176C128.216 31.56 128.042 31.894 127.814 32.178C127.59 32.458 127.314 32.68 126.986 32.844C126.662 33.004 126.296 33.084 125.888 33.084C125.516 33.084 125.196 33.022 124.928 32.898C124.664 32.77 124.43 32.594 124.226 32.37V35.058H123.152V26.922H123.794C123.946 26.922 124.04 26.996 124.076 27.144L124.172 27.864ZM135.751 26.826C136.195 26.826 136.595 26.9 136.951 27.048C137.307 27.196 137.611 27.406 137.863 27.678C138.115 27.95 138.307 28.28 138.439 28.668C138.575 29.052 138.643 29.482 138.643 29.958C138.643 30.438 138.575 30.87 138.439 31.254C138.307 31.638 138.115 31.966 137.863 32.238C137.611 32.51 137.307 32.72 136.951 32.868C136.595 33.012 136.195 33.084 135.751 33.084C135.303 33.084 134.899 33.012 134.539 32.868C134.183 32.72 133.879 32.51 133.627 32.238C133.375 31.966 133.181 31.638 133.045 31.254C132.913 30.87 132.847 30.438 132.847 29.958C132.847 29.482 132.913 29.052 133.045 28.668C133.181 28.28 133.375 27.95 133.627 27.678C133.879 27.406 134.183 27.196 134.539 27.048C134.899 26.9 135.303 26.826 135.751 26.826ZM135.751 32.25C136.351 32.25 136.799 32.05 137.095 31.65C137.391 31.246 137.539 30.684 137.539 29.964C137.539 29.24 137.391 28.676 137.095 28.272C136.799 27.868 136.351 27.666 135.751 27.666C135.447 27.666 135.181 27.718 134.953 27.822C134.729 27.926 134.541 28.076 134.389 28.272C134.241 28.468 134.129 28.71 134.053 28.998C133.981 29.282 133.945 29.604 133.945 29.964C133.945 30.684 134.093 31.246 134.389 31.65C134.689 32.05 135.143 32.25 135.751 32.25ZM141.132 28.14C141.324 27.724 141.56 27.4 141.84 27.168C142.12 26.932 142.462 26.814 142.866 26.814C142.994 26.814 143.116 26.828 143.232 26.856C143.352 26.884 143.458 26.928 143.55 26.988L143.472 27.786C143.448 27.886 143.388 27.936 143.292 27.936C143.236 27.936 143.154 27.924 143.046 27.9C142.938 27.876 142.816 27.864 142.68 27.864C142.488 27.864 142.316 27.892 142.164 27.948C142.016 28.004 141.882 28.088 141.762 28.2C141.646 28.308 141.54 28.444 141.444 28.608C141.352 28.768 141.268 28.952 141.192 29.16V33H140.118V26.922H140.73C140.846 26.922 140.926 26.944 140.97 26.988C141.014 27.032 141.044 27.108 141.06 27.216L141.132 28.14ZM147.541 33V26.922H148.183C148.335 26.922 148.429 26.996 148.465 27.144L148.543 27.768C148.767 27.492 149.019 27.266 149.299 27.09C149.579 26.914 149.903 26.826 150.271 26.826C150.679 26.826 151.009 26.94 151.261 27.168C151.517 27.396 151.701 27.704 151.813 28.092C151.901 27.872 152.013 27.682 152.149 27.522C152.289 27.362 152.445 27.23 152.617 27.126C152.789 27.022 152.971 26.946 153.163 26.898C153.359 26.85 153.557 26.826 153.757 26.826C154.077 26.826 154.361 26.878 154.609 26.982C154.861 27.082 155.073 27.23 155.245 27.426C155.421 27.622 155.555 27.864 155.647 28.152C155.739 28.436 155.785 28.762 155.785 29.13V33H154.711V29.13C154.711 28.654 154.607 28.294 154.399 28.05C154.191 27.802 153.891 27.678 153.499 27.678C153.323 27.678 153.155 27.71 152.995 27.774C152.839 27.834 152.701 27.924 152.581 28.044C152.461 28.164 152.365 28.316 152.293 28.5C152.225 28.68 152.191 28.89 152.191 29.13V33H151.117V29.13C151.117 28.642 151.019 28.278 150.823 28.038C150.627 27.798 150.341 27.678 149.965 27.678C149.701 27.678 149.457 27.75 149.233 27.894C149.009 28.034 148.803 28.226 148.615 28.47V33H147.541ZM158.656 26.922V33H157.588V26.922H158.656ZM158.884 25.014C158.884 25.118 158.862 25.216 158.818 25.308C158.778 25.396 158.722 25.476 158.65 25.548C158.582 25.616 158.5 25.67 158.404 25.71C158.312 25.75 158.214 25.77 158.11 25.77C158.006 25.77 157.908 25.75 157.816 25.71C157.728 25.67 157.65 25.616 157.582 25.548C157.514 25.476 157.46 25.396 157.42 25.308C157.38 25.216 157.36 25.118 157.36 25.014C157.36 24.91 157.38 24.812 157.42 24.72C157.46 24.624 157.514 24.542 157.582 24.474C157.65 24.402 157.728 24.346 157.816 24.306C157.908 24.266 158.006 24.246 158.11 24.246C158.214 24.246 158.312 24.266 158.404 24.306C158.5 24.346 158.582 24.402 158.65 24.474C158.722 24.542 158.778 24.624 158.818 24.72C158.862 24.812 158.884 24.91 158.884 25.014ZM164.761 28.002C164.729 28.046 164.697 28.08 164.665 28.104C164.633 28.128 164.589 28.14 164.533 28.14C164.473 28.14 164.407 28.116 164.335 28.068C164.263 28.016 164.173 27.96 164.065 27.9C163.961 27.84 163.831 27.786 163.675 27.738C163.523 27.686 163.335 27.66 163.111 27.66C162.811 27.66 162.547 27.714 162.319 27.822C162.091 27.926 161.899 28.078 161.743 28.278C161.591 28.478 161.475 28.72 161.395 29.004C161.319 29.288 161.281 29.606 161.281 29.958C161.281 30.326 161.323 30.654 161.407 30.942C161.491 31.226 161.609 31.466 161.761 31.662C161.917 31.854 162.103 32.002 162.319 32.106C162.539 32.206 162.785 32.256 163.057 32.256C163.317 32.256 163.531 32.226 163.699 32.166C163.867 32.102 164.005 32.032 164.113 31.956C164.225 31.88 164.317 31.812 164.389 31.752C164.465 31.688 164.539 31.656 164.611 31.656C164.699 31.656 164.767 31.69 164.815 31.758L165.115 32.148C164.983 32.312 164.833 32.452 164.665 32.568C164.497 32.684 164.315 32.782 164.119 32.862C163.927 32.938 163.725 32.994 163.513 33.03C163.301 33.066 163.085 33.084 162.865 33.084C162.485 33.084 162.131 33.014 161.803 32.874C161.479 32.734 161.197 32.532 160.957 32.268C160.717 32 160.529 31.672 160.393 31.284C160.257 30.896 160.189 30.454 160.189 29.958C160.189 29.506 160.251 29.088 160.375 28.704C160.503 28.32 160.687 27.99 160.927 27.714C161.171 27.434 161.469 27.216 161.821 27.06C162.177 26.904 162.585 26.826 163.045 26.826C163.473 26.826 163.849 26.896 164.173 27.036C164.501 27.172 164.791 27.366 165.043 27.618L164.761 28.002ZM167.396 28.14C167.588 27.724 167.824 27.4 168.104 27.168C168.384 26.932 168.726 26.814 169.13 26.814C169.258 26.814 169.38 26.828 169.496 26.856C169.616 26.884 169.722 26.928 169.814 26.988L169.736 27.786C169.712 27.886 169.652 27.936 169.556 27.936C169.5 27.936 169.418 27.924 169.31 27.9C169.202 27.876 169.08 27.864 168.944 27.864C168.752 27.864 168.58 27.892 168.428 27.948C168.28 28.004 168.146 28.088 168.026 28.2C167.91 28.308 167.804 28.444 167.708 28.608C167.616 28.768 167.532 28.952 167.456 29.16V33H166.382V26.922H166.994C167.11 26.922 167.19 26.944 167.234 26.988C167.278 27.032 167.308 27.108 167.324 27.216L167.396 28.14ZM173.189 26.826C173.633 26.826 174.033 26.9 174.389 27.048C174.745 27.196 175.049 27.406 175.301 27.678C175.553 27.95 175.745 28.28 175.877 28.668C176.013 29.052 176.081 29.482 176.081 29.958C176.081 30.438 176.013 30.87 175.877 31.254C175.745 31.638 175.553 31.966 175.301 32.238C175.049 32.51 174.745 32.72 174.389 32.868C174.033 33.012 173.633 33.084 173.189 33.084C172.741 33.084 172.337 33.012 171.977 32.868C171.621 32.72 171.317 32.51 171.065 32.238C170.813 31.966 170.619 31.638 170.483 31.254C170.351 30.87 170.285 30.438 170.285 29.958C170.285 29.482 170.351 29.052 170.483 28.668C170.619 28.28 170.813 27.95 171.065 27.678C171.317 27.406 171.621 27.196 171.977 27.048C172.337 26.9 172.741 26.826 173.189 26.826ZM173.189 32.25C173.789 32.25 174.237 32.05 174.533 31.65C174.829 31.246 174.977 30.684 174.977 29.964C174.977 29.24 174.829 28.676 174.533 28.272C174.237 27.868 173.789 27.666 173.189 27.666C172.885 27.666 172.619 27.718 172.391 27.822C172.167 27.926 171.979 28.076 171.827 28.272C171.679 28.468 171.567 28.71 171.491 28.998C171.419 29.282 171.383 29.604 171.383 29.964C171.383 30.684 171.531 31.246 171.827 31.65C172.127 32.05 172.581 32.25 173.189 32.25ZM181.82 31.536C182.016 31.8 182.23 31.986 182.462 32.094C182.698 32.202 182.956 32.256 183.236 32.256C183.808 32.256 184.246 32.054 184.55 31.65C184.854 31.246 185.006 30.644 185.006 29.844C185.006 29.1 184.87 28.554 184.598 28.206C184.33 27.854 183.946 27.678 183.446 27.678C183.098 27.678 182.794 27.758 182.534 27.918C182.278 28.078 182.04 28.304 181.82 28.596V31.536ZM181.82 27.798C182.076 27.502 182.364 27.266 182.684 27.09C183.008 26.914 183.38 26.826 183.8 26.826C184.156 26.826 184.476 26.894 184.76 27.03C185.048 27.166 185.292 27.364 185.492 27.624C185.692 27.88 185.844 28.192 185.948 28.56C186.056 28.928 186.11 29.342 186.11 29.802C186.11 30.294 186.05 30.742 185.93 31.146C185.81 31.55 185.636 31.896 185.408 32.184C185.184 32.468 184.91 32.69 184.586 32.85C184.262 33.006 183.898 33.084 183.494 33.084C183.094 33.084 182.756 33.01 182.48 32.862C182.208 32.71 181.97 32.496 181.766 32.22L181.712 32.772C181.68 32.924 181.588 33 181.436 33H180.746V24.162H181.82V27.798ZM192.579 26.922V33H191.943C191.791 33 191.695 32.926 191.655 32.778L191.571 32.124C191.307 32.416 191.011 32.652 190.683 32.832C190.355 33.008 189.979 33.096 189.555 33.096C189.223 33.096 188.929 33.042 188.673 32.934C188.421 32.822 188.209 32.666 188.037 32.466C187.865 32.266 187.735 32.024 187.647 31.74C187.563 31.456 187.521 31.142 187.521 30.798V26.922H188.589V30.798C188.589 31.258 188.693 31.614 188.901 31.866C189.113 32.118 189.435 32.244 189.867 32.244C190.183 32.244 190.477 32.17 190.749 32.022C191.025 31.87 191.279 31.662 191.511 31.398V26.922H192.579ZM197.932 27.924C197.884 28.012 197.81 28.056 197.71 28.056C197.65 28.056 197.582 28.034 197.506 27.99C197.43 27.946 197.336 27.898 197.224 27.846C197.116 27.79 196.986 27.74 196.834 27.696C196.682 27.648 196.502 27.624 196.294 27.624C196.114 27.624 195.952 27.648 195.808 27.696C195.664 27.74 195.54 27.802 195.436 27.882C195.336 27.962 195.258 28.056 195.202 28.164C195.15 28.268 195.124 28.382 195.124 28.506C195.124 28.662 195.168 28.792 195.256 28.896C195.348 29 195.468 29.09 195.616 29.166C195.764 29.242 195.932 29.31 196.12 29.37C196.308 29.426 196.5 29.488 196.696 29.556C196.896 29.62 197.09 29.692 197.278 29.772C197.466 29.852 197.634 29.952 197.782 30.072C197.93 30.192 198.048 30.34 198.136 30.516C198.228 30.688 198.274 30.896 198.274 31.14C198.274 31.42 198.224 31.68 198.124 31.92C198.024 32.156 197.876 32.362 197.68 32.538C197.484 32.71 197.244 32.846 196.96 32.946C196.676 33.046 196.348 33.096 195.976 33.096C195.552 33.096 195.168 33.028 194.824 32.892C194.48 32.752 194.188 32.574 193.948 32.358L194.2 31.95C194.232 31.898 194.27 31.858 194.314 31.83C194.358 31.802 194.414 31.788 194.482 31.788C194.554 31.788 194.63 31.816 194.71 31.872C194.79 31.928 194.886 31.99 194.998 32.058C195.114 32.126 195.254 32.188 195.418 32.244C195.582 32.3 195.786 32.328 196.03 32.328C196.238 32.328 196.42 32.302 196.576 32.25C196.732 32.194 196.862 32.12 196.966 32.028C197.07 31.936 197.146 31.83 197.194 31.71C197.246 31.59 197.272 31.462 197.272 31.326C197.272 31.158 197.226 31.02 197.134 30.912C197.046 30.8 196.928 30.706 196.78 30.63C196.632 30.55 196.462 30.482 196.27 30.426C196.082 30.366 195.888 30.304 195.688 30.24C195.492 30.176 195.298 30.104 195.106 30.024C194.918 29.94 194.75 29.836 194.602 29.712C194.454 29.588 194.334 29.436 194.242 29.256C194.154 29.072 194.11 28.85 194.11 28.59C194.11 28.358 194.158 28.136 194.254 27.924C194.35 27.708 194.49 27.52 194.674 27.36C194.858 27.196 195.084 27.066 195.352 26.97C195.62 26.874 195.926 26.826 196.27 26.826C196.67 26.826 197.028 26.89 197.344 27.018C197.664 27.142 197.94 27.314 198.172 27.534L197.932 27.924ZM200.831 26.922V33H199.763V26.922H200.831ZM201.059 25.014C201.059 25.118 201.037 25.216 200.993 25.308C200.953 25.396 200.897 25.476 200.825 25.548C200.757 25.616 200.675 25.67 200.579 25.71C200.487 25.75 200.389 25.77 200.285 25.77C200.181 25.77 200.083 25.75 199.991 25.71C199.903 25.67 199.825 25.616 199.757 25.548C199.689 25.476 199.635 25.396 199.595 25.308C199.555 25.216 199.535 25.118 199.535 25.014C199.535 24.91 199.555 24.812 199.595 24.72C199.635 24.624 199.689 24.542 199.757 24.474C199.825 24.402 199.903 24.346 199.991 24.306C200.083 24.266 200.181 24.246 200.285 24.246C200.389 24.246 200.487 24.266 200.579 24.306C200.675 24.346 200.757 24.402 200.825 24.474C200.897 24.542 200.953 24.624 200.993 24.72C201.037 24.812 201.059 24.91 201.059 25.014ZM203.714 27.804C203.846 27.656 203.986 27.522 204.134 27.402C204.282 27.282 204.438 27.18 204.602 27.096C204.77 27.008 204.946 26.942 205.13 26.898C205.318 26.85 205.52 26.826 205.736 26.826C206.068 26.826 206.36 26.882 206.612 26.994C206.868 27.102 207.08 27.258 207.248 27.462C207.42 27.662 207.55 27.904 207.638 28.188C207.726 28.472 207.77 28.786 207.77 29.13V33H206.696V29.13C206.696 28.67 206.59 28.314 206.378 28.062C206.17 27.806 205.852 27.678 205.424 27.678C205.108 27.678 204.812 27.754 204.536 27.906C204.264 28.058 204.012 28.264 203.78 28.524V33H202.706V26.922H203.348C203.5 26.922 203.594 26.996 203.63 27.144L203.714 27.804ZM213.586 29.298C213.586 29.05 213.55 28.824 213.478 28.62C213.41 28.412 213.308 28.234 213.172 28.086C213.04 27.934 212.878 27.818 212.686 27.738C212.494 27.654 212.276 27.612 212.032 27.612C211.52 27.612 211.114 27.762 210.814 28.062C210.518 28.358 210.334 28.77 210.262 29.298H213.586ZM214.45 32.148C214.318 32.308 214.16 32.448 213.976 32.568C213.792 32.684 213.594 32.78 213.382 32.856C213.174 32.932 212.958 32.988 212.734 33.024C212.51 33.064 212.288 33.084 212.068 33.084C211.648 33.084 211.26 33.014 210.904 32.874C210.552 32.73 210.246 32.522 209.986 32.25C209.73 31.974 209.53 31.634 209.386 31.23C209.242 30.826 209.17 30.362 209.17 29.838C209.17 29.414 209.234 29.018 209.362 28.65C209.494 28.282 209.682 27.964 209.926 27.696C210.17 27.424 210.468 27.212 210.82 27.06C211.172 26.904 211.568 26.826 212.008 26.826C212.372 26.826 212.708 26.888 213.016 27.012C213.328 27.132 213.596 27.308 213.82 27.54C214.048 27.768 214.226 28.052 214.354 28.392C214.482 28.728 214.546 29.112 214.546 29.544C214.546 29.712 214.528 29.824 214.492 29.88C214.456 29.936 214.388 29.964 214.288 29.964H210.226C210.238 30.348 210.29 30.682 210.382 30.966C210.478 31.25 210.61 31.488 210.778 31.68C210.946 31.868 211.146 32.01 211.378 32.106C211.61 32.198 211.87 32.244 212.158 32.244C212.426 32.244 212.656 32.214 212.848 32.154C213.044 32.09 213.212 32.022 213.352 31.95C213.492 31.878 213.608 31.812 213.7 31.752C213.796 31.688 213.878 31.656 213.946 31.656C214.034 31.656 214.102 31.69 214.15 31.758L214.45 32.148ZM219.517 27.924C219.469 28.012 219.395 28.056 219.295 28.056C219.235 28.056 219.167 28.034 219.091 27.99C219.015 27.946 218.921 27.898 218.809 27.846C218.701 27.79 218.571 27.74 218.419 27.696C218.267 27.648 218.087 27.624 217.879 27.624C217.699 27.624 217.537 27.648 217.393 27.696C217.249 27.74 217.125 27.802 217.021 27.882C216.921 27.962 216.843 28.056 216.787 28.164C216.735 28.268 216.709 28.382 216.709 28.506C216.709 28.662 216.753 28.792 216.841 28.896C216.933 29 217.053 29.09 217.201 29.166C217.349 29.242 217.517 29.31 217.705 29.37C217.893 29.426 218.085 29.488 218.281 29.556C218.481 29.62 218.675 29.692 218.863 29.772C219.051 29.852 219.219 29.952 219.367 30.072C219.515 30.192 219.633 30.34 219.721 30.516C219.813 30.688 219.859 30.896 219.859 31.14C219.859 31.42 219.809 31.68 219.709 31.92C219.609 32.156 219.461 32.362 219.265 32.538C219.069 32.71 218.829 32.846 218.545 32.946C218.261 33.046 217.933 33.096 217.561 33.096C217.137 33.096 216.753 33.028 216.409 32.892C216.065 32.752 215.773 32.574 215.533 32.358L215.785 31.95C215.817 31.898 215.855 31.858 215.899 31.83C215.943 31.802 215.999 31.788 216.067 31.788C216.139 31.788 216.215 31.816 216.295 31.872C216.375 31.928 216.471 31.99 216.583 32.058C216.699 32.126 216.839 32.188 217.003 32.244C217.167 32.3 217.371 32.328 217.615 32.328C217.823 32.328 218.005 32.302 218.161 32.25C218.317 32.194 218.447 32.12 218.551 32.028C218.655 31.936 218.731 31.83 218.779 31.71C218.831 31.59 218.857 31.462 218.857 31.326C218.857 31.158 218.811 31.02 218.719 30.912C218.631 30.8 218.513 30.706 218.365 30.63C218.217 30.55 218.047 30.482 217.855 30.426C217.667 30.366 217.473 30.304 217.273 30.24C217.077 30.176 216.883 30.104 216.691 30.024C216.503 29.94 216.335 29.836 216.187 29.712C216.039 29.588 215.919 29.436 215.827 29.256C215.739 29.072 215.695 28.85 215.695 28.59C215.695 28.358 215.743 28.136 215.839 27.924C215.935 27.708 216.075 27.52 216.259 27.36C216.443 27.196 216.669 27.066 216.937 26.97C217.205 26.874 217.511 26.826 217.855 26.826C218.255 26.826 218.613 26.89 218.929 27.018C219.249 27.142 219.525 27.314 219.757 27.534L219.517 27.924ZM224.829 27.924C224.781 28.012 224.707 28.056 224.607 28.056C224.547 28.056 224.479 28.034 224.403 27.99C224.327 27.946 224.233 27.898 224.121 27.846C224.013 27.79 223.883 27.74 223.731 27.696C223.579 27.648 223.399 27.624 223.191 27.624C223.011 27.624 222.849 27.648 222.705 27.696C222.561 27.74 222.437 27.802 222.333 27.882C222.233 27.962 222.155 28.056 222.099 28.164C222.047 28.268 222.021 28.382 222.021 28.506C222.021 28.662 222.065 28.792 222.153 28.896C222.245 29 222.365 29.09 222.513 29.166C222.661 29.242 222.829 29.31 223.017 29.37C223.205 29.426 223.397 29.488 223.593 29.556C223.793 29.62 223.987 29.692 224.175 29.772C224.363 29.852 224.531 29.952 224.679 30.072C224.827 30.192 224.945 30.34 225.033 30.516C225.125 30.688 225.171 30.896 225.171 31.14C225.171 31.42 225.121 31.68 225.021 31.92C224.921 32.156 224.773 32.362 224.577 32.538C224.381 32.71 224.141 32.846 223.857 32.946C223.573 33.046 223.245 33.096 222.873 33.096C222.449 33.096 222.065 33.028 221.721 32.892C221.377 32.752 221.085 32.574 220.845 32.358L221.097 31.95C221.129 31.898 221.167 31.858 221.211 31.83C221.255 31.802 221.311 31.788 221.379 31.788C221.451 31.788 221.527 31.816 221.607 31.872C221.687 31.928 221.783 31.99 221.895 32.058C222.011 32.126 222.151 32.188 222.315 32.244C222.479 32.3 222.683 32.328 222.927 32.328C223.135 32.328 223.317 32.302 223.473 32.25C223.629 32.194 223.759 32.12 223.863 32.028C223.967 31.936 224.043 31.83 224.091 31.71C224.143 31.59 224.169 31.462 224.169 31.326C224.169 31.158 224.123 31.02 224.031 30.912C223.943 30.8 223.825 30.706 223.677 30.63C223.529 30.55 223.359 30.482 223.167 30.426C222.979 30.366 222.785 30.304 222.585 30.24C222.389 30.176 222.195 30.104 222.003 30.024C221.815 29.94 221.647 29.836 221.499 29.712C221.351 29.588 221.231 29.436 221.139 29.256C221.051 29.072 221.007 28.85 221.007 28.59C221.007 28.358 221.055 28.136 221.151 27.924C221.247 27.708 221.387 27.52 221.571 27.36C221.755 27.196 221.981 27.066 222.249 26.97C222.517 26.874 222.823 26.826 223.167 26.826C223.567 26.826 223.925 26.89 224.241 27.018C224.561 27.142 224.837 27.314 225.069 27.534L224.829 27.924Z" fill="#24252C"/>
<path d="M34.6477 54.4205C34.5568 53.5038 34.1667 52.7917 33.4773 52.2841C32.7879 51.7765 31.8523 51.5227 30.6705 51.5227C29.8674 51.5227 29.1894 51.6364 28.6364 51.8636C28.0833 52.0833 27.6591 52.3902 27.3636 52.7841C27.0758 53.178 26.9318 53.625 26.9318 54.125C26.9167 54.5417 27.0038 54.9053 27.1932 55.2159C27.3902 55.5265 27.6591 55.7955 28 56.0227C28.3409 56.2424 28.7348 56.4356 29.1818 56.6023C29.6288 56.7614 30.1061 56.8977 30.6136 57.0114L32.7045 57.5114C33.7197 57.7386 34.6515 58.0417 35.5 58.4205C36.3485 58.7992 37.0833 59.2652 37.7045 59.8182C38.3258 60.3712 38.8068 61.0227 39.1477 61.7727C39.4962 62.5227 39.6742 63.3826 39.6818 64.3523C39.6742 65.7765 39.3106 67.0114 38.5909 68.0568C37.8788 69.0947 36.8485 69.9015 35.5 70.4773C34.1591 71.0455 32.5417 71.3295 30.6477 71.3295C28.7689 71.3295 27.1326 71.0417 25.7386 70.4659C24.3523 69.8902 23.2689 69.0379 22.4886 67.9091C21.7159 66.7727 21.3106 65.3674 21.2727 63.6932H26.0341C26.0871 64.4735 26.3106 65.125 26.7045 65.6477C27.1061 66.1629 27.6402 66.553 28.3068 66.8182C28.9811 67.0758 29.7424 67.2045 30.5909 67.2045C31.4242 67.2045 32.1477 67.0833 32.7614 66.8409C33.3826 66.5985 33.8636 66.2614 34.2045 65.8295C34.5455 65.3977 34.7159 64.9015 34.7159 64.3409C34.7159 63.8182 34.5606 63.3788 34.25 63.0227C33.947 62.6667 33.5 62.3636 32.9091 62.1136C32.3258 61.8636 31.6098 61.6364 30.7614 61.4318L28.2273 60.7955C26.2652 60.3182 24.7159 59.572 23.5795 58.5568C22.4432 57.5417 21.8788 56.1742 21.8864 54.4545C21.8788 53.0455 22.2538 51.8144 23.0114 50.7614C23.7765 49.7083 24.8258 48.8864 26.1591 48.2955C27.4924 47.7045 29.0076 47.4091 30.7045 47.4091C32.4318 47.4091 33.9394 47.7045 35.2273 48.2955C36.5227 48.8864 37.5303 49.7083 38.25 50.7614C38.9697 51.8144 39.3409 53.0341 39.3636 54.4205H34.6477ZM42.1051 51.7841V47.7273H61.2188V51.7841H54.0938V71H49.2301V51.7841H42.1051ZM65.5341 71H60.2614L68.2955 47.7273H74.6364L82.6591 71H77.3864L71.5568 53.0455H71.375L65.5341 71ZM65.2045 61.8523H77.6591V65.6932H65.2045V61.8523ZM85.4602 71V47.7273H94.642C96.3996 47.7273 97.8996 48.0417 99.142 48.6705C100.392 49.2917 101.343 50.1742 101.994 51.3182C102.653 52.4545 102.983 53.7917 102.983 55.3295C102.983 56.875 102.65 58.2045 101.983 59.3182C101.316 60.4242 100.35 61.2727 99.0852 61.8636C97.8277 62.4545 96.3049 62.75 94.517 62.75H88.3693V58.7955H93.7216C94.661 58.7955 95.4413 58.6667 96.0625 58.4091C96.6837 58.1515 97.1458 57.7652 97.4489 57.25C97.7595 56.7348 97.9148 56.0947 97.9148 55.3295C97.9148 54.5568 97.7595 53.9053 97.4489 53.375C97.1458 52.8447 96.6799 52.4432 96.0511 52.1705C95.4299 51.8902 94.6458 51.75 93.6989 51.75H90.3807V71H85.4602ZM98.0284 60.4091L103.812 71H98.3807L92.7216 60.4091H98.0284ZM105.574 51.7841V47.7273H124.688V51.7841H117.562V71H112.699V51.7841H105.574ZM127.835 71V47.7273H143.517V51.7841H132.756V57.3295H142.71V61.3864H132.756V66.9432H143.562V71H127.835ZM147.429 71V47.7273H156.611C158.368 47.7273 159.868 48.0417 161.111 48.6705C162.361 49.2917 163.312 50.1742 163.963 51.3182C164.622 52.4545 164.952 53.7917 164.952 55.3295C164.952 56.875 164.618 58.2045 163.952 59.3182C163.285 60.4242 162.319 61.2727 161.054 61.8636C159.796 62.4545 158.274 62.75 156.486 62.75H150.338V58.7955H155.69C156.63 58.7955 157.41 58.6667 158.031 58.4091C158.652 58.1515 159.115 57.7652 159.418 57.25C159.728 56.7348 159.884 56.0947 159.884 55.3295C159.884 54.5568 159.728 53.9053 159.418 53.375C159.115 52.8447 158.649 52.4432 158.02 52.1705C157.399 51.8902 156.615 51.75 155.668 51.75H152.349V71H147.429ZM159.997 60.4091L165.781 71H160.349L154.69 60.4091H159.997Z" fill="#E83BAC"/>
<path d="M45.421 165.292C45.7592 165.102 46.1872 165.134 46.4948 165.389L52.0177 169.974L57.0055 166.756L57.13 166.687C57.4273 166.553 57.7773 166.579 58.0533 166.765L63.082 170.158L69.0823 167.161C69.3725 167.016 69.7178 167.03 69.9963 167.196C70.2746 167.363 70.4489 167.66 70.4588 167.984C70.466 168.218 70.4774 168.495 70.4774 168.768C70.4774 182.396 59.3994 193.44 45.7387 193.44C32.0782 193.44 21 182.396 21 168.768C21 168.597 21.0106 168.367 21.013 168.253C21.0201 167.928 21.1934 167.629 21.4719 167.46C21.7505 167.292 22.0962 167.278 22.3877 167.423L28.5199 170.473L33.7214 166.983L33.844 166.912C34.138 166.773 34.488 166.792 34.7673 166.972L39.6047 170.085L45.2817 165.389L45.421 165.292ZM40.2809 171.995C39.9617 172.259 39.509 172.286 39.1607 172.062L34.2638 168.909L29.1218 172.361C28.8381 172.551 28.4746 172.574 28.1688 172.422L22.9264 169.816C23.4751 181.902 33.4757 191.537 45.7387 191.538C58.0922 191.538 68.1482 181.76 68.5603 169.548L63.4387 172.108C63.1319 172.261 62.7664 172.238 62.482 172.047L57.509 168.694L52.4635 171.95C52.1147 172.175 51.661 172.148 51.3415 171.883L45.8855 167.354L40.2809 171.995Z" fill="#E83BAC"/>
<path d="M61.6254 156.13C61.6254 147.386 54.516 140.293 45.7404 140.293C36.9648 140.293 29.8554 147.386 29.8554 156.13V171.623H27.9531V156.13C27.9531 146.33 35.9194 138.391 45.7404 138.391C55.5614 138.391 63.5277 146.33 63.5277 156.13V171.623H61.6254V156.13Z" fill="#E83BAC"/>
<path fill-rule="evenodd" clip-rule="evenodd" d="M45.3822 131C45.9602 131 46.4284 131.626 46.4284 132.399V137.994C46.4284 138.767 45.9602 139.393 45.3822 139.393C44.8041 139.393 44.3359 138.767 44.3359 137.994V132.399C44.3359 131.626 44.8041 131 45.3822 131Z" fill="black"/>
<path d="M45.3818 131C45.9599 131 46.4277 131.626 46.4277 132.399V137.994C46.4277 138.767 45.9598 139.393 45.3818 139.393C44.8039 139.393 44.336 138.767 44.3359 137.994V132.399C44.3359 131.626 44.8039 131 45.3818 131Z" fill="#E83BAC"/>
<path fill-rule="evenodd" clip-rule="evenodd" d="M40.2118 134.962C40.6389 134.568 41.2604 134.547 41.5985 134.914L44.4597 138.01C44.7985 138.376 44.7269 138.992 44.2991 139.384C43.8719 139.776 43.2511 139.798 42.9123 139.431L40.0511 136.336C39.713 135.969 39.7846 135.354 40.2118 134.962Z" fill="black"/>
<path d="M40.2112 134.961C40.6384 134.568 41.2609 134.548 41.599 134.914L44.4601 138.009C44.7989 138.376 44.7263 138.992 44.2984 139.384C43.8714 139.776 43.2513 139.798 42.9125 139.432L40.0515 136.336C39.7134 135.969 39.784 135.353 40.2112 134.961Z" fill="#E83BAC"/>
<path d="M53.4562 157.58C55.0057 157.58 56.2619 156.327 56.2619 154.782C56.2619 153.237 55.0057 151.984 53.4562 151.984C51.9066 151.984 50.6504 153.237 50.6504 154.782C50.6504 156.327 51.9066 157.58 53.4562 157.58Z" fill="white"/>
<path d="M54.3602 154.782C54.3602 154.293 53.9597 153.887 53.4555 153.887C52.9516 153.887 52.5527 154.293 52.5527 154.782C52.5527 155.271 52.9516 155.677 53.4555 155.677V157.58L53.1694 157.565C51.8489 157.431 50.7994 156.385 50.6653 155.068L50.6504 154.782C50.6504 153.237 51.9062 151.985 53.4555 151.984C55.0051 151.984 56.2624 153.237 56.2624 154.782L56.2476 155.068C56.1039 156.479 54.9082 157.58 53.4555 157.58V155.677C53.9597 155.677 54.3602 155.271 54.3602 154.782Z" fill="#E83BAC"/>
<path d="M38.0226 157.58C39.5722 157.58 40.8283 156.327 40.8283 154.782C40.8283 153.237 39.5722 151.984 38.0226 151.984C36.473 151.984 35.2168 153.237 35.2168 154.782C35.2168 156.327 36.473 157.58 38.0226 157.58Z" fill="white"/>
<path d="M38.9266 154.782C38.9266 154.293 38.5261 153.887 38.0219 153.887C37.518 153.887 37.1191 154.293 37.1191 154.782C37.1191 155.271 37.518 155.677 38.0219 155.677V157.58L37.7358 157.565C36.4153 157.431 35.3658 156.385 35.2317 155.068L35.2168 154.782C35.2168 153.237 36.4726 151.985 38.0219 151.984C39.5715 151.984 40.8288 153.237 40.8288 154.782L40.814 155.068C40.6703 156.479 39.4746 157.58 38.0219 157.58V155.677C38.5261 155.677 38.9266 155.271 38.9266 154.782Z" fill="#E83BAC"/>
<path fill-rule="evenodd" clip-rule="evenodd" d="M45.9406 156.18C46.8258 156.18 47.5953 156.806 47.6584 157.579L47.8303 159.677C47.8934 160.45 47.227 161.076 46.3411 161.076C45.4559 161.076 44.6864 160.45 44.6233 159.677L44.4514 157.579C44.3883 156.806 45.0546 156.18 45.9406 156.18Z" fill="black"/>
<path d="M45.9413 156.18C46.8264 156.18 47.5965 156.806 47.6596 157.579L47.8305 159.676C47.8936 160.449 47.2266 161.075 46.3407 161.075C45.4558 161.074 44.6873 160.448 44.6242 159.676L44.4514 157.579C44.3883 156.806 45.0553 156.18 45.9413 156.18Z" fill="#E83BAC"/>
<defs>
<linearGradient id="paint0_linear_1495_511" x1="197" y1="5" x2="197" y2="210" gradientUnits="userSpaceOnUse">
<stop stop-color="white"/>
<stop offset="1" stop-color="white"/>
</linearGradient>
</defs>
</svg>
