<svg width="18" height="24" viewBox="0 0 18 24" fill="none" xmlns="http://www.w3.org/2000/svg">
<path d="M15.7314 14.213H14.5688C14.4564 13.8456 14.3095 13.4912 14.1279 13.1541L14.9534 12.3329C15.122 12.1643 15.122 11.892 14.9534 11.7191L13.0734 9.83906C12.9005 9.67051 12.6282 9.67051 12.4596 9.83906L11.6384 10.6646C11.3013 10.483 10.9469 10.3361 10.5795 10.2237V9.06111C10.5795 8.82339 10.3851 8.62891 10.1473 8.62891H7.48499C7.24728 8.62891 7.0528 8.82339 7.0528 9.06111V10.2237C6.68543 10.3361 6.33101 10.483 5.99391 10.6646L5.17272 9.83906C5.00416 9.67051 4.73186 9.67051 4.55898 9.83906L2.67891 11.7191C2.51035 11.892 2.51035 12.1643 2.67891 12.3329L3.50442 13.1541C3.32289 13.4912 3.17594 13.8456 3.06356 14.213H1.90095C1.66324 14.213 1.46875 14.4074 1.46875 14.6452V17.3075C1.46875 17.5452 1.66324 17.7397 1.90095 17.7397H3.06356C3.17593 18.1071 3.32288 18.4615 3.50442 18.7986L2.67891 19.6198C2.51035 19.7883 2.51035 20.0606 2.67891 20.2335L4.55898 22.1136C4.64542 22.1957 4.7578 22.2389 4.86585 22.2389C4.97391 22.2389 5.08627 22.1957 5.17272 22.1136L5.99391 21.2881C6.33104 21.4696 6.68543 21.6165 7.0528 21.7289V22.8915C7.0528 23.1293 7.24728 23.3237 7.48499 23.3237H10.1473C10.3851 23.3237 10.5795 23.1293 10.5795 22.8915V21.7289C10.9469 21.6166 11.3013 21.4696 11.6384 21.2881L12.4596 22.1136C12.5461 22.1957 12.6541 22.2389 12.7665 22.2389C12.8789 22.2389 12.9869 22.1957 13.0734 22.1136L14.9534 20.2335C15.122 20.0606 15.122 19.7883 14.9534 19.6198L14.1279 18.7986C14.3094 18.4615 14.4564 18.1071 14.5688 17.7397H15.7314C15.9691 17.7397 16.1636 17.5452 16.1636 17.3075V14.6452C16.1636 14.4074 15.9691 14.213 15.7314 14.213ZM5.61806 15.9763C5.61806 14.213 7.05296 12.7782 8.8162 12.7782C10.5794 12.7782 12.0143 14.2131 12.0143 15.9763C12.0143 17.7396 10.5794 19.1745 8.8162 19.1745C7.05296 19.1745 5.61806 17.7396 5.61806 15.9763Z" fill="#FF4726"/>
<path d="M6.04912 5.17236H7.0864V7.33336C7.0864 7.57107 7.28089 7.76556 7.5186 7.76556C7.75631 7.76556 7.9508 7.57107 7.9508 7.33336V4.74016C7.9508 4.50245 7.75631 4.30796 7.5186 4.30796H6.84005L8.8152 1.2177L10.7903 4.30796H10.1118C9.87408 4.30796 9.6796 4.50245 9.6796 4.74016V7.33336C9.6796 7.57107 9.87408 7.76556 10.1118 7.76556C10.3495 7.76556 10.544 7.57107 10.544 7.33336V5.17236H11.5813C11.7412 5.17236 11.8838 5.08592 11.9616 4.94762C12.0394 4.80931 12.0308 4.64075 11.9443 4.50676L9.17824 0.184764C9.01833 -0.0615881 8.60774 -0.0615881 8.45215 0.184764L5.68607 4.50676C5.59963 4.64074 5.59531 4.80931 5.66878 4.94762C5.74658 5.08592 5.88921 5.17236 6.04912 5.17236Z" fill="#FF4726"/>
<path d="M1.46921 10.6675C1.46921 10.9052 1.6637 11.0997 1.90141 11.0997C2.13912 11.0997 2.33361 10.9052 2.33361 10.6675V7.7675C2.33361 7.52979 2.13912 7.3353 1.90141 7.3353H1.22286L3.19801 4.24504L5.17315 7.3353H4.49461C4.2569 7.3353 4.06241 7.52979 4.06241 7.7675V8.45902C4.06241 8.69673 4.2569 8.89122 4.49461 8.89122C4.73232 8.89122 4.92681 8.69673 4.92681 8.45902V8.1997H5.96409C6.124 8.1997 6.26664 8.11326 6.34442 7.97496C6.4222 7.83666 6.41357 7.66809 6.32713 7.5341L3.56106 3.21211C3.40114 2.96576 2.99055 2.96576 2.83496 3.21211L0.0688851 7.5341C-0.0175548 7.66809 -0.0218755 7.83666 0.0515971 7.97496C0.129393 8.11326 0.27202 8.1997 0.431933 8.1997H1.46921V10.6675Z" fill="#FF4726"/>
<path d="M17.5635 7.5341L14.7974 3.21211C14.6375 2.96576 14.2269 2.96576 14.0713 3.21211L11.3052 7.5341C11.2188 7.66809 11.2145 7.83666 11.2879 7.97496C11.3657 8.11326 11.5083 8.1997 11.6683 8.1997H12.7055V8.45902C12.7055 8.69673 12.9 8.89122 13.1377 8.89122C13.3755 8.89122 13.5699 8.69673 13.5699 8.45902V7.7675C13.5699 7.52979 13.3755 7.33531 13.1377 7.33531H12.4592L14.4343 4.24504L16.4095 7.33531H15.7309C15.4932 7.33531 15.2987 7.52979 15.2987 7.7675V10.6675C15.2987 10.9052 15.4932 11.0997 15.7309 11.0997C15.9686 11.0997 16.1631 10.9052 16.1631 10.6675V8.19959H17.2004C17.3603 8.19959 17.503 8.11315 17.5808 7.97485C17.6585 7.83655 17.6499 7.66809 17.5635 7.5341Z" fill="#FF4726"/>
</svg>
