<svg width="355" height="104" viewBox="0 0 355 104" fill="none" xmlns="http://www.w3.org/2000/svg">
<path d="M280.015 57.0335C280.015 58.9429 280.68 60.5617 282.008 61.89C283.419 63.2183 285.079 63.8825 286.989 63.8825H299.068V78.3276H286.989C283.751 78.3276 280.68 77.7465 277.774 76.5842C274.951 75.339 272.461 73.6786 270.302 71.6031C268.227 69.4447 266.566 66.9541 265.321 64.1315C264.076 61.3089 263.453 58.2787 263.453 55.041V36.3619H254.487V22.5394H263.453V0H280.015V57.0335Z" fill="white"/>
<path d="M215.582 15.0687C220.065 15.0687 224.299 15.9404 228.284 17.6837C232.269 19.3441 235.714 21.6686 238.62 24.6573C241.608 27.5629 243.933 30.9666 245.593 34.8685C247.337 38.7703 248.208 42.9628 248.208 47.4457C248.208 52.0117 247.337 56.2872 245.593 60.272C243.933 64.2569 241.608 67.7437 238.62 70.7323C235.714 73.638 232.269 75.9625 228.284 77.7059C224.299 79.3662 220.065 80.1964 215.582 80.1964C209.439 80.1964 204.333 78.536 200.265 75.2153V75.0908L206.492 63.6343L206.616 63.7588C208.858 64.755 211.141 65.2531 213.465 65.2531C215.873 65.2531 218.156 64.7965 220.314 63.8833C222.473 62.9701 224.341 61.7249 225.918 60.1475C227.578 58.4872 228.865 56.5777 229.778 54.4193C230.691 52.2608 231.148 49.9363 231.148 47.4457C231.148 45.0382 230.691 42.7967 229.778 40.7213C228.865 38.5628 227.578 36.6949 225.918 35.1175C224.341 33.5402 222.473 32.2949 220.314 31.3817C218.156 30.4685 215.873 30.0119 213.465 30.0119C210.975 30.0119 208.65 30.4685 206.492 31.3817C204.416 32.2949 202.59 33.5402 201.012 35.1175C199.435 36.6949 198.19 38.5628 197.277 40.7213C196.363 42.7967 195.907 45.0382 195.907 47.4457V103.234H179.096V16.0649H195.907V24.5327C200.39 18.2234 206.948 15.0687 215.582 15.0687Z" fill="white"/>
<path d="M106.894 78.3262L123.58 55.6623L138.773 62.6358L127.191 78.3262H106.894ZM149.98 47.4435L172.893 78.3262H152.471V78.2017L129.807 47.568L107.018 16.0626H127.191L139.769 37.2322L152.471 16.0626H172.893L172.644 16.1871L149.98 47.4435Z" fill="white"/>
<path d="M79.3175 15.0687C83.7175 15.0687 87.8684 15.9404 91.7702 17.6837C95.6721 19.3441 99.0758 21.6271 101.981 24.5327C104.887 27.4384 107.17 30.8421 108.83 34.744C110.574 38.6458 111.446 42.8382 111.446 47.3212C111.446 49.7287 111.196 52.0532 110.698 54.2947L110.574 54.5438H78.9439L70.9742 41.842H94.6343C93.4721 38.3552 91.5212 35.4911 88.7816 33.2496C86.125 31.0081 82.9703 29.8874 79.3175 29.8874C77.076 29.8874 74.959 30.344 72.9666 31.2572C70.9742 32.1704 69.2308 33.4157 67.7365 34.993C66.3252 36.4873 65.2044 38.3137 64.3742 40.4722C63.5441 42.5477 63.129 44.8307 63.129 47.3212C63.129 49.2306 63.5025 51.2231 64.2497 53.2985C64.9969 55.291 66.0761 57.1174 67.4874 58.7777C68.8987 60.4381 70.6006 61.8494 72.593 63.0116C74.5855 64.0909 76.827 64.6305 79.3175 64.6305C81.559 64.6305 83.5929 64.3399 85.4193 63.7588C87.3287 63.0947 89.1136 61.6833 90.774 59.5249L90.8985 59.4003L91.1476 59.5249L105.593 65.8758L105.344 66.1248C102.355 70.2757 98.5362 73.5134 93.8872 75.8379C89.3212 78.1624 84.4646 79.3247 79.3175 79.3247C74.8345 79.3247 70.6006 78.4945 66.6157 76.8342C62.7139 75.1738 59.3101 72.8908 56.4045 69.9852C53.4989 67.0795 51.1744 63.6758 49.431 59.7739C47.7706 55.8721 46.9404 51.7212 46.9404 47.3212C46.9404 42.8382 47.7706 38.6458 49.431 34.744C51.1744 30.8421 53.4989 27.4384 56.4045 24.5327C59.3101 21.6271 62.7139 19.3441 66.6157 17.6837C70.6006 15.9404 74.8345 15.0687 79.3175 15.0687Z" fill="white"/>
<path d="M50.8071 18.5554L49.3128 21.046L42.9619 32.3779L42.8374 32.2534C40.0978 30.6761 37.1506 29.8874 33.9959 29.8874C31.8375 29.8874 29.8035 30.261 27.8941 31.0081C25.9847 31.6723 24.2828 32.6685 22.7885 33.9968C21.2942 35.2421 20.0074 36.7364 18.9281 38.4798C17.9319 40.2231 17.2678 42.0911 16.9357 44.0835V78.3285H0V16.0649H16.9357V24.1591C21.3357 18.0988 27.7696 15.0687 36.2374 15.0687C41.2185 15.0687 46.0336 16.2309 50.6826 18.5554H50.8071Z" fill="white"/>
<path d="M280.812 22.4155H296.066V36.4248L280.812 22.4155Z" fill="white"/>
<path d="M170.376 94.1161L171.677 94.2769C171.472 95.0368 171.092 95.6265 170.537 96.046C169.982 96.4656 169.274 96.6754 168.411 96.6754C167.325 96.6754 166.463 96.3421 165.824 95.6754C165.19 95.0042 164.873 94.0648 164.873 92.8575C164.873 91.6081 165.195 90.6385 165.838 89.9486C166.481 89.2587 167.316 88.9137 168.341 88.9137C169.334 88.9137 170.145 89.2517 170.775 89.9276C171.404 90.6035 171.719 91.5545 171.719 92.7805C171.719 92.8551 171.716 92.967 171.712 93.1162H166.174C166.22 93.932 166.451 94.5566 166.866 94.9902C167.281 95.4237 167.798 95.6405 168.418 95.6405C168.88 95.6405 169.274 95.5193 169.6 95.2769C169.926 95.0345 170.185 94.6475 170.376 94.1161ZM166.244 92.0813H170.39C170.334 91.4566 170.176 90.9881 169.915 90.6758C169.514 90.191 168.994 89.9486 168.355 89.9486C167.777 89.9486 167.29 90.142 166.894 90.529C166.502 90.9159 166.286 91.4333 166.244 92.0813Z" fill="white"/>
<path d="M163.121 93.7875L164.359 93.9483C164.223 94.8014 163.876 95.4703 163.317 95.9551C162.762 96.4353 162.079 96.6754 161.268 96.6754C160.252 96.6754 159.434 96.3444 158.814 95.6824C158.198 95.0158 157.891 94.0625 157.891 92.8225C157.891 92.0207 158.023 91.3191 158.289 90.7178C158.555 90.1164 158.958 89.6666 159.499 89.3682C160.044 89.0652 160.636 88.9137 161.275 88.9137C162.081 88.9137 162.741 89.1188 163.254 89.529C163.767 89.9346 164.095 90.5126 164.24 91.2632L163.016 91.452C162.9 90.9532 162.692 90.5779 162.394 90.3262C162.1 90.0745 161.743 89.9486 161.324 89.9486C160.69 89.9486 160.175 90.177 159.779 90.6338C159.382 91.086 159.184 91.8039 159.184 92.7875C159.184 93.7851 159.375 94.51 159.758 94.9622C160.14 95.4144 160.639 95.6405 161.254 95.6405C161.748 95.6405 162.161 95.489 162.492 95.186C162.823 94.883 163.032 94.4168 163.121 93.7875Z" fill="white"/>
<path d="M155.237 87.7068V86.2594H156.496V87.7068H155.237ZM155.237 96.5104V89.0844H156.496V96.5104H155.237Z" fill="white"/>
<path d="M150.277 96.5114L147.452 89.0853H148.781L150.375 93.5326C150.547 94.0127 150.706 94.5115 150.851 95.0289C150.962 94.6374 151.119 94.1665 151.319 93.6165L152.969 89.0853H154.263L151.452 96.5114H150.277Z" fill="white"/>
<path d="M143.573 96.5075V89.0815H144.706V90.2073C144.995 89.6805 145.261 89.3332 145.503 89.1654C145.75 88.9976 146.021 88.9137 146.314 88.9137C146.739 88.9137 147.17 89.0489 147.608 89.3193L147.174 90.487C146.867 90.3052 146.559 90.2143 146.251 90.2143C145.976 90.2143 145.729 90.2982 145.51 90.466C145.291 90.6292 145.135 90.8576 145.042 91.1513C144.902 91.5988 144.832 92.0883 144.832 92.6197V96.5075H143.573Z" fill="white"/>
<path d="M140.843 94.1161L142.144 94.2769C141.938 95.0368 141.559 95.6265 141.004 96.046C140.449 96.4656 139.74 96.6754 138.878 96.6754C137.792 96.6754 136.929 96.3421 136.291 95.6754C135.657 95.0042 135.34 94.0648 135.34 92.8575C135.34 91.6081 135.661 90.6385 136.305 89.9486C136.948 89.2587 137.783 88.9137 138.808 88.9137C139.801 88.9137 140.612 89.2517 141.242 89.9276C141.871 90.6035 142.185 91.5545 142.185 92.7805C142.185 92.8551 142.183 92.967 142.179 93.1162H136.64C136.687 93.932 136.918 94.5566 137.333 94.9902C137.748 95.4237 138.265 95.6405 138.885 95.6405C139.347 95.6405 139.74 95.5193 140.067 95.2769C140.393 95.0345 140.652 94.6475 140.843 94.1161ZM136.71 92.0813H140.857C140.801 91.4566 140.642 90.9881 140.381 90.6758C139.981 90.191 139.461 89.9486 138.822 89.9486C138.244 89.9486 137.757 90.142 137.361 90.529C136.969 90.9159 136.752 91.4333 136.71 92.0813Z" fill="white"/>
<path d="M126.053 93.2169L127.332 93.1051C127.393 93.6178 127.533 94.0397 127.752 94.3707C127.976 94.697 128.321 94.9627 128.787 95.1678C129.253 95.3683 129.777 95.4685 130.36 95.4685C130.878 95.4685 131.334 95.3916 131.731 95.2378C132.127 95.0839 132.421 94.8742 132.612 94.6084C132.807 94.3381 132.905 94.0444 132.905 93.7274C132.905 93.4057 132.812 93.126 132.626 92.8883C132.439 92.6459 132.132 92.4431 131.703 92.2799C131.428 92.1727 130.819 92.0072 129.878 91.7835C128.936 91.5551 128.276 91.3406 127.899 91.1402C127.409 90.8838 127.043 90.5668 126.801 90.1892C126.563 89.8069 126.444 89.3804 126.444 88.9096C126.444 88.3921 126.591 87.9096 126.885 87.4621C127.179 87.0099 127.607 86.6673 128.171 86.4342C128.736 86.2011 129.363 86.0846 130.052 86.0846C130.812 86.0846 131.481 86.2081 132.059 86.4552C132.642 86.6976 133.09 87.0566 133.402 87.532C133.714 88.0075 133.882 88.546 133.905 89.1473L132.605 89.2452C132.535 88.5972 132.297 88.1078 131.891 87.7768C131.491 87.4458 130.896 87.2803 130.108 87.2803C129.288 87.2803 128.689 87.4318 128.311 87.7348C127.938 88.0332 127.752 88.3944 127.752 88.8187C127.752 89.1869 127.885 89.4899 128.15 89.7277C128.412 89.9654 129.092 90.2102 130.192 90.4619C131.297 90.709 132.055 90.9257 132.465 91.1122C133.062 91.3872 133.502 91.7369 133.786 92.1611C134.071 92.5806 134.213 93.0654 134.213 93.6155C134.213 94.1609 134.057 94.676 133.744 95.1608C133.432 95.641 132.982 96.0163 132.395 96.2866C131.812 96.5524 131.155 96.6852 130.423 96.6852C129.495 96.6852 128.717 96.55 128.088 96.2796C127.463 96.0093 126.971 95.6037 126.612 95.063C126.258 94.5175 126.071 93.9022 126.053 93.2169Z" fill="white"/>
<path d="M121.414 95.3854L121.596 96.4972C121.241 96.5718 120.924 96.6091 120.645 96.6091C120.188 96.6091 119.834 96.5369 119.582 96.3923C119.33 96.2478 119.153 96.059 119.05 95.8259C118.948 95.5882 118.897 95.0917 118.897 94.3365V90.0641H117.974V89.0852H118.897V87.2462L120.148 86.491V89.0852H121.414V90.0641H120.148V94.4065C120.148 94.7654 120.169 94.9962 120.211 95.0987C120.258 95.2013 120.33 95.2829 120.428 95.3435C120.531 95.4041 120.675 95.4344 120.862 95.4344C121.001 95.4344 121.186 95.4181 121.414 95.3854Z" fill="white"/>
<path d="M111.143 94.2909L112.387 94.0951C112.457 94.5939 112.651 94.9762 112.968 95.2419C113.289 95.5076 113.737 95.6405 114.31 95.6405C114.888 95.6405 115.317 95.5239 115.597 95.2909C115.876 95.0531 116.016 94.7757 116.016 94.4587C116.016 94.1744 115.893 93.9506 115.646 93.7875C115.473 93.6756 115.044 93.5334 114.359 93.3609C113.436 93.1278 112.795 92.9274 112.436 92.7596C112.082 92.5871 111.812 92.3517 111.625 92.0533C111.443 91.7503 111.352 91.417 111.352 91.0534C111.352 90.7224 111.427 90.4171 111.576 90.1374C111.73 89.853 111.937 89.6176 112.198 89.4311C112.394 89.2866 112.66 89.1654 112.996 89.0675C113.336 88.965 113.699 88.9137 114.086 88.9137C114.669 88.9137 115.18 88.9976 115.618 89.1654C116.061 89.3332 116.387 89.5617 116.597 89.8507C116.806 90.1351 116.951 90.5173 117.03 90.9975L115.8 91.1653C115.744 90.783 115.58 90.4847 115.31 90.2702C115.044 90.0558 114.667 89.9486 114.177 89.9486C113.599 89.9486 113.187 90.0441 112.94 90.2353C112.693 90.4264 112.569 90.6502 112.569 90.9066C112.569 91.0697 112.62 91.2166 112.723 91.3471C112.825 91.4823 112.986 91.5942 113.205 91.6827C113.331 91.7293 113.702 91.8366 114.317 92.0044C115.208 92.2421 115.828 92.4379 116.177 92.5917C116.531 92.7409 116.809 92.96 117.009 93.249C117.21 93.5381 117.31 93.897 117.31 94.3259C117.31 94.7454 117.186 95.1417 116.939 95.5146C116.697 95.8829 116.345 96.1696 115.883 96.3747C115.422 96.5751 114.9 96.6754 114.317 96.6754C113.352 96.6754 112.616 96.4749 112.108 96.074C111.604 95.6731 111.282 95.0787 111.143 94.2909Z" fill="white"/>
<path d="M108.609 87.7068V86.2594H109.868V87.7068H108.609ZM108.609 96.5104V89.0844H109.868V96.5104H108.609Z" fill="white"/>
<path d="M100.777 96.5075V89.0815H101.91V90.1374C102.456 89.3216 103.243 88.9137 104.274 88.9137C104.721 88.9137 105.131 88.9953 105.504 89.1584C105.882 89.3169 106.164 89.5267 106.35 89.7878C106.537 90.0488 106.667 90.3588 106.742 90.7178C106.789 90.9508 106.812 91.3587 106.812 91.9414V96.5075H105.553V91.9904C105.553 91.4776 105.504 91.0954 105.406 90.8436C105.308 90.5872 105.134 90.3845 104.882 90.2353C104.635 90.0814 104.344 90.0045 104.008 90.0045C103.472 90.0045 103.008 90.1747 102.616 90.515C102.229 90.8553 102.036 91.5009 102.036 92.4519V96.5075H100.777Z" fill="white"/>
<path d="M92.4785 92.7945C92.4785 91.4193 92.8608 90.4008 93.6253 89.7388C94.2639 89.1887 95.0424 88.9137 95.9608 88.9137C96.9817 88.9137 97.8161 89.2493 98.4641 89.9206C99.1121 90.5872 99.436 91.5102 99.436 92.6896C99.436 93.6453 99.2915 94.3981 99.0025 94.9482C98.7182 95.4936 98.3009 95.9178 97.7509 96.2209C97.2054 96.5239 96.6087 96.6754 95.9608 96.6754C94.9212 96.6754 94.0798 96.3421 93.4365 95.6754C92.7978 95.0088 92.4785 94.0485 92.4785 92.7945ZM93.7721 92.7945C93.7721 93.7455 93.9796 94.4587 94.3945 94.9342C94.8093 95.4051 95.3315 95.6405 95.9608 95.6405C96.5854 95.6405 97.1052 95.4027 97.5201 94.9272C97.935 94.4518 98.1424 93.7269 98.1424 92.7526C98.1424 91.8342 97.9327 91.1396 97.5131 90.6688C97.0982 90.1933 96.5808 89.9556 95.9608 89.9556C95.3315 89.9556 94.8093 90.191 94.3945 90.6618C93.9796 91.1326 93.7721 91.8436 93.7721 92.7945Z" fill="white"/>
<path d="M89.9121 87.7068V86.2594H91.1708V87.7068H89.9121ZM89.9121 96.5104V89.0844H91.1708V96.5104H89.9121Z" fill="white"/>
<path d="M88.8085 95.3854L88.9903 96.4972C88.636 96.5718 88.319 96.6091 88.0393 96.6091C87.5825 96.6091 87.2282 96.5369 86.9764 96.3923C86.7247 96.2478 86.5476 96.059 86.445 95.8259C86.3425 95.5882 86.2912 95.0917 86.2912 94.3365V90.0641H85.3682V89.0852H86.2912V87.2462L87.5428 86.491V89.0852H88.8085V90.0641H87.5428V94.4065C87.5428 94.7654 87.5638 94.9962 87.6058 95.0987C87.6524 95.2013 87.7246 95.2829 87.8225 95.3435C87.9251 95.4041 88.0696 95.4344 88.2561 95.4344C88.3959 95.4344 88.58 95.4181 88.8085 95.3854Z" fill="white"/>
<path d="M78.2285 99.3535V89.0815H79.3753V90.0465C79.6457 89.6689 79.951 89.3869 80.2913 89.2004C80.6316 89.0093 81.0442 88.9137 81.529 88.9137C82.163 88.9137 82.7224 89.0769 83.2072 89.4032C83.692 89.7295 84.0579 90.191 84.305 90.7877C84.5521 91.3797 84.6756 92.03 84.6756 92.7386C84.6756 93.4984 84.5381 94.1837 84.263 94.7944C83.9927 95.4004 83.5964 95.8666 83.0743 96.1929C82.5569 96.5145 82.0115 96.6754 81.4381 96.6754C81.0185 96.6754 80.6409 96.5868 80.3053 96.4096C79.9743 96.2325 79.7016 96.0087 79.4872 95.7384V99.3535H78.2285ZM79.3683 92.8365C79.3683 93.7921 79.5618 94.4984 79.9487 94.9552C80.3356 95.4121 80.8041 95.6405 81.3542 95.6405C81.9136 95.6405 82.3914 95.4051 82.7876 94.9342C83.1885 94.4587 83.389 93.7245 83.389 92.7316C83.389 91.7853 83.1932 91.0767 82.8016 90.6059C82.4147 90.1351 81.9509 89.8996 81.4101 89.8996C80.874 89.8996 80.3985 90.1514 79.9836 90.6548C79.5734 91.1536 79.3683 91.8808 79.3683 92.8365Z" fill="white"/>
<path d="M75.4894 94.1161L76.79 94.2769C76.5849 95.0368 76.205 95.6265 75.6502 96.046C75.0955 96.4656 74.3869 96.6754 73.5245 96.6754C72.4384 96.6754 71.576 96.3421 70.9373 95.6754C70.3033 95.0042 69.9863 94.0648 69.9863 92.8575C69.9863 91.6081 70.308 90.6385 70.9513 89.9486C71.5946 89.2587 72.429 88.9137 73.4546 88.9137C74.4475 88.9137 75.2587 89.2517 75.888 89.9276C76.5173 90.6035 76.832 91.5545 76.832 92.7805C76.832 92.8551 76.8296 92.967 76.825 93.1162H71.2869C71.3335 93.932 71.5643 94.5566 71.9792 94.9902C72.3941 95.4237 72.9115 95.6405 73.5315 95.6405C73.993 95.6405 74.3869 95.5193 74.7133 95.2769C75.0396 95.0345 75.2983 94.6475 75.4894 94.1161ZM71.3569 92.0813H75.5034C75.4475 91.4566 75.289 90.9881 75.0279 90.6758C74.627 90.191 74.1072 89.9486 73.4686 89.9486C72.8905 89.9486 72.4034 90.142 72.0072 90.529C71.6156 90.9159 71.3988 91.4333 71.3569 92.0813Z" fill="white"/>
<path d="M68.2343 93.7875L69.472 93.9483C69.3368 94.8014 68.9895 95.4703 68.4301 95.9551C67.8753 96.4353 67.1924 96.6754 66.3813 96.6754C65.365 96.6754 64.5469 96.3444 63.9269 95.6824C63.3116 95.0158 63.0039 94.0625 63.0039 92.8225C63.0039 92.0207 63.1368 91.3191 63.4025 90.7178C63.6682 90.1164 64.0714 89.6666 64.6122 89.3682C65.1576 89.0652 65.7496 88.9137 66.3883 88.9137C67.1947 88.9137 67.8544 89.1188 68.3671 89.529C68.8799 89.9346 69.2086 90.5126 69.3531 91.2632L68.1294 91.452C68.0129 90.9532 67.8054 90.5779 67.5071 90.3262C67.2134 90.0745 66.8568 89.9486 66.4372 89.9486C65.8032 89.9486 65.2881 90.177 64.8919 90.6338C64.4956 91.086 64.2975 91.8039 64.2975 92.7875C64.2975 93.7851 64.4886 94.51 64.8709 94.9622C65.2532 95.4144 65.752 95.6405 66.3673 95.6405C66.8614 95.6405 67.274 95.489 67.605 95.186C67.9359 94.883 68.1457 94.4168 68.2343 93.7875Z" fill="white"/>
<path d="M60.6427 94.1161L61.9433 94.2769C61.7382 95.0368 61.3583 95.6265 60.8036 96.046C60.2488 96.4656 59.5403 96.6754 58.6779 96.6754C57.5917 96.6754 56.7293 96.3421 56.0906 95.6754C55.4566 95.0042 55.1396 94.0648 55.1396 92.8575C55.1396 91.6081 55.4613 90.6385 56.1046 89.9486C56.7479 89.2587 57.5824 88.9137 58.6079 88.9137C59.6009 88.9137 60.412 89.2517 61.0413 89.9276C61.6706 90.6035 61.9853 91.5545 61.9853 92.7805C61.9853 92.8551 61.983 92.967 61.9783 93.1162H56.4403C56.4869 93.932 56.7176 94.5566 57.1325 94.9902C57.5474 95.4237 58.0648 95.6405 58.6848 95.6405C59.1463 95.6405 59.5403 95.5193 59.8666 95.2769C60.1929 95.0345 60.4516 94.6475 60.6427 94.1161ZM56.5102 92.0813H60.6567C60.6008 91.4566 60.4423 90.9881 60.1812 90.6758C59.7803 90.191 59.2606 89.9486 58.6219 89.9486C58.0439 89.9486 57.5567 90.142 57.1605 90.529C56.7689 90.9159 56.5521 91.4333 56.5102 92.0813Z" fill="white"/>
<path d="M45.5303 96.5104V86.2594H50.0754C50.9891 86.2594 51.6837 86.3526 52.1592 86.5391C52.6346 86.7209 53.0146 87.0449 53.2989 87.5111C53.5833 87.9772 53.7255 88.4923 53.7255 89.0564C53.7255 89.7836 53.4901 90.3966 53.0192 90.8954C52.5484 91.3942 51.8212 91.7112 50.8376 91.8464C51.1965 92.0189 51.4692 92.189 51.6557 92.3569C52.0519 92.7205 52.4272 93.175 52.7815 93.7204L54.5646 96.5104H52.8584L51.5019 94.3777C51.1056 93.7623 50.7793 93.2915 50.5229 92.9652C50.2665 92.6389 50.0358 92.4105 49.8307 92.2799C49.6302 92.1494 49.4251 92.0585 49.2153 92.0072C49.0615 91.9746 48.8098 91.9583 48.4601 91.9583H46.8868V96.5104H45.5303ZM46.8868 90.7835H49.8027C50.4227 90.7835 50.9075 90.7206 51.2571 90.5947C51.6067 90.4642 51.8725 90.2591 52.0543 89.9794C52.2361 89.695 52.327 89.3874 52.327 89.0564C52.327 88.5716 52.1498 88.173 51.7955 87.8607C51.4459 87.5483 50.8912 87.3922 50.1313 87.3922H46.8868V90.7835Z" fill="white"/>
<path d="M38.0605 96.5104V86.2594H39.4171V96.5104H38.0605Z" fill="white"/>
<path d="M27.2949 96.5104L31.2317 86.2594H32.6931L36.8886 96.5104H35.3433L34.1476 93.4057H29.8612L28.7354 96.5104H27.2949ZM30.2527 92.3009H33.728L32.6582 89.462C32.3318 88.5996 32.0894 87.891 31.9309 87.3362C31.8004 87.9935 31.6163 88.6462 31.3785 89.2941L30.2527 92.3009Z" fill="white"/>
<path d="M22.4699 94.1161L23.7705 94.2769C23.5654 95.0368 23.1855 95.6265 22.6307 96.046C22.076 96.4656 21.3674 96.6754 20.505 96.6754C19.4188 96.6754 18.5564 96.3421 17.9178 95.6754C17.2838 95.0042 16.9668 94.0648 16.9668 92.8575C16.9668 91.6081 17.2885 90.6385 17.9318 89.9486C18.5751 89.2587 19.4095 88.9137 20.4351 88.9137C21.428 88.9137 22.2391 89.2517 22.8685 89.9276C23.4978 90.6035 23.8124 91.5545 23.8124 92.7805C23.8124 92.8551 23.8101 92.967 23.8055 93.1162H18.2674C18.314 93.932 18.5448 94.5566 18.9597 94.9902C19.3745 95.4237 19.892 95.6405 20.512 95.6405C20.9735 95.6405 21.3674 95.5193 21.6937 95.2769C22.02 95.0345 22.2788 94.6475 22.4699 94.1161ZM18.3373 92.0813H22.4839C22.4279 91.4566 22.2694 90.9881 22.0084 90.6758C21.6075 90.191 21.0877 89.9486 20.4491 89.9486C19.871 89.9486 19.3839 90.142 18.9876 90.529C18.596 90.9159 18.3793 91.4333 18.3373 92.0813Z" fill="white"/>
<path d="M9.55762 96.5104V86.2594H10.8163V89.9375C11.4036 89.2568 12.1448 88.9165 13.0399 88.9165C13.59 88.9165 14.0678 89.0261 14.4733 89.2452C14.8789 89.4596 15.1679 89.758 15.3404 90.1402C15.5176 90.5225 15.6061 91.0772 15.6061 91.8044V96.5104H14.3475V91.8044C14.3475 91.1751 14.21 90.7183 13.9349 90.4339C13.6645 90.1449 13.28 90.0004 12.7812 90.0004C12.4082 90.0004 12.0563 90.0983 11.7253 90.2941C11.399 90.4852 11.1659 90.7462 11.026 91.0772C10.8862 91.4082 10.8163 91.865 10.8163 92.4478V96.5104H9.55762Z" fill="white"/>
<path d="M3.71136 96.5104V87.4691H0.333984V86.2594H8.45926V87.4691H5.0679V96.5104H3.71136Z" fill="white"/>
<rect x="305.504" y="33.0892" width="49.3392" height="45.5744" rx="10" fill="#6524EB"/>
<path d="M347.462 55.1162C347.462 55.7483 347.563 56.7028 347.462 57.3127C343.887 74.3771 326.596 77.4352 324.822 76.4891C324.653 76.399 326.596 72.2733 326.005 71.0825C320.007 71.0825 312.657 61.5365 312.657 56.13C312.657 48.4023 319.857 41.3716 329.472 41.3716C339.087 41.3716 347.462 47.3885 347.462 55.1162Z" fill="white"/>
<path d="M347.06 55.7034C347.06 47.9757 339.603 41.7112 329.987 41.7112C320.372 41.7112 312.577 47.9757 312.577 55.7034L312.579 55.8843C312.679 62.2627 319.442 69.1332 326.773 70.7302C327.111 70.8038 325.84 75.6459 325.84 75.6459L328.121 75.0546C328.121 75.0546 343.243 72.7737 346.706 58.5215C346.914 57.6659 347.044 56.7865 347.058 55.8843L347.06 55.7034ZM349.087 55.7034C349.087 56.7526 348.929 57.7628 348.735 58.7504C345.305 76.1528 323.225 78.6026 323.225 78.6026C323.225 78.6026 324.903 72.163 324.493 72.0134C317.308 69.3946 310.888 63.313 310.888 55.7034C310.888 46.7166 319.802 40.0216 329.987 40.0216C340.172 40.0216 349.087 46.7166 349.087 55.7034Z" fill="#6524EB"/>
<path d="M321.52 76.3841C326.78 76.1808 332.15 75.3495 335.799 73.5221C344.604 69.1135 347.028 63.8557 347.831 57.9208L324.971 67.5475L321.52 76.3841Z" fill="white"/>
<ellipse cx="334.456" cy="57.5666" rx="13.0095" ry="14.7836" fill="white"/>
<ellipse cx="330.178" cy="57.0671" rx="17.5362" ry="15.2575" fill="white"/>
<rect x="316.551" y="49.4904" width="21.5758" height="11.1083" rx="5.55417" fill="#6524EB"/>
<rect x="319.327" y="52.2675" width="2.77708" height="5.55417" rx="1.38854" fill="white"/>
<rect x="323.812" y="52.2675" width="2.77708" height="5.55417" rx="1.38854" fill="white"/>
<path d="M332.597 33.067C332.597 34.7 331.311 36.0237 329.725 36.0237C328.138 36.0237 326.853 34.7 326.853 33.067C326.853 31.4341 328.138 30.1103 329.725 30.1103C331.311 30.1103 332.597 31.4341 332.597 33.067Z" fill="white"/>
<path d="M332.559 33.1513C332.559 31.6104 331.33 30.3566 329.798 30.3178L329.725 30.3168C328.159 30.3168 326.89 31.5859 326.89 33.1513L326.891 33.2245C326.93 34.7317 328.144 35.9465 329.652 35.9847L329.725 35.9857C331.266 35.9857 332.52 34.756 332.558 33.2245L332.559 33.1513ZM333.949 33.1513C333.949 35.4841 332.058 37.3751 329.725 37.3751C327.392 37.3751 325.501 35.4841 325.501 33.1513C325.501 30.8185 327.392 28.9274 329.725 28.9274C332.058 28.9274 333.949 30.8185 333.949 33.1513Z" fill="#6524EB"/>
<path d="M330.918 36.0222L331.585 41.7666H327.53L328.459 36.0222H330.918ZM329.35 36.9537L328.723 40.8351H330.441L329.99 36.9537H329.35Z" fill="#6524EB"/>
<path d="M329.386 36.5294H330.039L330.739 41.9359H328.374L329.386 36.5294Z" fill="white"/>
</svg>
